<svg width="122" height="225" viewBox="0 0 122 225" fill="none" xmlns="http://www.w3.org/2000/svg">
<path d="M19.841 182.481V179.379L27.0896 172.668C27.7061 172.071 28.2231 171.534 28.6407 171.057C29.065 170.579 29.3865 170.112 29.6052 169.655C29.824 169.191 29.9333 168.69 29.9333 168.153C29.9333 167.557 29.7974 167.043 29.5257 166.612C29.2539 166.175 28.8827 165.84 28.412 165.608C27.9414 165.369 27.4078 165.25 26.8112 165.25C26.1881 165.25 25.6445 165.376 25.1805 165.628C24.7165 165.88 24.3585 166.241 24.1066 166.712C23.8547 167.182 23.7288 167.742 23.7288 168.392H19.6421C19.6421 167.06 19.9437 165.903 20.547 164.922C21.1502 163.941 21.9954 163.182 23.0825 162.645C24.1696 162.108 25.4224 161.839 26.841 161.839C28.2993 161.839 29.5687 162.098 30.6492 162.615C31.7364 163.125 32.5815 163.835 33.1847 164.743C33.788 165.651 34.0896 166.692 34.0896 167.865C34.0896 168.634 33.9371 169.393 33.6322 170.142C33.3339 170.891 32.8003 171.723 32.0313 172.638C31.2624 173.546 30.1786 174.636 28.7799 175.909L25.8069 178.822V178.962H34.358V182.481H19.841ZM36.732 178.902V175.511L45.2334 162.118H48.1567V166.811H46.4266L41.0672 175.293V175.452H53.1482V178.902H36.732ZM46.5061 182.481V177.868L46.5857 176.366V162.118H50.6226V182.481H46.5061ZM64.9259 161.163L58.3634 185.544H54.7142L61.2767 161.163H64.9259ZM67.7323 182.481L76.1741 165.777V165.638H66.3403V162.118H80.6286V165.687L72.1769 182.481H67.7323ZM11.2439 213.481H8.47569L12.6936 201.263H16.0226L20.2345 213.481H17.4663L14.4058 204.055H14.3104L11.2439 213.481ZM11.0709 208.679H17.6095V210.695H11.0709V208.679ZM29.0521 204.318L25.8484 213.481H22.9848L19.7811 204.318H22.4657L24.3689 210.874H24.4643L26.3615 204.318H29.0521ZM32.7197 213.654C32.135 213.654 31.614 213.553 31.1566 213.35C30.6992 213.143 30.3373 212.839 30.0708 212.437C29.8083 212.032 29.677 211.527 29.677 210.922C29.677 210.413 29.7705 209.985 29.9574 209.639C30.1444 209.293 30.3989 209.015 30.7211 208.804C31.0432 208.593 31.4091 208.434 31.8188 208.327C32.2324 208.22 32.666 208.144 33.1194 208.1C33.6523 208.045 34.0819 207.993 34.408 207.945C34.7341 207.893 34.9708 207.818 35.118 207.718C35.2651 207.619 35.3387 207.472 35.3387 207.277V207.241C35.3387 206.863 35.2194 206.571 34.9807 206.364C34.7461 206.157 34.412 206.054 33.9785 206.054C33.5211 206.054 33.1572 206.155 32.8867 206.358C32.6162 206.557 32.4373 206.808 32.3498 207.11L29.9992 206.919C30.1185 206.362 30.3532 205.881 30.7032 205.475C31.0532 205.066 31.5046 204.751 32.0574 204.533C32.6143 204.31 33.2586 204.198 33.9904 204.198C34.4995 204.198 34.9867 204.258 35.452 204.377C35.9214 204.497 36.337 204.682 36.6989 204.932C37.0648 205.183 37.3532 205.505 37.564 205.899C37.7748 206.289 37.8802 206.756 37.8802 207.301V213.481H35.4699V212.211H35.3984C35.2512 212.497 35.0543 212.75 34.8077 212.968C34.5611 213.183 34.2648 213.352 33.9188 213.475C33.5728 213.595 33.1731 213.654 32.7197 213.654ZM33.4475 211.9C33.8214 211.9 34.1515 211.827 34.4378 211.68C34.7242 211.529 34.9489 211.326 35.112 211.071C35.2751 210.817 35.3566 210.528 35.3566 210.206V209.234C35.277 209.285 35.1677 209.333 35.0285 209.377C34.8932 209.417 34.7401 209.454 34.5691 209.49C34.3981 209.522 34.227 209.552 34.056 209.58C33.885 209.604 33.7299 209.625 33.5907 209.645C33.2924 209.689 33.0319 209.759 32.8091 209.854C32.5864 209.95 32.4134 210.079 32.2901 210.242C32.1668 210.401 32.1052 210.6 32.1052 210.839C32.1052 211.185 32.2305 211.449 32.481 211.632C32.7356 211.811 33.0577 211.9 33.4475 211.9ZM39.8519 213.481V204.318H42.3934V213.481H39.8519ZM41.1286 203.137C40.7508 203.137 40.4266 203.011 40.1562 202.761C39.8897 202.506 39.7564 202.202 39.7564 201.848C39.7564 201.498 39.8897 201.198 40.1562 200.947C40.4266 200.693 40.7508 200.565 41.1286 200.565C41.5064 200.565 41.8286 200.693 42.0951 200.947C42.3655 201.198 42.5008 201.498 42.5008 201.848C42.5008 202.202 42.3655 202.506 42.0951 202.761C41.8286 203.011 41.5064 203.137 41.1286 203.137ZM46.9707 201.263V213.481H44.4292V201.263H46.9707ZM51.6197 213.654C51.035 213.654 50.514 213.553 50.0566 213.35C49.5992 213.143 49.2373 212.839 48.9708 212.437C48.7083 212.032 48.577 211.527 48.577 210.922C48.577 210.413 48.6705 209.985 48.8574 209.639C49.0444 209.293 49.2989 209.015 49.6211 208.804C49.9432 208.593 50.3091 208.434 50.7188 208.327C51.1324 208.22 51.566 208.144 52.0194 208.1C52.5523 208.045 52.9819 207.993 53.308 207.945C53.6341 207.893 53.8708 207.818 54.018 207.718C54.1651 207.619 54.2387 207.472 54.2387 207.277V207.241C54.2387 206.863 54.1194 206.571 53.8807 206.364C53.6461 206.157 53.312 206.054 52.8785 206.054C52.4211 206.054 52.0572 206.155 51.7867 206.358C51.5162 206.557 51.3373 206.808 51.2498 207.11L48.8992 206.919C49.0185 206.362 49.2532 205.881 49.6032 205.475C49.9532 205.066 50.4046 204.751 50.9574 204.533C51.5143 204.31 52.1586 204.198 52.8904 204.198C53.3995 204.198 53.8867 204.258 54.352 204.377C54.8214 204.497 55.237 204.682 55.5989 204.932C55.9648 205.183 56.2532 205.505 56.464 205.899C56.6748 206.289 56.7802 206.756 56.7802 207.301V213.481H54.3699V212.211H54.2983C54.1512 212.497 53.9543 212.75 53.7077 212.968C53.4611 213.183 53.1648 213.352 52.8188 213.475C52.4728 213.595 52.0731 213.654 51.6197 213.654ZM52.3475 211.9C52.7214 211.9 53.0515 211.827 53.3378 211.68C53.6242 211.529 53.8489 211.326 54.012 211.071C54.1751 210.817 54.2566 210.528 54.2566 210.206V209.234C54.177 209.285 54.0677 209.333 53.9285 209.377C53.7932 209.417 53.6401 209.454 53.4691 209.49C53.2981 209.522 53.127 209.552 52.956 209.58C52.785 209.604 52.6299 209.625 52.4907 209.645C52.1924 209.689 51.9319 209.759 51.7091 209.854C51.4864 209.95 51.3134 210.079 51.1901 210.242C51.0668 210.401 51.0052 210.6 51.0052 210.839C51.0052 211.185 51.1305 211.449 51.381 211.632C51.6356 211.811 51.9577 211.9 52.3475 211.9ZM58.7996 213.481V201.263H61.3411V205.857H61.4187C61.53 205.61 61.6911 205.36 61.9019 205.105C62.1167 204.847 62.3951 204.632 62.7371 204.461C63.0831 204.286 63.5127 204.198 64.0258 204.198C64.6939 204.198 65.3104 204.373 65.8752 204.723C66.44 205.07 66.8914 205.593 67.2295 206.293C67.5675 206.989 67.7366 207.862 67.7366 208.912C67.7366 209.934 67.5715 210.797 67.2414 211.501C66.9153 212.201 66.4698 212.732 65.905 213.094C65.3442 213.452 64.7158 213.631 64.0198 213.631C63.5266 213.631 63.107 213.549 62.761 213.386C62.4189 213.223 62.1385 213.018 61.9198 212.772C61.701 212.521 61.534 212.268 61.4187 212.014H61.3053V213.481H58.7996ZM61.2874 208.9C61.2874 209.445 61.363 209.92 61.5141 210.325C61.6653 210.731 61.884 211.047 62.1704 211.274C62.4567 211.497 62.8047 211.608 63.2144 211.608C63.628 211.608 63.978 211.495 64.2644 211.268C64.5508 211.037 64.7675 210.719 64.9147 210.314C65.0658 209.904 65.1414 209.433 65.1414 208.9C65.1414 208.371 65.0678 207.905 64.9206 207.504C64.7735 207.102 64.5567 206.788 64.2704 206.561C63.984 206.334 63.632 206.221 63.2144 206.221C62.8008 206.221 62.4508 206.33 62.1644 206.549C61.882 206.768 61.6653 207.078 61.5141 207.48C61.363 207.881 61.2874 208.355 61.2874 208.9ZM69.4324 213.481V204.318H71.9738V213.481H69.4324ZM70.7091 203.137C70.3312 203.137 70.0071 203.011 69.7366 202.761C69.4702 202.506 69.3369 202.202 69.3369 201.848C69.3369 201.498 69.4702 201.198 69.7366 200.947C70.0071 200.693 70.3312 200.565 70.7091 200.565C71.0869 200.565 71.4091 200.693 71.6755 200.947C71.946 201.198 72.0812 201.498 72.0812 201.848C72.0812 202.202 71.946 202.506 71.6755 202.761C71.4091 203.011 71.0869 203.137 70.7091 203.137ZM76.5512 201.263V213.481H74.0097V201.263H76.5512ZM78.587 213.481V204.318H81.1285V213.481H78.587ZM79.8638 203.137C79.4859 203.137 79.1618 203.011 78.8913 202.761C78.6248 202.506 78.4916 202.202 78.4916 201.848C78.4916 201.498 78.6248 201.198 78.8913 200.947C79.1618 200.693 79.4859 200.565 79.8638 200.565C80.2416 200.565 80.5638 200.693 80.8302 200.947C81.1007 201.198 81.2359 201.498 81.2359 201.848C81.2359 202.202 81.1007 202.506 80.8302 202.761C80.5638 203.011 80.2416 203.137 79.8638 203.137ZM88.0385 204.318V206.227H82.5201V204.318H88.0385ZM83.7729 202.122H86.3144V210.666C86.3144 210.9 86.3502 211.083 86.4218 211.214C86.4934 211.342 86.5928 211.431 86.7201 211.483C86.8513 211.535 87.0025 211.56 87.1735 211.56C87.2928 211.56 87.4121 211.55 87.5314 211.531C87.6508 211.507 87.7422 211.489 87.8059 211.477L88.2056 213.368C88.0783 213.408 87.8993 213.454 87.6687 213.505C87.438 213.561 87.1576 213.595 86.8275 213.607C86.215 213.631 85.678 213.549 85.2167 213.362C84.7593 213.175 84.4033 212.885 84.1488 212.491C83.8942 212.097 83.7689 211.6 83.7729 211V202.122ZM91.2631 216.918C90.941 216.918 90.6387 216.892 90.3563 216.84C90.0779 216.793 89.8472 216.731 89.6643 216.655L90.237 214.758C90.5353 214.85 90.8037 214.899 91.0424 214.907C91.285 214.915 91.4938 214.86 91.6688 214.74C91.8478 214.621 91.993 214.418 92.1043 214.132L92.2535 213.744L88.9662 204.318H91.639L93.5361 211.047H93.6316L95.5466 204.318H98.2373L94.6756 214.472C94.5046 214.965 94.2719 215.395 93.9776 215.76C93.6873 216.13 93.3194 216.415 92.8739 216.614C92.4285 216.816 91.8915 216.918 91.2631 216.918Z" fill="white"/>
<path d="M94.669 74.0161C93.6882 74.0161 92.8934 74.8109 92.8934 75.7917V82.7395C90.7256 83.48 89.1616 85.5359 89.1616 87.9514C89.1616 90.9882 91.6323 93.4588 94.669 93.4588C95.5407 93.4588 96.3653 93.2543 97.0988 92.8923L103.006 98.7991C103.352 99.1457 103.807 99.319 104.261 99.319C104.716 99.319 105.17 99.1457 105.517 98.7991C106.21 98.1054 106.21 96.9814 105.517 96.2879L99.6101 90.3811C99.9721 89.6477 100.177 88.8234 100.177 87.9517C100.177 85.5361 98.6127 83.4802 96.4449 82.7397V75.7919C96.4446 74.8109 95.6499 74.0161 94.669 74.0161ZM96.6253 87.9514C96.6253 89.03 95.7476 89.9077 94.669 89.9077C93.5904 89.9077 92.7128 89.03 92.7128 87.9514C92.7128 86.8728 93.5904 85.9952 94.669 85.9952C95.7476 85.9952 96.6253 86.8728 96.6253 87.9514Z" fill="white"/>
<path d="M94.669 74.0161C93.6882 74.0161 92.8934 74.8109 92.8934 75.7917V82.7395C90.7256 83.48 89.1616 85.5359 89.1616 87.9514C89.1616 90.9882 91.6323 93.4588 94.669 93.4588C95.5407 93.4588 96.3653 93.2543 97.0988 92.8923L103.006 98.7991C103.352 99.1457 103.807 99.319 104.261 99.319C104.716 99.319 105.17 99.1457 105.517 98.7991C106.21 98.1054 106.21 96.9814 105.517 96.2879L99.6101 90.3811C99.9721 89.6477 100.177 88.8234 100.177 87.9517C100.177 85.5361 98.6127 83.4802 96.4449 82.7397V75.7919C96.4446 74.8109 95.6499 74.0161 94.669 74.0161ZM96.6253 87.9514C96.6253 89.03 95.7476 89.9077 94.669 89.9077C93.5904 89.9077 92.7128 89.03 92.7128 87.9514C92.7128 86.8728 93.5904 85.9952 94.669 85.9952C95.7476 85.9952 96.6253 86.8728 96.6253 87.9514Z" fill="white" fill-opacity="0.2"/>
<path d="M46.2692 36.5291C45.3575 36.1659 44.3255 36.6117 43.963 37.5227L37.8801 52.8172C37.5176 53.7284 37.9627 54.7608 38.8737 55.1231C39.0891 55.2088 39.311 55.2492 39.5295 55.2492C40.2355 55.2492 40.9031 54.8252 41.1801 54.1294L47.263 38.835C47.6252 37.924 47.1804 36.8913 46.2692 36.5291Z" fill="white"/>
<path d="M46.2692 36.5291C45.3575 36.1659 44.3255 36.6117 43.963 37.5227L37.8801 52.8172C37.5176 53.7284 37.9627 54.7608 38.8737 55.1231C39.0891 55.2088 39.311 55.2492 39.5295 55.2492C40.2355 55.2492 40.9031 54.8252 41.1801 54.1294L47.263 38.835C47.6252 37.924 47.1804 36.8913 46.2692 36.5291Z" fill="white" fill-opacity="0.2"/>
<path d="M53.1943 55.0986C53.4268 55.2009 53.6692 55.2492 53.9079 55.2492C54.5907 55.2492 55.2419 54.8529 55.5343 54.1879L62.2577 38.8934C62.4991 38.3444 62.4468 37.7104 62.1189 37.2083C61.791 36.7061 61.2318 36.4033 60.6322 36.4033H52.2185C51.2379 36.4033 50.4429 37.1981 50.4429 38.1789C50.4429 39.1597 51.2379 39.9545 52.2185 39.9545H57.912L52.2836 52.7586C51.8887 53.6561 52.2966 54.704 53.1943 55.0986Z" fill="white"/>
<path d="M53.1943 55.0986C53.4268 55.2009 53.6692 55.2492 53.9079 55.2492C54.5907 55.2492 55.2419 54.8529 55.5343 54.1879L62.2577 38.8934C62.4991 38.3444 62.4468 37.7104 62.1189 37.2083C61.791 36.7061 61.2318 36.4033 60.6322 36.4033H52.2185C51.2379 36.4033 50.4429 37.1981 50.4429 38.1789C50.4429 39.1597 51.2379 39.9545 52.2185 39.9545H57.912L52.2836 52.7586C51.8887 53.6561 52.2966 54.704 53.1943 55.0986Z" fill="white" fill-opacity="0.2"/>
<path d="M30.8522 54.8283C31.8328 54.8283 32.6278 54.0336 32.6278 53.0527V49.7935H33.5866C34.5672 49.7935 35.3622 48.9987 35.3622 48.0179C35.3622 47.037 34.5672 46.2423 33.5866 46.2423H32.6278V38.1991C32.6278 37.0812 31.9067 36.1212 30.8333 35.8096C29.7603 35.499 28.6384 35.923 28.0404 36.8667C25.8448 40.3324 21.7934 47.0321 21.7526 47.0993C21.4212 47.6476 21.4108 48.332 21.7257 48.89C22.0405 49.448 22.6314 49.7932 23.2723 49.7932H29.0766V53.0525C29.0766 54.0336 29.8716 54.8283 30.8522 54.8283ZM26.4277 46.2423C27.203 44.9691 28.159 43.4049 29.0766 41.9172V46.2423H26.4277Z" fill="white"/>
<path d="M30.8522 54.8283C31.8328 54.8283 32.6278 54.0336 32.6278 53.0527V49.7935H33.5866C34.5672 49.7935 35.3622 48.9987 35.3622 48.0179C35.3622 47.037 34.5672 46.2423 33.5866 46.2423H32.6278V38.1991C32.6278 37.0812 31.9067 36.1212 30.8333 35.8096C29.7603 35.499 28.6384 35.923 28.0404 36.8667C25.8448 40.3324 21.7934 47.0321 21.7526 47.0993C21.4212 47.6476 21.4108 48.332 21.7257 48.89C22.0405 49.448 22.6314 49.7932 23.2723 49.7932H29.0766V53.0525C29.0766 54.0336 29.8716 54.8283 30.8522 54.8283ZM26.4277 46.2423C27.203 44.9691 28.159 43.4049 29.0766 41.9172V46.2423H26.4277Z" fill="white" fill-opacity="0.2"/>
<path d="M16.1378 44.5034C13.7159 47.9639 12.2706 49.8562 11.4941 50.873C10.527 52.1396 10.0854 52.7175 10.3875 53.6993C10.5651 54.277 11.0026 54.7201 11.5876 54.915C11.8229 54.9936 12.0488 55.0686 15.0351 55.0686C16.2017 55.0686 17.7901 55.057 19.9648 55.0298C20.9454 55.0175 21.7302 54.2128 21.7179 53.2322C21.7056 52.2592 20.9132 51.4789 19.9428 51.4789C19.9352 51.4789 19.9276 51.4789 19.9201 51.4791C18.4068 51.498 16.8026 51.5106 15.4626 51.5137C16.3088 50.3813 17.4769 48.7835 19.0472 46.5399C20.0276 45.1391 20.6672 43.8142 20.9483 42.6026C20.9618 42.5446 20.9724 42.4856 20.9797 42.4264L21.0553 41.8348C21.065 41.7605 21.0697 41.6849 21.0697 41.6099C21.0697 38.473 18.5176 35.9209 15.3807 35.9209C12.6683 35.9209 10.3205 37.8504 9.79826 40.5093C9.60933 41.4714 10.236 42.4046 11.1984 42.5938C12.161 42.7825 13.0938 42.1563 13.2829 41.1937C13.4789 40.1963 14.3611 39.4723 15.3807 39.4723C16.5273 39.4723 17.466 40.3795 17.5164 41.514L17.4695 41.8798C17.2797 42.6296 16.832 43.5117 16.1378 44.5034Z" fill="white"/>
<path d="M16.1378 44.5034C13.7159 47.9639 12.2706 49.8562 11.4941 50.873C10.527 52.1396 10.0854 52.7175 10.3875 53.6993C10.5651 54.277 11.0026 54.7201 11.5876 54.915C11.8229 54.9936 12.0488 55.0686 15.0351 55.0686C16.2017 55.0686 17.7901 55.057 19.9648 55.0298C20.9454 55.0175 21.7302 54.2128 21.7179 53.2322C21.7056 52.2592 20.9132 51.4789 19.9428 51.4789C19.9352 51.4789 19.9276 51.4789 19.9201 51.4791C18.4068 51.498 16.8026 51.5106 15.4626 51.5137C16.3088 50.3813 17.4769 48.7835 19.0472 46.5399C20.0276 45.1391 20.6672 43.8142 20.9483 42.6026C20.9618 42.5446 20.9724 42.4856 20.9797 42.4264L21.0553 41.8348C21.065 41.7605 21.0697 41.6849 21.0697 41.6099C21.0697 38.473 18.5176 35.9209 15.3807 35.9209C12.6683 35.9209 10.3205 37.8504 9.79826 40.5093C9.60933 41.4714 10.236 42.4046 11.1984 42.5938C12.161 42.7825 13.0938 42.1563 13.2829 41.1937C13.4789 40.1963 14.3611 39.4723 15.3807 39.4723C16.5273 39.4723 17.466 40.3795 17.5164 41.514L17.4695 41.8798C17.2797 42.6296 16.832 43.5117 16.1378 44.5034Z" fill="white" fill-opacity="0.2"/>
<path d="M26.6598 63.7468C26.6598 61.9066 25.1627 60.4092 23.3222 60.4092H15.5281C13.6878 60.4092 12.1904 61.9064 12.1904 63.7468V71.5409C12.1904 73.3812 13.6876 74.8786 15.5281 74.8786H23.3222C25.1624 74.8786 26.6598 73.3814 26.6598 71.5409V63.7468ZM23.1087 71.3272H15.7418V63.9604H23.1089L23.1087 71.3272Z" fill="white"/>
<path d="M26.6598 63.7468C26.6598 61.9066 25.1627 60.4092 23.3222 60.4092H15.5281C13.6878 60.4092 12.1904 61.9064 12.1904 63.7468V71.5409C12.1904 73.3812 13.6876 74.8786 15.5281 74.8786H23.3222C25.1624 74.8786 26.6598 73.3814 26.6598 71.5409V63.7468ZM23.1087 71.3272H15.7418V63.9604H23.1089L23.1087 71.3272Z" fill="white" fill-opacity="0.2"/>
<path d="M45.2385 63.7468C45.2385 61.9066 43.7413 60.4092 41.9008 60.4092H34.1067C32.2665 60.4092 30.769 61.9064 30.769 63.7468V71.5409C30.769 73.3812 32.2662 74.8786 34.1067 74.8786H41.9008C43.741 74.8786 45.2385 73.3814 45.2385 71.5409V63.7468ZM41.6873 71.3272H34.3202V63.9604H41.6873V71.3272Z" fill="white"/>
<path d="M45.2385 63.7468C45.2385 61.9066 43.7413 60.4092 41.9008 60.4092H34.1067C32.2665 60.4092 30.769 61.9064 30.769 63.7468V71.5409C30.769 73.3812 32.2662 74.8786 34.1067 74.8786H41.9008C43.741 74.8786 45.2385 73.3814 45.2385 71.5409V63.7468ZM41.6873 71.3272H34.3202V63.9604H41.6873V71.3272Z" fill="white" fill-opacity="0.2"/>
<path d="M63.8168 63.7468C63.8168 61.9066 62.3196 60.4092 60.4794 60.4092H52.6853C50.8451 60.4092 49.3477 61.9064 49.3477 63.7468V71.5409C49.3477 73.3812 50.8448 74.8786 52.6853 74.8786H60.4794C62.3196 74.8786 63.8168 73.3814 63.8168 71.5409V63.7468ZM60.2656 71.3272H52.8988V63.9604H60.2656V71.3272Z" fill="white"/>
<path d="M63.8168 63.7468C63.8168 61.9066 62.3196 60.4092 60.4794 60.4092H52.6853C50.8451 60.4092 49.3477 61.9064 49.3477 63.7468V71.5409C49.3477 73.3812 50.8448 74.8786 52.6853 74.8786H60.4794C62.3196 74.8786 63.8168 73.3814 63.8168 71.5409V63.7468ZM60.2656 71.3272H52.8988V63.9604H60.2656V71.3272Z" fill="white" fill-opacity="0.2"/>
<path d="M78.4474 51.0793V43.2849C78.4474 41.4447 76.9503 39.9473 75.1098 39.9473H67.3157C65.4754 39.9473 63.978 41.4444 63.978 43.2849V51.0793C63.978 52.9195 65.4752 54.4169 67.3157 54.4169H75.1098C76.9503 54.4169 78.4474 52.9197 78.4474 51.0793ZM74.8963 50.8657H67.5294V43.4987H74.8963V50.8657Z" fill="white"/>
<path d="M78.4474 51.0793V43.2849C78.4474 41.4447 76.9503 39.9473 75.1098 39.9473H67.3157C65.4754 39.9473 63.978 41.4444 63.978 43.2849V51.0793C63.978 52.9195 65.4752 54.4169 67.3157 54.4169H75.1098C76.9503 54.4169 78.4474 52.9197 78.4474 51.0793ZM74.8963 50.8657H67.5294V43.4987H74.8963V50.8657Z" fill="white" fill-opacity="0.2"/>
<path d="M85.7878 39.9473C83.9476 39.9473 82.4502 41.4444 82.4502 43.2849V51.0793C82.4502 52.9195 83.9474 54.4169 85.7878 54.4169H93.582C95.4222 54.4169 96.9196 52.9197 96.9196 51.0793V43.2849C96.9196 41.4447 95.4224 39.9473 93.582 39.9473H85.7878ZM93.3682 50.8655H86.0014V43.4984H93.3682V50.8655Z" fill="white"/>
<path d="M85.7878 39.9473C83.9476 39.9473 82.4502 41.4444 82.4502 43.2849V51.0793C82.4502 52.9195 83.9474 54.4169 85.7878 54.4169H93.582C95.4222 54.4169 96.9196 52.9197 96.9196 51.0793V43.2849C96.9196 41.4447 95.4224 39.9473 93.582 39.9473H85.7878ZM93.3682 50.8655H86.0014V43.4984H93.3682V50.8655Z" fill="white" fill-opacity="0.2"/>
<path d="M15.5281 92.3664H23.3222C25.1624 92.3664 26.6598 90.8692 26.6598 89.0287V81.2346C26.6598 79.3944 25.1627 77.897 23.3222 77.897H15.5281C13.6878 77.897 12.1904 79.3941 12.1904 81.2346V89.0287C12.1907 90.869 13.6878 92.3664 15.5281 92.3664ZM15.7418 81.4482H23.1089V88.815H15.7418V81.4482Z" fill="white"/>
<path d="M15.5281 92.3664H23.3222C25.1624 92.3664 26.6598 90.8692 26.6598 89.0287V81.2346C26.6598 79.3944 25.1627 77.897 23.3222 77.897H15.5281C13.6878 77.897 12.1904 79.3941 12.1904 81.2346V89.0287C12.1907 90.869 13.6878 92.3664 15.5281 92.3664ZM15.7418 81.4482H23.1089V88.815H15.7418V81.4482Z" fill="white" fill-opacity="0.2"/>
<path d="M34.1067 92.3664H41.9008C43.741 92.3664 45.2385 90.8692 45.2385 89.0287V81.2346C45.2385 79.3944 43.7413 77.897 41.9008 77.897H34.1067C32.2665 77.897 30.769 79.3941 30.769 81.2346V89.0287C30.7693 90.869 32.2665 92.3664 34.1067 92.3664ZM34.3205 81.4482H41.6875V88.815H34.3205V81.4482Z" fill="white"/>
<path d="M34.1067 92.3664H41.9008C43.741 92.3664 45.2385 90.8692 45.2385 89.0287V81.2346C45.2385 79.3944 43.7413 77.897 41.9008 77.897H34.1067C32.2665 77.897 30.769 79.3941 30.769 81.2346V89.0287C30.7693 90.869 32.2665 92.3664 34.1067 92.3664ZM34.3205 81.4482H41.6875V88.815H34.3205V81.4482Z" fill="white" fill-opacity="0.2"/>
<path d="M60.4794 77.897H52.6853C50.8451 77.897 49.3477 79.3941 49.3477 81.2346V89.0287C49.3477 90.869 50.8448 92.3664 52.6853 92.3664H60.4794C62.3196 92.3664 63.8168 90.8692 63.8168 89.0287V81.2346C63.8168 79.3944 62.3196 77.897 60.4794 77.897ZM60.2656 88.8152H52.8988V81.4484H60.2656V88.8152Z" fill="white"/>
<path d="M60.4794 77.897H52.6853C50.8451 77.897 49.3477 79.3941 49.3477 81.2346V89.0287C49.3477 90.869 50.8448 92.3664 52.6853 92.3664H60.4794C62.3196 92.3664 63.8168 90.8692 63.8168 89.0287V81.2346C63.8168 79.3944 62.3196 77.897 60.4794 77.897ZM60.2656 88.8152H52.8988V81.4484H60.2656V88.8152Z" fill="white" fill-opacity="0.2"/>
<path d="M64.0146 97.1394H13.0701C8.26176 97.1394 4.35001 93.2276 4.35001 88.4195V62.5573C4.35001 61.5765 2.96205 61.2564 1.98145 61.2564C1.00085 61.2564 0.798828 61.1034 0.798828 62.0843V88.4195C0.798828 95.1857 6.30363 100.691 13.0701 100.691H64.0146C64.9954 100.691 65.7902 99.8958 65.7902 98.9149C65.7902 97.9341 64.9954 97.1394 64.0146 97.1394Z" fill="white"/>
<path d="M64.0146 97.1394H13.0701C8.26176 97.1394 4.35001 93.2276 4.35001 88.4195V62.5573C4.35001 61.5765 2.96205 61.2564 1.98145 61.2564C1.00085 61.2564 0.798828 61.1034 0.798828 62.0843V88.4195C0.798828 95.1857 6.30363 100.691 13.0701 100.691H64.0146C64.9954 100.691 65.7902 99.8958 65.7902 98.9149C65.7902 97.9341 64.9954 97.1394 64.0146 97.1394Z" fill="white" fill-opacity="0.2"/>
<path d="M2.79073 67.945C3.77133 67.945 4.56632 67.1503 4.56632 66.1694V30.5492H84.4412C85.422 30.5492 86.2168 29.7544 86.2168 28.7736C86.2168 27.7927 85.422 26.998 84.4412 26.998H4.56632V21.1089C4.56632 16.3006 8.47807 12.3891 13.2864 12.3891H25.6499V16.1754C25.6499 18.9148 27.8786 21.1435 30.618 21.1435C33.3574 21.1435 35.5861 18.9148 35.5861 16.1754V12.3891H71.2447V16.1754C71.2447 18.9148 73.4732 21.1435 76.2126 21.1435C78.952 21.1435 81.1807 18.9148 81.1807 16.1754V12.3891H93.5443C98.3526 12.3891 102.264 16.3006 102.264 21.1089V26.998H83.3253C82.3445 26.998 82.6363 27.399 82.6363 28.3798C82.6363 29.3607 81.7737 30.5492 82.7546 30.5492H102.264V56.7072C102.264 57.688 103.059 58.4828 104.04 58.4828C105.021 58.4828 105.815 57.688 105.815 56.7072V21.1089C105.815 14.3428 100.311 8.83795 93.5443 8.83795H81.1807V4.9681C81.1807 2.22872 78.952 0 76.2126 0C73.4732 0 71.2447 2.22872 71.2447 4.9681V8.83818H35.5861V4.9681C35.5861 2.22872 33.3574 0 30.618 0C27.8786 0 25.6499 2.22872 25.6499 4.9681V8.83818H13.2864C6.51994 8.83795 1.01514 14.3428 1.01514 21.1089V66.1694C1.01514 67.1503 1.81013 67.945 2.79073 67.945ZM74.7959 4.9681C74.7959 4.18661 75.4316 3.55118 76.2126 3.55118C76.9941 3.55118 77.6295 4.18684 77.6295 4.9681V16.1756C77.6295 16.9571 76.9939 17.5926 76.2126 17.5926C75.4314 17.5926 74.7959 16.9569 74.7959 16.1756V4.9681ZM29.2011 4.9681C29.2011 4.18661 29.8368 3.55118 30.618 3.55118C31.3993 3.55118 32.035 4.18684 32.035 4.9681V16.1756C32.035 16.9571 31.3993 17.5926 30.618 17.5926C29.8368 17.5926 29.2011 16.9569 29.2011 16.1756V4.9681Z" fill="white"/>
<path d="M2.79073 67.945C3.77133 67.945 4.56632 67.1503 4.56632 66.1694V30.5492H84.4412C85.422 30.5492 86.2168 29.7544 86.2168 28.7736C86.2168 27.7927 85.422 26.998 84.4412 26.998H4.56632V21.1089C4.56632 16.3006 8.47807 12.3891 13.2864 12.3891H25.6499V16.1754C25.6499 18.9148 27.8786 21.1435 30.618 21.1435C33.3574 21.1435 35.5861 18.9148 35.5861 16.1754V12.3891H71.2447V16.1754C71.2447 18.9148 73.4732 21.1435 76.2126 21.1435C78.952 21.1435 81.1807 18.9148 81.1807 16.1754V12.3891H93.5443C98.3526 12.3891 102.264 16.3006 102.264 21.1089V26.998H83.3253C82.3445 26.998 82.6363 27.399 82.6363 28.3798C82.6363 29.3607 81.7737 30.5492 82.7546 30.5492H102.264V56.7072C102.264 57.688 103.059 58.4828 104.04 58.4828C105.021 58.4828 105.815 57.688 105.815 56.7072V21.1089C105.815 14.3428 100.311 8.83795 93.5443 8.83795H81.1807V4.9681C81.1807 2.22872 78.952 0 76.2126 0C73.4732 0 71.2447 2.22872 71.2447 4.9681V8.83818H35.5861V4.9681C35.5861 2.22872 33.3574 0 30.618 0C27.8786 0 25.6499 2.22872 25.6499 4.9681V8.83818H13.2864C6.51994 8.83795 1.01514 14.3428 1.01514 21.1089V66.1694C1.01514 67.1503 1.81013 67.945 2.79073 67.945ZM74.7959 4.9681C74.7959 4.18661 75.4316 3.55118 76.2126 3.55118C76.9941 3.55118 77.6295 4.18684 77.6295 4.9681V16.1756C77.6295 16.9571 76.9939 17.5926 76.2126 17.5926C75.4314 17.5926 74.7959 16.9569 74.7959 16.1756V4.9681ZM29.2011 4.9681C29.2011 4.18661 29.8368 3.55118 30.618 3.55118C31.3993 3.55118 32.035 4.18684 32.035 4.9681V16.1756C32.035 16.9571 31.3993 17.5926 30.618 17.5926C29.8368 17.5926 29.2011 16.9569 29.2011 16.1756V4.9681Z" fill="white" fill-opacity="0.2"/>
<path d="M120.935 80.7535C120.676 79.8079 119.7 79.2506 118.754 79.5091C117.808 79.7679 117.25 80.7445 117.509 81.6903C117.91 83.1548 118.166 84.6576 118.279 86.1764H115.467C114.486 86.1764 113.691 86.9711 113.691 87.9519C113.691 88.9328 114.486 89.7275 115.467 89.7275H118.281C117.894 94.9234 115.822 99.6571 112.612 103.384L110.631 101.403C109.937 100.709 108.813 100.709 108.12 101.403C107.426 102.096 107.426 103.22 108.12 103.914L110.101 105.895C106.374 109.105 101.64 111.177 96.4443 111.564V108.75C96.4443 107.769 95.6496 106.974 94.6687 106.974C93.6879 106.974 92.8931 107.769 92.8931 108.75V111.564C87.6973 111.177 82.9636 109.105 79.2365 105.895L81.2183 103.914C81.9117 103.22 81.9117 102.096 81.2183 101.402C80.5246 100.709 79.4005 100.709 78.7071 101.402L76.7253 103.384C73.5155 99.6571 71.444 94.9234 71.0569 89.7275H73.8709C74.8517 89.7275 75.6465 88.9328 75.6465 87.9519C75.6465 86.9711 74.8517 86.1764 73.8709 86.1764H71.0569C71.444 80.9805 73.5153 76.2465 76.7253 72.5195L78.7071 74.5013C79.0537 74.8478 79.5083 75.0211 79.9626 75.0211C80.4169 75.0211 80.8714 74.8478 81.2183 74.501C81.9117 73.8076 81.9117 72.6833 81.218 71.9901L79.2365 70.0085C82.9636 66.7985 87.6975 64.7272 92.8934 64.3401V67.1541C92.8934 68.1349 93.6881 68.9297 94.669 68.9297C95.6498 68.9297 96.4446 68.1349 96.4446 67.1541V64.342C101.551 64.7199 106.315 66.7185 110.114 69.9957L108.12 71.9901C107.426 72.6838 107.426 73.8078 108.12 74.5013C108.466 74.8478 108.921 75.0211 109.375 75.0211C109.83 75.0211 110.284 74.8478 110.631 74.5013L112.621 72.5112C113.356 73.3684 114.039 74.2825 114.658 75.2541C115.184 76.0813 116.281 76.3247 117.109 75.7981C117.936 75.2714 118.179 74.1741 117.653 73.3469C112.62 65.4419 104.028 60.7229 94.669 60.7229C79.6546 60.7229 67.4395 72.938 67.4395 87.9524C67.4395 102.967 79.6546 115.181 94.669 115.181C109.683 115.181 121.898 102.966 121.898 87.9519C121.898 85.5139 121.574 83.092 120.935 80.7535Z" fill="white"/>
<path d="M120.935 80.7535C120.676 79.8079 119.7 79.2506 118.754 79.5091C117.808 79.7679 117.25 80.7445 117.509 81.6903C117.91 83.1548 118.166 84.6576 118.279 86.1764H115.467C114.486 86.1764 113.691 86.9711 113.691 87.9519C113.691 88.9328 114.486 89.7275 115.467 89.7275H118.281C117.894 94.9234 115.822 99.6571 112.612 103.384L110.631 101.403C109.937 100.709 108.813 100.709 108.12 101.403C107.426 102.096 107.426 103.22 108.12 103.914L110.101 105.895C106.374 109.105 101.64 111.177 96.4443 111.564V108.75C96.4443 107.769 95.6496 106.974 94.6687 106.974C93.6879 106.974 92.8931 107.769 92.8931 108.75V111.564C87.6973 111.177 82.9636 109.105 79.2365 105.895L81.2183 103.914C81.9117 103.22 81.9117 102.096 81.2183 101.402C80.5246 100.709 79.4005 100.709 78.7071 101.402L76.7253 103.384C73.5155 99.6571 71.444 94.9234 71.0569 89.7275H73.8709C74.8517 89.7275 75.6465 88.9328 75.6465 87.9519C75.6465 86.9711 74.8517 86.1764 73.8709 86.1764H71.0569C71.444 80.9805 73.5153 76.2465 76.7253 72.5195L78.7071 74.5013C79.0537 74.8478 79.5083 75.0211 79.9626 75.0211C80.4169 75.0211 80.8714 74.8478 81.2183 74.501C81.9117 73.8076 81.9117 72.6833 81.218 71.9901L79.2365 70.0085C82.9636 66.7985 87.6975 64.7272 92.8934 64.3401V67.1541C92.8934 68.1349 93.6881 68.9297 94.669 68.9297C95.6498 68.9297 96.4446 68.1349 96.4446 67.1541V64.342C101.551 64.7199 106.315 66.7185 110.114 69.9957L108.12 71.9901C107.426 72.6838 107.426 73.8078 108.12 74.5013C108.466 74.8478 108.921 75.0211 109.375 75.0211C109.83 75.0211 110.284 74.8478 110.631 74.5013L112.621 72.5112C113.356 73.3684 114.039 74.2825 114.658 75.2541C115.184 76.0813 116.281 76.3247 117.109 75.7981C117.936 75.2714 118.179 74.1741 117.653 73.3469C112.62 65.4419 104.028 60.7229 94.669 60.7229C79.6546 60.7229 67.4395 72.938 67.4395 87.9524C67.4395 102.967 79.6546 115.181 94.669 115.181C109.683 115.181 121.898 102.966 121.898 87.9519C121.898 85.5139 121.574 83.092 120.935 80.7535Z" fill="white" fill-opacity="0.2"/>
</svg>
