<svg width="135" height="245" viewBox="0 0 135 245" fill="none" xmlns="http://www.w3.org/2000/svg">
<path d="M22.2034 197.412V195.282H32.2381V197.412H28.4975V207.5H25.9441V197.412H22.2034ZM32.8914 207.5V198.336H35.3553V199.935H35.4507C35.6178 199.366 35.8982 198.937 36.2919 198.647C36.6857 198.352 37.1391 198.205 37.6522 198.205C37.7794 198.205 37.9166 198.213 38.0638 198.229C38.211 198.245 38.3402 198.267 38.4516 198.295V200.55C38.3323 200.514 38.1672 200.482 37.9564 200.454C37.7456 200.426 37.5527 200.413 37.3777 200.413C37.0039 200.413 36.6698 200.494 36.3754 200.657C36.0851 200.816 35.8544 201.039 35.6834 201.325C35.5164 201.612 35.4328 201.942 35.4328 202.316V207.5H32.8914ZM45.642 203.598V198.336H48.1835V207.5H45.7434V205.836H45.648C45.4411 206.372 45.0971 206.804 44.6159 207.13C44.1386 207.456 43.5559 207.619 42.8678 207.619C42.2553 207.619 41.7164 207.48 41.2511 207.202C40.7857 206.923 40.4218 206.528 40.1593 206.014C39.9008 205.501 39.7696 204.887 39.7656 204.171V198.336H42.3071V203.718C42.311 204.259 42.4562 204.686 42.7426 205C43.0289 205.314 43.4127 205.472 43.894 205.472C44.2002 205.472 44.4866 205.402 44.7531 205.263C45.0196 205.12 45.2343 204.909 45.3974 204.63C45.5644 204.352 45.646 204.008 45.642 203.598ZM57.8408 200.949L55.5141 201.093C55.4743 200.894 55.3888 200.715 55.2575 200.556C55.1263 200.393 54.9533 200.263 54.7385 200.168C54.5277 200.068 54.2752 200.019 53.9808 200.019C53.5871 200.019 53.255 200.102 52.9845 200.269C52.7141 200.432 52.5789 200.651 52.5789 200.926C52.5789 201.144 52.6664 201.329 52.8414 201.48C53.0164 201.632 53.3166 201.753 53.7422 201.844L55.4007 202.178C56.2916 202.361 56.9558 202.656 57.3933 203.061C57.8308 203.467 58.0496 204 58.0496 204.66C58.0496 205.261 57.8726 205.788 57.5186 206.241C57.1686 206.695 56.6874 207.049 56.0749 207.303C55.4664 207.554 54.7644 207.679 53.9689 207.679C52.7558 207.679 51.7894 207.426 51.0695 206.921C50.3536 206.412 49.934 205.72 49.8107 204.845L52.3104 204.714C52.386 205.084 52.5689 205.366 52.8593 205.561C53.1496 205.752 53.5215 205.847 53.9749 205.847C54.4203 205.847 54.7783 205.762 55.0487 205.591C55.3232 205.416 55.4624 205.191 55.4664 204.917C55.4624 204.686 55.3649 204.497 55.174 204.35C54.9831 204.199 54.6888 204.084 54.2911 204.004L52.7041 203.688C51.8093 203.509 51.1431 203.199 50.7056 202.757C50.272 202.316 50.0553 201.753 50.0553 201.069C50.0553 200.48 50.2144 199.973 50.5325 199.547C50.8547 199.122 51.3061 198.794 51.8868 198.563C52.4715 198.332 53.1556 198.217 53.9391 198.217C55.0965 198.217 56.0073 198.462 56.6715 198.951C57.3396 199.44 57.7294 200.106 57.8408 200.949ZM64.5241 198.336V200.245H59.0056V198.336H64.5241ZM60.2585 196.141H62.7999V204.684C62.7999 204.919 62.8357 205.102 62.9073 205.233C62.9789 205.36 63.0784 205.45 63.2056 205.501C63.3369 205.553 63.488 205.579 63.659 205.579C63.7784 205.579 63.8977 205.569 64.017 205.549C64.1363 205.525 64.2278 205.507 64.2914 205.495L64.6911 207.387C64.5639 207.426 64.3849 207.472 64.1542 207.524C63.9235 207.58 63.6431 207.613 63.313 207.625C62.7005 207.649 62.1636 207.568 61.7022 207.381C61.2448 207.194 60.8889 206.903 60.6343 206.51C60.3798 206.116 60.2545 205.619 60.2585 205.018V196.141ZM70.2573 207.679C69.3147 207.679 68.5034 207.488 67.8232 207.106C67.1471 206.72 66.6261 206.176 66.2602 205.472C65.8943 204.764 65.7113 203.926 65.7113 202.96C65.7113 202.017 65.8943 201.19 66.2602 200.478C66.6261 199.766 67.1411 199.211 67.8053 198.814C68.4735 198.416 69.2571 198.217 70.1559 198.217C70.7605 198.217 71.3232 198.314 71.8443 198.509C72.3693 198.7 72.8267 198.989 73.2164 199.374C73.6102 199.76 73.9164 200.245 74.1352 200.83C74.3539 201.411 74.4633 202.091 74.4633 202.87V203.568H66.7255V201.993H72.071C72.071 201.628 71.9914 201.303 71.8323 201.021C71.6732 200.739 71.4525 200.518 71.1701 200.359C70.8917 200.196 70.5676 200.114 70.1977 200.114C69.8119 200.114 69.4698 200.204 69.1715 200.383C68.8772 200.558 68.6465 200.794 68.4795 201.093C68.3124 201.387 68.2269 201.715 68.223 202.077V203.574C68.223 204.028 68.3065 204.42 68.4735 204.75C68.6446 205.08 68.8852 205.334 69.1954 205.513C69.5056 205.692 69.8735 205.782 70.2991 205.782C70.5815 205.782 70.84 205.742 71.0747 205.663C71.3093 205.583 71.5102 205.464 71.6772 205.305C71.8443 205.145 71.9715 204.951 72.059 204.72L74.4096 204.875C74.2903 205.44 74.0457 205.933 73.6758 206.355C73.3099 206.772 72.8366 207.098 72.2559 207.333C71.6792 207.564 71.013 207.679 70.2573 207.679ZM79.4985 207.649C78.8025 207.649 78.1721 207.47 77.6073 207.112C77.0465 206.75 76.6011 206.219 76.271 205.519C75.9448 204.815 75.7818 203.952 75.7818 202.93C75.7818 201.88 75.9508 201.007 76.2889 200.311C76.6269 199.611 77.0764 199.088 77.6372 198.742C78.2019 198.392 78.8204 198.217 79.4926 198.217C80.0056 198.217 80.4332 198.305 80.7752 198.48C81.1213 198.651 81.3997 198.865 81.6105 199.124C81.8252 199.378 81.9883 199.629 82.0997 199.876H82.1772V195.282H84.7127V207.5H82.2071V206.032H82.0997C81.9803 206.287 81.8113 206.539 81.5926 206.79C81.3778 207.037 81.0974 207.241 80.7514 207.405C80.4093 207.568 79.9917 207.649 79.4985 207.649ZM80.3039 205.627C80.7136 205.627 81.0596 205.515 81.342 205.293C81.6284 205.066 81.8471 204.75 81.9982 204.344C82.1534 203.938 82.2309 203.463 82.2309 202.918C82.2309 202.373 82.1553 201.9 82.0042 201.498C81.8531 201.097 81.6343 200.786 81.348 200.568C81.0616 200.349 80.7136 200.239 80.3039 200.239C79.8863 200.239 79.5343 200.353 79.248 200.58C78.9616 200.806 78.7448 201.12 78.5977 201.522C78.4505 201.924 78.3769 202.389 78.3769 202.918C78.3769 203.451 78.4505 203.922 78.5977 204.332C78.7488 204.738 78.9656 205.056 79.248 205.287C79.5343 205.513 79.8863 205.627 80.3039 205.627ZM90.7383 207.5V195.282H93.2798V199.876H93.3573C93.4687 199.629 93.6298 199.378 93.8406 199.124C94.0553 198.865 94.3337 198.651 94.6758 198.48C95.0218 198.305 95.4514 198.217 95.9644 198.217C96.6326 198.217 97.2491 198.392 97.8139 198.742C98.3786 199.088 98.8301 199.611 99.1681 200.311C99.5062 201.007 99.6752 201.88 99.6752 202.93C99.6752 203.952 99.5102 204.815 99.1801 205.519C98.8539 206.219 98.4085 206.75 97.8437 207.112C97.2829 207.47 96.6545 207.649 95.9585 207.649C95.4653 207.649 95.0457 207.568 94.6997 207.405C94.3576 207.241 94.0772 207.037 93.8585 206.79C93.6397 206.539 93.4727 206.287 93.3573 206.032H93.244V207.5H90.7383ZM93.2261 202.918C93.2261 203.463 93.3016 203.938 93.4528 204.344C93.6039 204.75 93.8227 205.066 94.109 205.293C94.3954 205.515 94.7434 205.627 95.1531 205.627C95.5667 205.627 95.9167 205.513 96.2031 205.287C96.4894 205.056 96.7062 204.738 96.8533 204.332C97.0045 203.922 97.0801 203.451 97.0801 202.918C97.0801 202.389 97.0065 201.924 96.8593 201.522C96.7122 201.12 96.4954 200.806 96.209 200.58C95.9227 200.353 95.5707 200.239 95.1531 200.239C94.7394 200.239 94.3894 200.349 94.1031 200.568C93.8207 200.786 93.6039 201.097 93.4528 201.498C93.3016 201.9 93.2261 202.373 93.2261 202.918ZM102.645 210.936C102.323 210.936 102.02 210.911 101.738 210.859C101.46 210.811 101.229 210.749 101.046 210.674L101.619 208.777C101.917 208.868 102.185 208.918 102.424 208.926C102.667 208.934 102.875 208.878 103.05 208.759C103.229 208.639 103.375 208.437 103.486 208.15L103.635 207.762L100.348 198.336H103.021L104.918 205.066H105.013L106.928 198.336H109.619L106.057 208.49C105.886 208.984 105.654 209.413 105.359 209.779C105.069 210.149 104.701 210.433 104.256 210.632C103.81 210.835 103.273 210.936 102.645 210.936ZM11.5597 218.136V238.5H7.25435V222.223H7.13503L2.47168 225.146V221.328L7.51287 218.136H11.5597ZM24.384 238.947C22.6737 238.941 21.2021 238.52 19.9692 237.685C18.7429 236.849 17.7983 235.64 17.1354 234.055C16.4791 232.471 16.1543 230.565 16.161 228.338C16.161 226.117 16.4891 224.225 17.1453 222.661C17.8082 221.096 18.7528 219.906 19.9791 219.091C21.2121 218.269 22.6804 217.858 24.384 217.858C26.0876 217.858 27.5525 218.269 28.7789 219.091C30.0118 219.913 30.9597 221.106 31.6226 222.67C32.2855 224.228 32.6136 226.117 32.607 228.338C32.607 230.572 32.2755 232.481 31.6127 234.065C30.9564 235.65 30.0151 236.859 28.7888 237.695C27.5625 238.53 26.0942 238.947 24.384 238.947ZM24.384 235.378C25.5506 235.378 26.482 234.791 27.178 233.618C27.874 232.445 28.2187 230.685 28.2121 228.338C28.2121 226.794 28.053 225.508 27.7348 224.48C27.4233 223.453 26.9791 222.68 26.4024 222.163C25.8324 221.646 25.1595 221.388 24.384 221.388C23.2239 221.388 22.2959 221.968 21.5999 223.128C20.9039 224.288 20.5525 226.025 20.5459 228.338C20.5459 229.902 20.7017 231.208 21.0132 232.256C21.3314 233.296 21.7789 234.079 22.3556 234.602C22.9323 235.119 23.6084 235.378 24.384 235.378ZM43.6613 238.947C41.9511 238.941 40.4795 238.52 39.2465 237.685C38.0202 236.849 37.0756 235.64 36.4127 234.055C35.7565 232.471 35.4317 230.565 35.4383 228.338C35.4383 226.117 35.7664 224.225 36.4227 222.661C37.0856 221.096 38.0302 219.906 39.2565 219.091C40.4894 218.269 41.9577 217.858 43.6613 217.858C45.3649 217.858 46.8299 218.269 48.0562 219.091C49.2892 219.913 50.2371 221.106 50.8999 222.67C51.5628 224.228 51.891 226.117 51.8843 228.338C51.8843 230.572 51.5529 232.481 50.89 234.065C50.2338 235.65 49.2925 236.859 48.0661 237.695C46.8398 238.53 45.3715 238.947 43.6613 238.947ZM43.6613 235.378C44.828 235.378 45.7593 234.791 46.4553 233.618C47.1514 232.445 47.4961 230.685 47.4894 228.338C47.4894 226.794 47.3303 225.508 47.0122 224.48C46.7006 223.453 46.2565 222.68 45.6798 222.163C45.1097 221.646 44.4369 221.388 43.6613 221.388C42.5013 221.388 41.5732 221.968 40.8772 223.128C40.1812 224.288 39.8299 226.025 39.8232 228.338C39.8232 229.902 39.979 231.208 40.2906 232.256C40.6088 233.296 41.0562 234.079 41.6329 234.602C42.2096 235.119 42.8857 235.378 43.6613 235.378ZM61.0395 235.398V221.318H64.5992V235.398H61.0395ZM55.7796 230.138V226.578H69.8591V230.138H55.7796ZM88.0656 230.559H85.4525C85.4048 230.221 85.3073 229.921 85.1602 229.659C85.013 229.392 84.8241 229.165 84.5934 228.978C84.3627 228.791 84.0963 228.648 83.794 228.549C83.4957 228.449 83.1715 228.4 82.8215 228.4C82.1892 228.4 81.6383 228.557 81.169 228.871C80.6997 229.181 80.3357 229.635 80.0772 230.231C79.8187 230.824 79.6894 231.544 79.6894 232.391C79.6894 233.262 79.8187 233.994 80.0772 234.586C80.3397 235.179 80.7056 235.626 81.1749 235.929C81.6443 236.231 82.1872 236.382 82.8036 236.382C83.1497 236.382 83.4698 236.336 83.7642 236.245C84.0624 236.153 84.3269 236.02 84.5576 235.845C84.7883 235.666 84.9792 235.449 85.1303 235.195C85.2855 234.94 85.3928 234.65 85.4525 234.324L88.0656 234.336C87.998 234.897 87.8289 235.438 87.5585 235.959C87.292 236.476 86.9321 236.939 86.4786 237.349C86.0292 237.754 85.4923 238.076 84.8678 238.315C84.2474 238.55 83.5454 238.667 82.7619 238.667C81.6721 238.667 80.6977 238.42 79.8386 237.927C78.9835 237.434 78.3073 236.72 77.8102 235.786C77.317 234.851 77.0704 233.719 77.0704 232.391C77.0704 231.059 77.321 229.925 77.8221 228.99C78.3232 228.056 79.0034 227.344 79.8624 226.855C80.7215 226.361 81.688 226.115 82.7619 226.115C83.4698 226.115 84.1261 226.214 84.7306 226.413C85.3392 226.612 85.8781 226.902 86.3474 227.284C86.8167 227.662 87.1985 228.125 87.4928 228.674C87.7911 229.223 87.9821 229.851 88.0656 230.559ZM92.4117 226.282V238.5H89.8703V226.282H92.4117ZM94.4476 238.5V229.336H96.9891V238.5H94.4476ZM95.7243 228.155C95.3465 228.155 95.0223 228.03 94.7519 227.779C94.4854 227.525 94.3521 227.22 94.3521 226.866C94.3521 226.516 94.4854 226.216 94.7519 225.966C95.0223 225.711 95.3465 225.584 95.7243 225.584C96.1021 225.584 96.4243 225.711 96.6908 225.966C96.9612 226.216 97.0965 226.516 97.0965 226.866C97.0965 227.22 96.9612 227.525 96.6908 227.779C96.4243 228.03 96.1021 228.155 95.7243 228.155ZM103.201 238.679C102.258 238.679 101.447 238.488 100.767 238.106C100.091 237.72 99.5698 237.176 99.2039 236.472C98.838 235.764 98.6551 234.926 98.6551 233.96C98.6551 233.017 98.838 232.19 99.2039 231.478C99.5698 230.766 100.085 230.211 100.749 229.814C101.417 229.416 102.201 229.217 103.1 229.217C103.704 229.217 104.267 229.314 104.788 229.509C105.313 229.7 105.77 229.989 106.16 230.374C106.554 230.76 106.86 231.245 107.079 231.83C107.298 232.411 107.407 233.091 107.407 233.87V234.568H99.6693V232.993H105.015C105.015 232.628 104.935 232.303 104.776 232.021C104.617 231.739 104.396 231.518 104.114 231.359C103.835 231.196 103.511 231.114 103.141 231.114C102.756 231.114 102.414 231.204 102.115 231.383C101.821 231.558 101.59 231.794 101.423 232.093C101.256 232.387 101.171 232.715 101.167 233.077V234.574C101.167 235.028 101.25 235.42 101.417 235.75C101.588 236.08 101.829 236.334 102.139 236.513C102.449 236.692 102.817 236.782 103.243 236.782C103.525 236.782 103.784 236.742 104.018 236.663C104.253 236.583 104.454 236.464 104.621 236.305C104.788 236.145 104.915 235.951 105.003 235.72L107.353 235.875C107.234 236.44 106.989 236.933 106.62 237.355C106.254 237.772 105.78 238.098 105.2 238.333C104.623 238.564 103.957 238.679 103.201 238.679ZM111.607 233.202V238.5H109.066V229.336H111.488V230.953H111.595C111.798 230.42 112.138 229.999 112.615 229.688C113.093 229.374 113.671 229.217 114.351 229.217C114.988 229.217 115.543 229.356 116.016 229.635C116.489 229.913 116.857 230.311 117.12 230.828C117.382 231.341 117.513 231.953 117.513 232.665V238.5H114.972V233.119C114.976 232.558 114.833 232.12 114.542 231.806C114.252 231.488 113.852 231.329 113.343 231.329C113.001 231.329 112.699 231.403 112.436 231.55C112.178 231.697 111.975 231.912 111.828 232.194C111.685 232.472 111.611 232.809 111.607 233.202ZM124.39 229.336V231.245H118.872V229.336H124.39ZM120.125 227.141H122.666V235.684C122.666 235.919 122.702 236.102 122.774 236.233C122.845 236.36 122.945 236.45 123.072 236.501C123.203 236.553 123.354 236.579 123.525 236.579C123.645 236.579 123.764 236.569 123.883 236.549C124.003 236.525 124.094 236.507 124.158 236.495L124.558 238.387C124.43 238.426 124.251 238.472 124.021 238.524C123.79 238.58 123.51 238.613 123.179 238.625C122.567 238.649 122.03 238.568 121.569 238.381C121.111 238.194 120.755 237.903 120.501 237.51C120.246 237.116 120.121 236.619 120.125 236.018V227.141ZM133.556 231.949L131.229 232.093C131.189 231.894 131.104 231.715 130.972 231.556C130.841 231.393 130.668 231.263 130.453 231.168C130.243 231.068 129.99 231.019 129.696 231.019C129.302 231.019 128.97 231.102 128.699 231.269C128.429 231.432 128.294 231.651 128.294 231.926C128.294 232.144 128.381 232.329 128.556 232.48C128.731 232.632 129.031 232.753 129.457 232.844L131.116 233.178C132.006 233.361 132.671 233.656 133.108 234.061C133.546 234.467 133.764 235 133.764 235.66C133.764 236.261 133.587 236.788 133.233 237.241C132.883 237.695 132.402 238.049 131.79 238.303C131.181 238.554 130.479 238.679 129.684 238.679C128.471 238.679 127.504 238.426 126.784 237.921C126.068 237.412 125.649 236.72 125.526 235.845L128.025 235.714C128.101 236.084 128.284 236.366 128.574 236.561C128.864 236.752 129.236 236.847 129.69 236.847C130.135 236.847 130.493 236.762 130.764 236.591C131.038 236.416 131.177 236.191 131.181 235.917C131.177 235.686 131.08 235.497 130.889 235.35C130.698 235.199 130.404 235.084 130.006 235.004L128.419 234.688C127.524 234.509 126.858 234.199 126.42 233.757C125.987 233.316 125.77 232.753 125.77 232.069C125.77 231.48 125.929 230.973 126.247 230.547C126.57 230.122 127.021 229.794 127.602 229.563C128.186 229.332 128.87 229.217 129.654 229.217C130.811 229.217 131.722 229.462 132.386 229.951C133.054 230.44 133.444 231.106 133.556 231.949Z" fill="white"/>
<path fill-rule="evenodd" clip-rule="evenodd" d="M100.307 48.4968C100.607 48.1961 101.014 48.0269 101.439 48.0264C101.864 48.0258 102.271 48.194 102.572 48.4938L105.994 51.9173C106.18 52.1037 106.401 52.2515 106.645 52.3524C106.888 52.4533 107.149 52.5052 107.413 52.5052C107.676 52.5052 107.937 52.4533 108.181 52.3524C108.424 52.2515 108.645 52.1037 108.832 51.9173L117.693 43.0567C117.993 42.7589 118.399 42.5921 118.821 42.5929C119.244 42.5937 119.649 42.762 119.948 43.061C120.247 43.3599 120.415 43.7651 120.416 44.1879C120.417 44.6106 120.25 45.0164 119.952 45.3165C118.004 47.2643 116.041 49.2479 114.143 51.1692C112.244 53.0905 110.28 55.0719 108.338 57.0127C108.038 57.3129 107.63 57.4815 107.206 57.4815C106.781 57.4815 106.373 57.3129 106.073 57.0127C105.225 56.1636 104.347 55.1744 103.421 54.1278C102.42 53.0037 101.387 51.8394 100.306 50.7583C100.158 50.6098 100.04 50.4335 99.9595 50.2394C99.8791 50.0453 99.8377 49.8372 99.8377 49.6271C99.8377 49.417 99.8791 49.209 99.9595 49.0149C100.04 48.8208 100.158 48.6444 100.306 48.4959L100.307 48.4968ZM100.416 56.7955C101.385 57.8875 102.303 58.9175 103.234 59.8521C104.288 60.9044 105.717 61.4954 107.206 61.4954C108.695 61.4954 110.124 60.9044 111.178 59.8521C113.126 57.9022 115.095 55.9151 116.996 53.9909C118.892 52.0755 120.853 50.0952 122.791 48.1553C123.844 47.1027 124.435 45.6751 124.435 44.1866C124.435 42.6981 123.844 41.2705 122.791 40.218C121.739 39.1654 120.311 38.5741 118.823 38.5742C117.334 38.5742 115.906 39.1655 114.854 40.2181L107.413 47.6592L105.408 45.6576C104.887 45.1362 104.268 44.7226 103.587 44.4404C102.906 44.1583 102.175 44.013 101.438 44.013C100.701 44.013 99.9706 44.1582 99.2893 44.4404C98.6081 44.7225 97.9891 45.1361 97.4677 45.6575C96.4147 46.7104 95.8231 48.1386 95.8231 49.6277C95.8231 50.3651 95.9683 51.0952 96.2505 51.7765C96.5326 52.4577 96.9462 53.0767 97.4676 53.5981C98.466 54.5932 99.4579 55.7115 100.416 56.7955ZM34.7737 46.9653C34.7737 42.3743 40.956 38.4975 48.2714 38.4975H76.6238C80.5092 38.4975 84.2139 39.5989 86.7945 41.4783C85.3801 45.3324 84.9435 49.4771 85.524 53.5412C86.1046 57.6054 87.684 61.4621 90.1209 64.766V68.8093C90.1209 70.7622 87.2154 72.9358 83.0461 72.9358H80.7376V64.1339C80.7376 63.6016 80.5262 63.0912 80.1498 62.7148C79.7735 62.3384 79.263 62.127 78.7307 62.127C78.1985 62.127 77.688 62.3384 77.3117 62.7148C76.9353 63.0912 76.7239 63.6016 76.7239 64.1339V72.9346H48.174V64.1339C48.174 63.6016 47.9625 63.0912 47.5862 62.7148C47.2098 62.3384 46.6994 62.127 46.1671 62.127C45.6348 62.127 45.1244 62.3384 44.748 62.7148C44.3717 63.0912 44.1602 63.6016 44.1602 64.1339V72.9346H41.8488C37.6824 72.9346 34.7745 70.761 34.7745 68.8081V46.9656L34.7737 46.9653ZM110.129 29.1947C106.007 29.1949 101.978 30.4173 98.5508 32.7073C95.1238 34.9973 92.4528 38.2521 90.8755 42.06C89.2983 45.868 88.8856 50.0582 89.6897 54.1007C90.4938 58.1432 92.4786 61.8565 95.393 64.771C98.3075 67.6856 102.021 69.6704 106.063 70.4747C110.106 71.2789 114.296 70.8663 118.104 69.2892C121.912 67.712 125.167 65.0411 127.457 61.6142C129.747 58.1872 130.969 54.1582 130.97 50.0365C130.964 44.5108 128.766 39.2131 124.859 35.3058C120.952 31.3985 115.654 29.2008 110.129 29.1947ZM41.8479 76.949H83.0479C89.1621 76.949 93.9706 73.4936 94.1309 69.0372C98.04 72.3287 102.869 74.335 107.959 74.7827C113.05 75.2305 118.155 74.0978 122.579 71.5392C127.002 68.9805 130.529 65.1202 132.68 60.4843C134.83 55.8483 135.499 50.6622 134.595 45.6325C133.691 40.6028 131.258 35.9741 127.628 32.377C123.998 28.78 119.347 26.3896 114.309 25.5314C109.272 24.6733 104.092 25.3892 99.4757 27.5816C94.8596 29.774 91.0316 33.3362 88.5134 37.783C85.3047 35.6696 81.0977 34.4826 76.6244 34.4826H48.2714C38.6165 34.4826 30.759 40.0829 30.759 46.965V68.8075C30.759 73.3729 35.631 76.9487 41.8479 76.9487V76.949ZM62.4491 4.01375C69.7845 4.01375 75.7514 8.82878 75.7514 14.7473C75.7514 20.6658 69.7839 25.4838 62.4488 25.4838C55.1136 25.4838 49.1461 20.6667 49.1461 14.7479C49.1461 8.82908 55.1133 4.01375 62.4491 4.01375ZM62.4491 29.4984C52.8996 29.4984 45.1315 22.8799 45.1315 14.7473C45.1315 6.61473 52.8996 0 62.4488 0C71.998 0 79.7666 6.61532 79.7661 14.7479C79.7655 22.8805 71.9983 29.499 62.4491 29.499V29.4984ZM16.5359 107.102C16.6711 107.331 16.7597 107.584 16.7965 107.846C16.8333 108.109 16.8176 108.377 16.7503 108.634C16.6831 108.89 16.5655 109.131 16.4046 109.342C16.2436 109.553 16.0423 109.73 15.8125 109.863C15.5827 109.995 15.3288 110.081 15.0656 110.115C14.8023 110.149 14.535 110.131 14.279 110.06C14.023 109.99 13.7835 109.87 13.5743 109.707C13.3651 109.544 13.1903 109.34 13.0601 109.109L10.4724 104.627C10.3357 104.399 10.2458 104.145 10.2079 103.882C10.17 103.618 10.1849 103.35 10.2518 103.092C10.3187 102.835 10.4361 102.593 10.5973 102.381C10.7585 102.169 10.9603 101.991 11.1908 101.858C11.4213 101.725 11.676 101.639 11.9401 101.606C12.2042 101.572 12.4723 101.591 12.7289 101.662C12.9855 101.733 13.2254 101.854 13.4347 102.019C13.6439 102.183 13.8184 102.388 13.9479 102.62L16.5359 107.102ZM126.732 97.6653C126.614 99.9192 124.779 101.974 121.561 103.452C121.493 103.483 121.427 103.518 121.363 103.558L81.0487 127.87C81.0367 127.875 81.0253 127.882 81.0145 127.89C77.2551 130.255 73.1829 130.623 68.5662 129.008C68.5234 128.994 68.4777 128.978 68.4343 128.968L42.308 121.79C42.0211 121.713 41.8201 121.643 41.6425 121.581C40.2288 121.085 39.5403 121.377 38.4049 122.109L36.8307 123.127L23.4218 99.9L41.1481 89.188C47.1393 85.9504 65.7091 89.2682 75.4716 95.3266C78.8526 97.4259 80.7479 99.6355 80.6733 101.395C80.6051 103.003 78.8326 104.788 75.6809 106.436C71.4517 106.081 65.5671 104.847 57.3885 102.152C56.8827 101.985 56.3315 102.026 55.8561 102.266C55.3807 102.506 55.02 102.925 54.8535 103.43C54.6869 103.936 54.7281 104.487 54.9679 104.963C55.2078 105.438 55.6267 105.799 56.1324 105.965C72.0399 111.208 82.2162 111.93 87.2316 108.179L114.244 93.4623C114.276 93.4452 114.31 93.4251 114.342 93.4051C117.557 91.4121 121.078 91.1683 123.765 92.7558C125.692 93.8941 126.83 95.7726 126.733 97.6623L126.732 97.6653ZM34.0456 133.005C34.8115 132.561 35.3702 131.832 35.5992 130.977C35.8282 130.123 35.7086 129.212 35.2668 128.445L17.5107 97.6927C17.0659 96.9285 16.3372 96.371 15.4832 96.1417C14.6292 95.9124 13.7193 96.0299 12.9515 96.4685L5.6819 100.667C4.91599 101.11 4.35722 101.839 4.12821 102.694C3.8992 103.549 4.01866 104.459 4.46036 105.226L22.2136 135.979C22.6585 136.743 23.3873 137.3 24.2412 137.529C25.0952 137.759 26.0052 137.641 26.773 137.203L34.0456 133.005V133.005ZM125.805 89.2995C121.825 86.9482 116.769 87.1976 112.273 89.965L85.1746 104.727C85.0792 104.78 84.9881 104.841 84.9019 104.908C84.2987 105.361 83.6215 105.707 82.9003 105.929C83.9604 104.711 84.5876 103.176 84.6841 101.564C84.8275 98.1749 82.4387 94.9288 77.5868 91.915C67.2977 85.5257 47.1502 81.3133 39.1811 85.6877C39.1584 85.7019 39.1324 85.7172 39.1094 85.7305L21.4135 96.4186L20.9864 95.6843C20.0091 93.9986 18.4036 92.7689 16.5214 92.2645C14.6393 91.76 12.634 92.022 10.9446 92.9931L3.67444 97.1913C1.98706 98.1671 0.755839 99.7726 0.251042 101.655C-0.253754 103.538 0.00912462 105.544 0.981974 107.233L18.7381 137.986C19.2188 138.823 19.861 139.557 20.6274 140.144C21.3938 140.731 22.2692 141.161 23.2028 141.407C23.8305 141.575 24.4773 141.661 25.1271 141.662C26.4103 141.662 27.6706 141.323 28.7805 140.679L36.0527 136.48C37.7094 135.52 38.9268 133.953 39.4466 132.11C39.9665 130.267 39.7478 128.294 38.837 126.61L40.5833 125.48C40.5892 125.477 40.5948 125.472 40.6033 125.466C40.7757 125.523 40.987 125.592 41.2429 125.661L67.3069 132.821C69.4379 133.584 71.6816 133.984 73.9449 134.006C77.2049 134.002 80.3952 133.062 83.1355 131.296L123.343 107.05C129.511 104.18 130.626 100.074 130.74 97.8718C130.915 94.487 129.026 91.201 125.805 89.2995Z" fill="white"/>
<path fill-rule="evenodd" clip-rule="evenodd" d="M90.1212 64.7654C87.6843 61.4615 86.1049 57.6047 85.5243 53.5405C84.9438 49.4764 85.3803 45.3317 86.7948 41.4776C84.2142 39.5994 80.5086 38.4968 76.6241 38.4968H48.2716C40.9563 38.4968 34.7739 42.3736 34.7739 46.9647V68.8072C34.7739 70.76 37.6818 72.9337 41.8482 72.9337H44.1596V64.1329C44.1596 63.6006 44.3711 63.0902 44.7474 62.7138C45.1238 62.3375 45.6342 62.126 46.1665 62.126C46.6987 62.126 47.2092 62.3375 47.5856 62.7138C47.9619 63.0902 48.1734 63.6006 48.1734 64.1329V72.9334H76.723V64.1326C76.723 63.6003 76.9344 63.0899 77.3108 62.7135C77.6871 62.3372 78.1976 62.1257 78.7298 62.1257C79.2621 62.1257 79.7726 62.3372 80.1489 62.7135C80.5253 63.0899 80.7367 63.6003 80.7367 64.1326V72.9331H83.0452C87.2145 72.9331 90.12 70.7594 90.12 68.8066L90.1212 64.7654Z" fill="white" fill-opacity="0.1"/>
<path fill-rule="evenodd" clip-rule="evenodd" d="M62.4486 25.485C69.7838 25.485 75.7519 20.6673 75.7513 14.7485C75.7507 8.82973 69.7844 4.0144 62.4489 4.0144C55.1135 4.0144 49.1463 8.82973 49.146 14.7485C49.1457 20.6673 55.1132 25.4847 62.4486 25.485Z" fill="white" fill-opacity="0.1"/>
<path fill-rule="evenodd" clip-rule="evenodd" d="M110.13 29.1953C106.008 29.1955 101.979 30.4179 98.5521 32.7079C95.1251 34.9978 92.4541 38.2526 90.8768 42.0606C89.2995 45.8686 88.8869 50.0588 89.691 54.1013C90.4951 58.1438 92.4798 61.8571 95.3943 64.7716C98.3087 67.6861 102.022 69.671 106.064 70.4752C110.107 71.2794 114.297 70.8669 118.105 69.2898C121.913 67.7126 125.168 65.0417 127.458 61.6147C129.748 58.1878 130.971 54.1587 130.971 50.037C130.965 44.5114 128.768 39.2137 124.86 35.3064C120.953 31.3991 115.656 29.2013 110.13 29.1953ZM97.4689 45.657C98.5223 44.6049 99.9504 44.014 101.439 44.014C102.928 44.014 104.356 44.6049 105.41 45.657L107.414 47.6586L114.855 40.2175C115.908 39.1649 117.335 38.5736 118.824 38.5735C120.312 38.5735 121.74 39.1648 122.793 40.2173C123.845 41.2699 124.436 42.6974 124.436 44.186C124.437 45.6745 123.845 47.1021 122.793 48.1547C120.854 50.0934 118.893 52.0749 116.997 53.9903C115.096 55.9145 113.126 57.9016 111.179 59.8515C110.125 60.9038 108.697 61.4948 107.207 61.4948C105.718 61.4948 104.29 60.9038 103.236 59.8515C102.304 58.9169 101.386 57.8875 100.417 56.7949C99.4592 55.7109 98.4673 54.5926 97.4689 53.5975C96.4181 52.5433 95.828 51.1156 95.828 49.6272C95.828 48.1388 96.4181 46.7111 97.4689 45.657Z" fill="white" fill-opacity="0.1"/>
<path fill-rule="evenodd" clip-rule="evenodd" d="M117.693 43.0575L108.832 51.9185C108.645 52.1049 108.424 52.2527 108.181 52.3536C107.937 52.4544 107.676 52.5063 107.413 52.5063C107.149 52.5063 106.888 52.4544 106.645 52.3536C106.401 52.2527 106.18 52.1049 105.993 51.9185L102.572 48.495C102.271 48.1993 101.865 48.0346 101.442 48.0366C101.02 48.0386 100.616 48.2072 100.317 48.5058C100.019 48.8043 99.8502 49.2087 99.8482 49.6309C99.8461 50.0531 100.011 50.459 100.307 50.7604C101.388 51.8415 102.42 53.0057 103.421 54.1299C104.347 55.1764 105.225 56.1663 106.073 57.0148C106.374 57.315 106.781 57.4836 107.206 57.4836C107.631 57.4836 108.038 57.315 108.338 57.0148C110.28 55.0731 112.245 53.0896 114.143 51.1712C116.041 49.2529 118.005 47.2658 119.952 45.3185C120.25 45.0185 120.417 44.6127 120.416 44.19C120.416 43.7672 120.247 43.362 119.948 43.063C119.649 42.7641 119.244 42.5958 118.822 42.595C118.399 42.5942 117.993 42.7609 117.693 43.0587V43.0575Z" fill="white" fill-opacity="0.1"/>
<path fill-rule="evenodd" clip-rule="evenodd" d="M87.2319 108.18C82.2165 111.931 72.0395 111.209 56.1327 105.967C55.8823 105.884 55.6505 105.753 55.4507 105.581C55.2509 105.409 55.087 105.2 54.9682 104.964C54.8494 104.729 54.7782 104.472 54.7586 104.209C54.7389 103.946 54.7713 103.682 54.8537 103.432C54.9362 103.181 55.0672 102.95 55.2392 102.75C55.4113 102.55 55.621 102.386 55.8564 102.267C56.0918 102.148 56.3483 102.077 56.6112 102.058C56.8741 102.038 57.1383 102.07 57.3888 102.153C65.5674 104.848 71.4519 106.082 75.6811 106.437C78.8328 104.788 80.6054 103.004 80.6735 101.396C80.7482 99.638 78.8529 97.4272 75.4719 95.3279C65.7105 89.2686 47.1395 85.9508 41.1484 89.1893L23.4224 99.8986L36.8313 123.125L38.4055 122.107C39.5408 121.376 40.2294 121.084 41.643 121.58C41.8201 121.639 42.0217 121.711 42.3085 121.789L68.4348 128.967L68.5668 129.007C73.1835 130.621 77.2556 130.254 81.015 127.888L81.0492 127.868L121.364 103.557C121.427 103.517 121.493 103.482 121.562 103.451C124.778 101.975 126.615 99.9178 126.732 97.6639C126.829 95.7751 125.692 93.8957 123.764 92.7574C121.078 91.1687 117.556 91.4125 114.341 93.4066L114.244 93.4639L87.2319 108.18Z" fill="white" fill-opacity="0.1"/>
<path fill-rule="evenodd" clip-rule="evenodd" d="M35.2676 128.445L17.5114 97.693C17.0666 96.9288 16.3379 96.3713 15.4839 96.142C14.63 95.9127 13.72 96.0302 12.9523 96.4688L5.68265 100.667C4.91674 101.11 4.35797 101.839 4.12896 102.694C3.89995 103.549 4.01941 104.46 4.46111 105.226L22.2143 135.979C22.6592 136.743 23.388 137.3 24.242 137.53C25.096 137.759 26.0059 137.642 26.7737 137.203L34.0463 133.005C34.8122 132.562 35.371 131.833 35.6 130.978C35.8289 130.123 35.7094 129.212 35.2676 128.445ZM16.5366 107.103C16.6718 107.331 16.7604 107.584 16.7972 107.847C16.834 108.11 16.8184 108.377 16.7511 108.634C16.6838 108.891 16.5663 109.131 16.4053 109.342C16.2443 109.553 16.0431 109.73 15.8133 109.863C15.5834 109.996 15.3295 110.082 15.0663 110.116C14.8031 110.149 14.5358 110.131 14.2798 110.061C14.0238 109.991 13.7843 109.87 13.575 109.707C13.3658 109.544 13.1911 109.341 13.0609 109.109L10.4732 104.627C10.3365 104.399 10.2465 104.146 10.2087 103.882C10.1708 103.619 10.1857 103.35 10.2526 103.093C10.3194 102.835 10.4369 102.593 10.5981 102.381C10.7593 102.169 10.961 101.992 11.1915 101.859C11.4221 101.725 11.6768 101.64 11.9408 101.606C12.2049 101.572 12.473 101.591 12.7296 101.662C12.9862 101.733 13.2261 101.854 13.4354 102.019C13.6447 102.183 13.8191 102.388 13.9486 102.62L16.5366 107.103Z" fill="white" fill-opacity="0.1"/>
</svg>
