<svg width="152" height="152" viewBox="0 0 152 152" fill="none" xmlns="http://www.w3.org/2000/svg">
<g id="Capa_1" clip-path="url(#clip0_385_36)">
<path id="Vector" d="M80.3527 148.674C119.922 148.674 152 116.596 152 77.0268C152 37.4572 119.922 5.37964 80.3527 5.37964C40.7831 5.37964 8.70557 37.4572 8.70557 77.0268C8.70557 116.596 40.7831 148.674 80.3527 148.674Z" fill="url(#paint0_linear_385_36)"/>
<path id="Vector_2" d="M130.801 39.342C128.343 37.5362 125.736 35.8797 123.004 34.3754C121.5 31.6433 119.844 29.0367 118.037 26.5781C108.009 12.9259 94.625 5.40723 80.3528 5.40723C66.0803 5.40723 52.6969 12.9259 42.6681 26.5781C40.862 29.0367 39.2058 31.6436 37.7016 34.3754C34.9695 35.8797 32.3628 37.5359 29.9043 39.342C16.252 49.371 8.7334 62.7541 8.7334 77.0266C8.7334 91.2991 16.252 104.683 29.9043 114.711C32.3628 116.517 34.9698 118.174 37.7016 119.678C39.2058 122.41 40.862 125.017 42.6681 127.475C52.6972 141.127 66.0803 148.646 80.3528 148.646C94.625 148.646 108.009 141.127 118.037 127.475C119.844 125.017 121.5 122.41 123.004 119.678C125.736 118.173 128.343 116.517 130.801 114.711C144.454 104.682 151.972 91.2989 151.972 77.0264C151.972 62.7538 144.454 49.371 130.801 39.342ZM80.3528 145.275C76.4196 145.275 72.2506 139.415 68.9546 129.418C72.6902 129.857 76.498 130.085 80.3528 130.085C84.2077 130.085 88.0154 129.857 91.751 129.418C88.455 139.416 84.286 145.275 80.3528 145.275ZM80.3528 126.714C76.0915 126.714 71.9213 126.425 67.8739 125.878C65.6279 117.936 63.997 108.403 63.0639 97.994C68.6509 98.3934 74.4475 98.5993 80.3528 98.5993C86.2582 98.5993 92.0547 98.3934 97.6418 97.994C96.7089 108.403 95.078 117.936 92.832 125.878C88.7847 126.425 84.6145 126.714 80.3528 126.714ZM80.3528 8.77894C84.286 8.77894 88.455 14.6381 91.751 24.6355C88.0154 24.1959 84.2077 23.9682 80.3528 23.9682C76.498 23.9682 72.6902 24.1959 68.9546 24.6355C72.2506 14.6378 76.4196 8.77894 80.3528 8.77894ZM80.3528 27.3399C84.6145 27.3399 88.7847 27.6284 92.832 28.1753C95.078 36.1175 96.7089 45.6509 97.6418 56.0596C92.0547 55.6602 86.2582 55.4543 80.3528 55.4543C74.4475 55.4543 68.6512 55.6602 63.0639 56.0596C63.9967 45.6509 65.6276 36.1175 67.8739 28.1753C71.9213 27.6284 76.0915 27.3399 80.3528 27.3399ZM62.1516 77.0266C62.1516 71.0152 62.3682 65.1242 62.7861 59.4599C68.4503 59.0421 74.3411 58.8254 80.3528 58.8254C86.3643 58.8254 92.2553 59.0421 97.9195 59.4599C98.3374 65.1242 98.5541 71.0149 98.5541 77.0266C98.5541 83.0384 98.3374 88.9291 97.9195 94.5931C92.2553 95.0109 86.3643 95.2276 80.3528 95.2276C74.3414 95.2276 68.4503 95.0109 62.7861 94.5931C62.3682 88.9294 62.1516 83.0384 62.1516 77.0266ZM59.3855 94.3156C48.9767 93.3827 39.4431 91.7519 31.5012 89.5056C30.9546 85.4582 30.6658 81.288 30.6658 77.0266C30.6658 72.7653 30.9543 68.5951 31.5012 64.5477C39.4431 62.3017 48.9767 60.6709 59.3855 59.7377C58.9861 65.3247 58.7802 71.1213 58.7802 77.0266C58.7802 82.932 58.9858 88.7286 59.3855 94.3156ZM101.32 59.738C111.729 60.6708 121.263 62.3017 129.205 64.548C129.751 68.5954 130.04 72.7656 130.04 77.0269C130.04 81.2883 129.752 85.4585 129.205 89.5059C121.263 91.7522 111.729 93.3827 101.32 94.3159C101.72 88.7289 101.926 82.9323 101.926 77.0269C101.926 71.1213 101.72 65.325 101.32 59.738ZM101.05 56.3296C100.162 46.1271 98.6146 36.7192 96.4842 28.7458C105.276 30.303 113.407 33.1028 120.505 36.8751C124.277 43.9729 127.077 52.1031 128.634 60.8953C120.661 58.7652 111.253 57.2175 101.05 56.3296ZM59.6555 56.3296C49.453 57.2175 40.0451 58.7652 32.0717 60.8953C33.6289 52.1031 36.4287 43.9729 40.201 36.8751C47.2988 33.1028 55.429 30.303 64.2212 28.7458C62.0911 36.7192 60.5436 46.1271 59.6555 56.3296ZM27.9614 88.4249C17.964 85.1288 12.1048 80.9599 12.1048 77.0266C12.1048 73.0934 17.9637 68.9245 27.9614 65.6284C27.5221 69.3641 27.2941 73.1718 27.2941 77.0266C27.2941 80.8815 27.5221 84.6892 27.9614 88.4249ZM59.6555 97.724C60.5434 107.926 62.0911 117.334 64.2212 125.308C55.429 123.751 47.2988 120.951 40.201 117.178C36.4287 110.081 33.6289 101.95 32.0717 93.1583C40.0454 95.2884 49.4533 96.8361 59.6555 97.724ZM101.05 97.724C111.253 96.8361 120.661 95.2884 128.634 93.1583C127.077 101.95 124.277 110.081 120.505 117.178C113.407 120.951 105.277 123.751 96.4842 125.308C98.6146 117.334 100.162 107.926 101.05 97.724ZM132.744 65.6287C142.742 68.9247 148.601 73.0934 148.601 77.0269C148.601 80.9602 142.742 85.1291 132.744 88.4252C133.184 84.6895 133.411 80.8818 133.411 77.0269C133.412 73.1718 133.184 69.3644 132.744 65.6287ZM147.804 69.4338C144.505 66.6206 139.276 64.0917 132.235 61.928C131.009 54.1647 128.839 46.7685 125.801 39.9941C137.328 47.5002 145.345 57.8079 147.804 69.4338ZM117.386 31.5789C110.612 28.541 103.215 26.3707 95.4518 25.1443C93.288 18.1031 90.7592 12.8737 87.946 9.57471C99.5719 12.0341 109.88 20.0511 117.386 31.5789ZM72.76 9.57501C69.9468 12.874 67.4179 18.1034 65.2542 25.1446C57.4908 26.3707 50.0944 28.541 43.32 31.5789C50.8261 20.0511 61.1338 12.0341 72.76 9.57501ZM34.9048 39.9938C31.8672 46.7682 29.6966 54.1647 28.4704 61.928C21.4293 64.0917 16.1999 66.6206 12.9009 69.4338C15.36 57.8079 23.3773 47.5002 34.9048 39.9938ZM12.9009 84.6198C16.1999 87.433 21.4293 89.9618 28.4704 92.1256C29.6966 99.8889 31.8672 107.285 34.9048 114.06C23.3773 106.553 15.36 96.2457 12.9009 84.6198ZM43.3197 122.475C50.0941 125.513 57.4905 127.683 65.2539 128.909C67.4176 135.95 69.9465 141.18 72.7597 144.479C61.1338 142.019 50.8261 134.002 43.3197 122.475ZM87.9457 144.479C90.7589 141.18 93.2877 135.95 95.4515 128.909C103.215 127.683 110.611 125.512 117.386 122.475C109.88 134.002 99.5719 142.019 87.9457 144.479ZM125.801 114.06C128.839 107.285 131.009 99.8889 132.235 92.1259C139.276 89.9621 144.506 87.4333 147.804 84.6201C145.345 96.2457 137.328 106.553 125.801 114.06Z" fill="url(#paint1_linear_385_36)"/>
<path id="Vector_3" d="M55.7114 9.73195C37.7731 16.3025 23.196 29.8416 15.2547 47.0703C14.3135 49.1122 13.8477 51.3409 13.8477 53.5893C13.8477 57.7771 15.5113 61.7932 18.4723 64.7545L19.9366 66.2187C26.4988 72.781 35.3989 76.4674 44.6792 76.4674C46.0657 76.4674 47.1896 75.3435 47.1896 73.9573C47.1896 72.5708 46.0657 71.4469 44.6792 71.4469H36.9627C33.4038 71.4469 30.5185 68.5619 30.5185 65.0027C30.5185 61.4438 33.4035 58.5585 36.9627 58.5585H42.9896C50.2165 58.5585 57.1474 55.6878 62.2573 50.5776L71.563 41.272C73.5893 39.2456 76.3378 38.1071 79.2035 38.1071C83.3492 38.1071 87.1292 35.7353 88.9327 32.0023C91.1429 27.4274 87.81 22.1155 82.7293 22.1155H70.7228C67.1928 22.1155 64.331 19.254 64.331 15.7237C64.3307 11.2692 59.8947 8.19973 55.7114 9.73195Z" fill="url(#paint2_linear_385_36)"/>
<path id="Vector_4" d="M150.332 61.5896C149.342 57.0841 145.314 53.8975 140.701 53.8975H130.601H125.202C116.026 53.8975 108.587 61.3362 108.587 70.5126V72.5342C108.587 80.594 115.121 87.1279 123.181 87.1279C127.279 87.1279 130.601 90.4502 130.601 94.5482V113.925C130.601 118.974 137.158 120.986 139.964 116.788C145.795 108.064 149.762 97.987 151.295 87.1279C151.758 83.8292 152 80.4548 152 77.0271C152 71.7262 151.424 66.5614 150.332 61.5896Z" fill="url(#paint3_linear_385_36)"/>
<path id="Vector_5" d="M112.403 12.9358C117.235 22.58 119.959 33.4641 119.959 44.9857C119.959 84.5552 87.8814 116.633 48.3117 116.633C36.7901 116.633 25.906 113.909 16.2617 109.077C28.0253 132.554 52.3048 148.674 80.3527 148.674C119.922 148.674 152 116.597 152 77.0267C152 48.9789 135.88 24.6994 112.403 12.9358Z" fill="url(#paint4_linear_385_36)"/>
<path id="Vector_6" d="M116.514 47.4208C112.922 43.8286 103.992 46.7994 86.9918 62.6778L77.0573 61.4534L73.848 58.1425C72.1328 56.4273 69.3521 56.4273 67.6368 58.1425C67.2267 58.5526 66.9192 59.0247 66.7064 59.5278L64.1513 56.9572C62.4361 55.242 59.6553 55.242 57.9401 56.9572C57.3664 57.5309 56.9894 58.2247 56.7992 58.957L52.9569 58.4835C52.0407 58.3705 50.9893 58.7895 50.1947 59.5844L43.6182 66.1609C42.924 66.8551 42.9273 67.855 43.625 68.1554L63.4166 87.4961C57.6466 94.2085 52.3745 100.846 48.3269 106.566L38.4743 105.229C38.0785 105.175 37.6213 105.355 37.2762 105.7L34.207 108.77C33.6145 109.362 33.5614 110.212 34.0958 110.555L41.4952 117.735C40.253 120.453 39.9105 122.378 40.734 123.201L64.4284 146.896C69.55 148.058 74.8789 148.674 80.3524 148.674C118.018 148.674 148.893 119.61 151.778 82.6848L116.514 47.4208Z" fill="url(#paint5_linear_385_36)"/>
<path id="Vector_7" d="M61.0457 64.4542C63.4713 64.4542 65.4376 62.4879 65.4376 60.0623C65.4376 57.6367 63.4713 55.6704 61.0457 55.6704C58.6201 55.6704 56.6538 57.6367 56.6538 60.0623C56.6538 62.4879 58.6201 64.4542 61.0457 64.4542Z" fill="url(#paint6_linear_385_36)"/>
<path id="Vector_8" d="M61.046 63.7279C63.0704 63.7279 64.7115 62.0868 64.7115 60.0623C64.7115 58.0379 63.0704 56.3967 61.046 56.3967C59.0215 56.3967 57.3804 58.0379 57.3804 60.0623C57.3804 62.0868 59.0215 63.7279 61.046 63.7279Z" fill="url(#paint7_linear_385_36)"/>
<path id="Vector_9" d="M65.2132 58.6736C65.0045 59.301 64.6508 59.8908 64.1515 60.3903C62.4363 62.1055 59.6556 62.1055 57.9404 60.3903C57.4409 59.8908 57.0874 59.301 56.8788 58.6736C56.3709 60.201 56.7247 61.9523 57.9404 63.168C59.6556 64.8832 62.4363 64.8832 64.1515 63.168C65.3672 61.9523 65.721 60.2013 65.2132 58.6736Z" fill="url(#paint8_linear_385_36)"/>
<path id="Vector_10" d="M61.0457 64.4542C63.4713 64.4542 65.4376 62.4879 65.4376 60.0623C65.4376 57.6367 63.4713 55.6704 61.0457 55.6704C58.6201 55.6704 56.6538 57.6367 56.6538 60.0623C56.6538 62.4879 58.6201 64.4542 61.0457 64.4542Z" fill="url(#paint9_linear_385_36)"/>
<path id="Vector_11" d="M73.8481 64.3533C72.1329 66.0685 69.3522 66.0685 67.637 64.3533C65.9218 62.638 65.9218 59.8573 67.637 58.1421C69.3522 56.4269 72.1329 56.4269 73.8481 58.1421C75.5631 59.8573 75.5631 62.6383 73.8481 64.3533Z" fill="url(#paint10_linear_385_36)"/>
<path id="Vector_12" d="M70.7427 64.9134C72.7672 64.9134 74.4083 63.2723 74.4083 61.2479C74.4083 59.2234 72.7672 57.5823 70.7427 57.5823C68.7183 57.5823 67.0771 59.2234 67.0771 61.2479C67.0771 63.2723 68.7183 64.9134 70.7427 64.9134Z" fill="url(#paint11_linear_385_36)"/>
<path id="Vector_13" d="M74.9099 59.8591C74.7013 60.4865 74.3475 61.0763 73.8483 61.5758C72.1331 63.2911 69.3524 63.2911 67.6372 61.5758C67.1377 61.0763 66.7842 60.4865 66.5756 59.8591C66.0677 61.3866 66.4215 63.1379 67.6372 64.3536C69.3524 66.0688 72.1331 66.0688 73.8483 64.3536C75.064 63.1376 75.4178 61.3866 74.9099 59.8591Z" fill="url(#paint12_linear_385_36)"/>
<path id="Vector_14" d="M73.8481 64.3533C72.1329 66.0685 69.3522 66.0685 67.637 64.3533C65.9218 62.638 65.9218 59.8573 67.637 58.1421C69.3522 56.4269 72.1329 56.4269 73.8481 58.1421C75.5631 59.8573 75.5631 62.6383 73.8481 64.3533Z" fill="url(#paint13_linear_385_36)"/>
<path id="Vector_15" d="M103.873 107.281C106.298 107.281 108.265 105.315 108.265 102.889C108.265 100.464 106.298 98.4976 103.873 98.4976C101.447 98.4976 99.481 100.464 99.481 102.889C99.481 105.315 101.447 107.281 103.873 107.281Z" fill="url(#paint14_linear_385_36)"/>
<path id="Vector_16" d="M103.873 106.555C105.897 106.555 107.538 104.914 107.538 102.889C107.538 100.865 105.897 99.2239 103.873 99.2239C101.848 99.2239 100.207 100.865 100.207 102.889C100.207 104.914 101.848 106.555 103.873 106.555Z" fill="url(#paint15_linear_385_36)"/>
<path id="Vector_17" d="M105.261 98.7219C104.634 98.9306 104.044 99.2843 103.545 99.7835C101.829 101.499 101.829 104.279 103.545 105.995C104.044 106.494 104.634 106.848 105.261 107.056C103.734 107.564 101.983 107.21 100.767 105.995C99.0517 104.279 99.0517 101.499 100.767 99.7835C101.983 98.5678 103.734 98.2144 105.261 98.7219Z" fill="url(#paint16_linear_385_36)"/>
<path id="Vector_18" d="M103.873 107.281C106.298 107.281 108.265 105.315 108.265 102.889C108.265 100.464 106.298 98.4976 103.873 98.4976C101.447 98.4976 99.481 100.464 99.481 102.889C99.481 105.315 101.447 107.281 103.873 107.281Z" fill="url(#paint17_linear_385_36)"/>
<path id="Vector_19" d="M99.5818 90.0872C97.8666 91.8024 97.8666 94.5831 99.5818 96.2983C101.297 98.0135 104.078 98.0135 105.793 96.2983C107.508 94.5831 107.508 91.8024 105.793 90.0872C104.078 88.372 101.297 88.372 99.5818 90.0872Z" fill="url(#paint18_linear_385_36)"/>
<path id="Vector_20" d="M102.688 96.8583C104.712 96.8583 106.353 95.2171 106.353 93.1927C106.353 91.1682 104.712 89.5271 102.688 89.5271C100.663 89.5271 99.022 91.1682 99.022 93.1927C99.022 95.2171 100.663 96.8583 102.688 96.8583Z" fill="url(#paint19_linear_385_36)"/>
<path id="Vector_21" d="M104.076 89.0251C103.449 89.2338 102.859 89.5876 102.36 90.0868C100.644 91.802 100.644 94.5827 102.36 96.2979C102.859 96.7974 103.449 97.1509 104.076 97.3595C102.549 97.8674 100.798 97.5136 99.5818 96.2979C97.8666 94.5827 97.8666 91.802 99.5818 90.0868C100.798 88.8711 102.549 88.5176 104.076 89.0251Z" fill="url(#paint20_linear_385_36)"/>
<path id="Vector_22" d="M99.5818 90.0872C97.8666 91.8024 97.8666 94.5831 99.5818 96.2983C101.297 98.0135 104.078 98.0135 105.793 96.2983C107.508 94.5831 107.508 91.8024 105.793 90.0872C104.078 88.372 101.297 88.372 99.5818 90.0872Z" fill="url(#paint21_linear_385_36)"/>
<path id="Vector_23" d="M34.0962 110.555L43.51 116.603L52.9236 107.19L38.4747 105.229C38.0789 105.175 37.6217 105.355 37.2765 105.7L34.2073 108.769C33.6148 109.362 33.5621 110.212 34.0962 110.555Z" fill="url(#paint22_linear_385_36)"/>
<path id="Vector_24" d="M35.1254 107.851L34.2075 108.769C33.615 109.362 33.5619 110.212 34.0963 110.555L43.5102 116.603L50.7725 109.341L36.3235 107.38C35.9277 107.326 35.4705 107.506 35.1254 107.851Z" fill="url(#paint23_linear_385_36)"/>
<path id="Vector_25" d="M53.38 129.839L47.3315 120.425L56.7451 111.011L58.7059 125.46C58.7596 125.856 58.5798 126.314 58.235 126.659L55.1658 129.728C54.573 130.32 53.7233 130.373 53.38 129.839Z" fill="url(#paint24_linear_385_36)"/>
<path id="Vector_26" d="M56.0838 128.81L55.1658 129.728C54.5733 130.32 53.7233 130.373 53.38 129.839L47.3315 120.425L54.5939 113.163L56.5547 127.612C56.6086 128.007 56.4286 128.465 56.0838 128.81Z" fill="url(#paint25_linear_385_36)"/>
<path id="Vector_27" d="M43.6252 68.1554L73.5818 81.0659L91.4236 63.2241L52.9572 58.4838C52.041 58.3708 50.9895 58.7898 50.1949 59.5847L43.6184 66.1612C42.9246 66.8548 42.9278 67.8547 43.6252 68.1554Z" fill="url(#paint26_linear_385_36)"/>
<path id="Vector_28" d="M45.956 63.823L43.6181 66.1608C42.924 66.855 42.9273 67.8549 43.625 68.1553L73.5815 81.0658L87.1846 67.4627L48.7182 62.7224C47.802 62.6091 46.7508 63.0282 45.956 63.823Z" fill="url(#paint27_linear_385_36)"/>
<path id="Vector_29" d="M63.0759 64.4915L48.7182 62.722C47.802 62.6091 46.7508 63.0281 45.956 63.823L43.6181 66.1608C42.924 66.8549 42.9273 67.8549 43.625 68.1553L54.6575 72.9099L63.0759 64.4915Z" fill="url(#paint28_linear_385_36)"/>
<path id="Vector_30" d="M43.6252 68.1554L73.5817 81.0659L79.7172 74.9305L46.5067 63.2729L43.6187 66.1609C42.9245 66.8548 42.9278 67.8547 43.6252 68.1554Z" fill="url(#paint29_linear_385_36)"/>
<path id="Vector_31" d="M95.7798 120.31L82.8696 90.3533L100.711 72.5115L105.452 110.978C105.565 111.894 105.146 112.946 104.351 113.74L97.7746 120.316C97.0804 121.011 96.0805 121.007 95.7798 120.31Z" fill="url(#paint30_linear_385_36)"/>
<path id="Vector_32" d="M100.112 117.979L97.7743 120.317C97.0801 121.011 96.0802 121.008 95.7798 120.31L82.8696 90.3533L96.4727 76.7502L101.213 115.217C101.326 116.133 100.907 117.184 100.112 117.979Z" fill="url(#paint31_linear_385_36)"/>
<path id="Vector_33" d="M99.4438 100.859L101.213 115.217C101.326 116.133 100.907 117.184 100.112 117.979L97.7745 120.317C97.0804 121.011 96.0804 121.008 95.78 120.31L91.0254 109.277L99.4438 100.859Z" fill="url(#paint32_linear_385_36)"/>
<path id="Vector_34" d="M95.7798 120.31L82.8696 90.3532L89.0051 84.2178L100.662 117.429L97.7743 120.317C97.0804 121.01 96.0805 121.007 95.7798 120.31Z" fill="url(#paint33_linear_385_36)"/>
<path id="Vector_35" d="M95.4706 82.9205C74.5447 103.846 44.7261 127.192 40.7342 123.201C36.7422 119.209 60.0883 89.3903 81.0142 68.4641C101.94 47.5382 112.522 43.4285 116.514 47.4205C120.506 51.4127 116.397 61.9946 95.4706 82.9205Z" fill="url(#paint34_linear_385_36)"/>
<path id="Vector_36" d="M93.9197 82.3088C74.0154 102.213 45.9792 124.745 42.5845 121.35C39.1898 117.955 61.7219 89.9193 81.6259 70.015C101.53 50.1108 111.269 45.8759 114.664 49.2706C118.059 52.6656 113.824 62.4046 93.9197 82.3088Z" fill="url(#paint35_linear_385_36)"/>
<path id="Vector_37" d="M95.4708 82.9204C116.397 61.9942 120.506 51.4126 116.514 47.4207L40.7344 123.201C44.7266 127.193 74.5448 103.847 95.4708 82.9204Z" fill="url(#paint36_linear_385_36)"/>
<path id="Vector_38" d="M98.691 55.1825C97.4094 56.2983 96.0647 57.4997 94.6543 58.7905C94.2937 59.1208 94.3265 59.6331 94.7166 59.7034C97.1293 60.138 99.3073 61.1948 101.024 62.9112C102.74 64.6276 103.797 66.806 104.232 69.2183C104.302 69.6085 104.814 69.6413 105.144 69.2806C106.435 67.8703 107.637 66.5255 108.753 65.244C109.512 64.3716 109.839 63.2742 109.593 62.3885C109.056 60.4533 108.083 58.7071 106.655 57.2798C105.228 55.8522 103.481 54.8791 101.547 54.3417C100.661 54.0955 99.5634 54.4228 98.691 55.1825Z" fill="url(#paint37_linear_385_36)"/>
<path id="Vector_39" d="M108.751 65.2438C107.771 66.3734 106.722 67.5506 105.604 68.7786C105.452 68.9455 105.3 69.1124 105.145 69.2822C104.814 69.6429 104.302 69.6101 104.23 69.2197C103.798 66.8055 102.74 64.6269 101.023 62.9102C100.922 62.8088 100.821 62.7105 100.716 62.6181C99.4973 61.4885 98.0667 60.6719 96.499 60.1533C97.9087 58.8688 99.2469 57.6706 100.526 56.5589C101.399 55.7989 102.496 55.4711 103.381 55.7185C104.433 56.0106 105.428 56.4308 106.349 56.9851C106.454 57.0805 106.555 57.1789 106.656 57.2802C108.084 58.7078 109.055 60.4543 109.592 62.3886C109.839 63.2738 109.511 64.3706 108.751 65.2438Z" fill="url(#paint38_linear_385_36)"/>
<path id="Vector_40" d="M104.231 69.2183C104.302 69.6085 104.814 69.6413 105.144 69.2806C106.435 67.8703 107.636 66.5256 108.752 65.244C109.512 64.3716 109.839 63.2742 109.593 62.3885C109.055 60.4533 108.082 58.7071 106.655 57.2798L101.023 62.9112C102.74 64.6276 103.797 66.806 104.231 69.2183Z" fill="url(#paint39_linear_385_36)"/>
<path id="Vector_41" d="M47.7665 116.798L47.1368 116.168C46.6101 115.642 46.7907 114.629 47.5296 113.968L58.4065 104.231C58.8843 103.803 59.5176 103.735 59.8583 104.076C60.1989 104.417 60.1316 105.05 59.7036 105.528L49.9666 116.405C49.3056 117.144 48.2932 117.325 47.7665 116.798Z" fill="url(#paint40_linear_385_36)"/>
<path id="Vector_42" d="M9.52355 139.051C8.89826 139.051 8.29652 139.013 7.72279 138.938C6.916 138.831 6.38728 138.04 6.60485 137.255L7.20152 135.102C7.37379 134.48 7.9645 134.068 8.60618 134.131C9.81145 134.249 11.3064 134.119 13.024 133.743C13.7184 133.591 14.4111 134.012 14.5959 134.699L15.1708 136.834C15.3696 137.572 14.9061 138.321 14.1592 138.487C12.472 138.862 10.9175 139.051 9.52355 139.051ZM20.2184 135.124L19.3913 133.077C19.1195 132.403 19.4345 131.64 20.1013 131.353C21.6004 130.708 23.1875 129.953 24.8428 129.1C25.4907 128.766 26.2886 129.013 26.6316 129.656L27.6706 131.605C28.0211 132.262 27.7638 133.08 27.1019 133.421C25.3193 134.341 23.6044 135.155 21.9786 135.854C21.2922 136.149 20.4985 135.818 20.2184 135.124ZM2.15065 133.416C1.39512 133.737 0.526337 133.308 0.33291 132.51C0.111765 131.597 0 130.599 0 129.528C0 128.4 0.123686 127.167 0.368973 125.847C0.508753 125.094 1.24759 124.608 1.99239 124.785L4.14304 125.296C4.83002 125.46 5.27291 126.133 5.14654 126.827C4.96712 127.816 4.87652 128.72 4.87652 129.527C4.87652 130.089 4.92033 130.601 5.00646 131.059C5.123 131.679 4.79903 132.294 4.21875 132.54L2.15065 133.416ZM32.2472 129.028L31.1219 127.128C30.7496 126.5 30.9502 125.689 31.5749 125.31C33.0484 124.418 34.5672 123.46 36.1125 122.449C36.7247 122.048 37.5461 122.218 37.9514 122.827L39.1746 124.665C39.5859 125.284 39.4121 126.117 38.791 126.524C37.1911 127.571 35.6169 128.563 34.0882 129.489C33.4525 129.874 32.6261 129.668 32.2472 129.028ZM45.361 122.023C44.7575 122.454 43.9188 122.314 43.4917 121.708L45.361 122.023ZM5.65202 120.481L3.59107 119.688C2.89247 119.419 2.54824 118.63 2.83346 117.937C3.50703 116.303 4.3022 114.575 5.20883 112.774C5.54383 112.108 6.35986 111.843 7.02061 112.188L8.97843 113.209C9.62458 113.546 9.87941 114.34 9.55186 114.991C8.71467 116.655 7.98209 118.246 7.36276 119.744C7.08588 120.415 6.32857 120.741 5.65202 120.481ZM11.4686 108.702L9.5611 107.59C8.91972 107.216 8.70573 106.392 9.08573 105.755C9.09795 105.734 9.11017 105.714 9.12209 105.693C9.50239 105.056 10.3309 104.851 10.9643 105.237L12.8491 106.387C13.4738 106.768 13.6737 107.582 13.2985 108.211C13.294 108.219 13.2893 108.226 13.2848 108.234C12.9102 108.862 12.1007 109.07 11.4686 108.702ZM118.779 46.251L116.971 44.9849C116.371 44.565 116.22 43.7391 116.636 43.1365C117.681 41.6215 118.682 40.1248 119.626 38.6653C120.023 38.051 120.842 37.8746 121.459 38.2665L123.323 39.45C123.949 39.8479 124.131 40.6791 123.728 41.3023C122.754 42.8083 121.722 44.3513 120.645 45.9124C120.224 46.5231 119.387 46.6763 118.779 46.251ZM126.054 34.9747L124.149 33.8594C123.518 33.4907 123.302 32.6821 123.664 32.0482C124.584 30.4346 125.426 28.8699 126.179 27.3735C126.507 26.7231 127.293 26.4579 127.949 26.7747L129.937 27.7356C130.609 28.0602 130.885 28.8696 130.55 29.536C129.753 31.1222 128.863 32.7775 127.89 34.4808C127.521 35.1267 126.696 35.3502 126.054 34.9747ZM132.055 22.891L129.997 22.0895C129.322 21.8264 128.985 21.0717 129.229 20.3892C129.855 18.6424 130.302 17.0458 130.566 15.6185C130.694 14.93 131.335 14.4624 132.03 14.5435L134.227 14.8004C134.99 14.8895 135.524 15.6015 135.388 16.357C135.074 18.103 134.541 20.0253 133.796 22.1C133.542 22.8057 132.753 23.1631 132.055 22.891ZM113.884 10.351L112.971 8.34009C112.662 7.66115 112.97 6.85794 113.655 6.56258C115.579 5.73343 117.396 5.05897 119.082 4.54694C119.809 4.32639 120.573 4.74961 120.766 5.48457L121.326 7.62181C121.507 8.31237 121.115 9.02468 120.432 9.23331C118.952 9.68544 117.344 10.2842 115.629 11.0221C114.961 11.3092 114.185 11.0123 113.884 10.351ZM131.544 10.0094C131 10.2186 130.371 10.0598 130.021 9.59424C129.94 9.48664 129.852 9.3862 129.759 9.29232C129.037 8.57136 127.846 8.20478 126.216 8.20239H126.17V3.32617V5.76443L126.173 4.72487C126.175 3.93983 126.853 3.31812 127.634 3.3977C129.951 3.63375 131.816 4.45395 133.207 5.84401C133.63 6.26752 134.003 6.74021 134.323 7.25731C134.76 7.96426 134.434 8.89682 133.659 9.19516L131.544 10.0094Z" fill="url(#paint41_linear_385_36)"/>
<path id="Vector_43" d="M49.3391 27.5964C51.6393 27.5964 53.5039 25.7318 53.5039 23.4316C53.5039 21.1315 51.6393 19.2668 49.3391 19.2668C47.039 19.2668 45.1743 21.1315 45.1743 23.4316C45.1743 25.7318 47.039 27.5964 49.3391 27.5964Z" fill="url(#paint42_linear_385_36)"/>
<path id="Vector_44" d="M27.1497 58.4258C29.4498 58.4258 31.3145 56.5611 31.3145 54.261C31.3145 51.9608 29.4498 50.0962 27.1497 50.0962C24.8495 50.0962 22.9849 51.9608 22.9849 54.261C22.9849 56.5611 24.8495 58.4258 27.1497 58.4258Z" fill="url(#paint43_linear_385_36)"/>
<path id="Vector_45" d="M140.709 69.0781C143.009 69.0781 144.874 67.2135 144.874 64.9133C144.874 62.6132 143.009 60.7485 140.709 60.7485C138.409 60.7485 136.544 62.6132 136.544 64.9133C136.544 67.2135 138.409 69.0781 140.709 69.0781Z" fill="url(#paint44_linear_385_36)"/>
</g>
<defs>
<linearGradient id="paint0_linear_385_36" x1="45.6571" y1="42.3314" x2="132.496" y2="129.17" gradientUnits="userSpaceOnUse">
<stop stop-color="#00AEFC"/>
<stop offset="1" stop-color="#3F3CEE"/>
</linearGradient>
<linearGradient id="paint1_linear_385_36" x1="91.3034" y1="155.908" x2="65.523" y2="-29.7972" gradientUnits="userSpaceOnUse">
<stop stop-color="#00AEFC" stop-opacity="0"/>
<stop offset="1" stop-color="#18CFFC"/>
</linearGradient>
<linearGradient id="paint2_linear_385_36" x1="57.8454" y1="48.3081" x2="170.732" y2="128.406" gradientUnits="userSpaceOnUse">
<stop stop-color="#E5F3FF"/>
<stop offset="1" stop-color="#B3CCFF"/>
</linearGradient>
<linearGradient id="paint3_linear_385_36" x1="119.467" y1="83.1384" x2="170.055" y2="92.0381" gradientUnits="userSpaceOnUse">
<stop stop-color="#E5F3FF"/>
<stop offset="1" stop-color="#B3CCFF"/>
</linearGradient>
<linearGradient id="paint4_linear_385_36" x1="104.01" y1="62.866" x2="156.673" y2="-40.0228" gradientUnits="userSpaceOnUse">
<stop stop-color="#3F3CEE" stop-opacity="0"/>
<stop offset="1" stop-color="#2F43BC"/>
</linearGradient>
<linearGradient id="paint5_linear_385_36" x1="111.595" y1="118.282" x2="75.1316" y2="81.8184" gradientUnits="userSpaceOnUse">
<stop stop-color="#3F3CEE" stop-opacity="0"/>
<stop offset="1" stop-color="#2F43BC"/>
</linearGradient>
<linearGradient id="paint6_linear_385_36" x1="61.0928" y1="57.7005" x2="61.0928" y2="65.7439" gradientUnits="userSpaceOnUse">
<stop stop-color="#F9F7FC"/>
<stop offset="1" stop-color="#F0DDFC"/>
</linearGradient>
<linearGradient id="paint7_linear_385_36" x1="61.0933" y1="62.0533" x2="61.0933" y2="56.4331" gradientUnits="userSpaceOnUse">
<stop stop-color="#E9EDF5" stop-opacity="0"/>
<stop offset="1" stop-color="white"/>
</linearGradient>
<linearGradient id="paint8_linear_385_36" x1="60.0111" y1="61.3222" x2="72.2175" y2="57.6522" gradientUnits="userSpaceOnUse">
<stop stop-color="#F0DDFC" stop-opacity="0"/>
<stop offset="0.2889" stop-color="#C8B7E0" stop-opacity="0.289"/>
<stop offset="0.5915" stop-color="#A595C8" stop-opacity="0.592"/>
<stop offset="0.8395" stop-color="#8F81B8" stop-opacity="0.84"/>
<stop offset="1" stop-color="#8779B3"/>
</linearGradient>
<linearGradient id="paint9_linear_385_36" x1="61.4902" y1="57.8029" x2="60.7708" y2="61.8255" gradientUnits="userSpaceOnUse">
<stop stop-color="#F0DDFC" stop-opacity="0"/>
<stop offset="0.2889" stop-color="#C8B7E0" stop-opacity="0.289"/>
<stop offset="0.5915" stop-color="#A595C8" stop-opacity="0.592"/>
<stop offset="0.8395" stop-color="#8F81B8" stop-opacity="0.84"/>
<stop offset="1" stop-color="#8779B3"/>
</linearGradient>
<linearGradient id="paint10_linear_385_36" x1="70.7885" y1="58.8859" x2="70.7883" y2="66.929" gradientUnits="userSpaceOnUse">
<stop stop-color="#F9F7FC"/>
<stop offset="1" stop-color="#F0DDFC"/>
</linearGradient>
<linearGradient id="paint11_linear_385_36" x1="70.7887" y1="63.2383" x2="70.7885" y2="57.6183" gradientUnits="userSpaceOnUse">
<stop stop-color="#E9EDF5" stop-opacity="0"/>
<stop offset="1" stop-color="white"/>
</linearGradient>
<linearGradient id="paint12_linear_385_36" x1="69.7065" y1="62.5072" x2="81.9127" y2="58.8374" gradientUnits="userSpaceOnUse">
<stop stop-color="#F0DDFC" stop-opacity="0"/>
<stop offset="0.2889" stop-color="#C8B7E0" stop-opacity="0.289"/>
<stop offset="0.5915" stop-color="#A595C8" stop-opacity="0.592"/>
<stop offset="0.8395" stop-color="#8F81B8" stop-opacity="0.84"/>
<stop offset="1" stop-color="#8779B3"/>
</linearGradient>
<linearGradient id="paint13_linear_385_36" x1="71.1857" y1="58.9881" x2="70.4661" y2="63.0108" gradientUnits="userSpaceOnUse">
<stop stop-color="#F0DDFC" stop-opacity="0"/>
<stop offset="0.2889" stop-color="#C8B7E0" stop-opacity="0.289"/>
<stop offset="0.5915" stop-color="#A595C8" stop-opacity="0.592"/>
<stop offset="0.8395" stop-color="#8F81B8" stop-opacity="0.84"/>
<stop offset="1" stop-color="#8779B3"/>
</linearGradient>
<linearGradient id="paint14_linear_385_36" x1="106.245" y1="102.852" x2="98.2015" y2="102.852" gradientUnits="userSpaceOnUse">
<stop stop-color="#F9F7FC"/>
<stop offset="1" stop-color="#F0DDFC"/>
</linearGradient>
<linearGradient id="paint15_linear_385_36" x1="101.892" y1="102.852" x2="107.512" y2="102.852" gradientUnits="userSpaceOnUse">
<stop stop-color="#E9EDF5" stop-opacity="0"/>
<stop offset="1" stop-color="white"/>
</linearGradient>
<linearGradient id="paint16_linear_385_36" x1="102.623" y1="103.934" x2="106.293" y2="91.7278" gradientUnits="userSpaceOnUse">
<stop stop-color="#F0DDFC" stop-opacity="0"/>
<stop offset="0.2889" stop-color="#C8B7E0" stop-opacity="0.289"/>
<stop offset="0.5915" stop-color="#A595C8" stop-opacity="0.592"/>
<stop offset="0.8395" stop-color="#8F81B8" stop-opacity="0.84"/>
<stop offset="1" stop-color="#8779B3"/>
</linearGradient>
<linearGradient id="paint17_linear_385_36" x1="106.142" y1="102.455" x2="102.12" y2="103.174" gradientUnits="userSpaceOnUse">
<stop stop-color="#F0DDFC" stop-opacity="0"/>
<stop offset="0.2889" stop-color="#C8B7E0" stop-opacity="0.289"/>
<stop offset="0.5915" stop-color="#A595C8" stop-opacity="0.592"/>
<stop offset="0.8395" stop-color="#8F81B8" stop-opacity="0.84"/>
<stop offset="1" stop-color="#8779B3"/>
</linearGradient>
<linearGradient id="paint18_linear_385_36" x1="105.059" y1="93.1567" x2="97.0161" y2="93.1567" gradientUnits="userSpaceOnUse">
<stop stop-color="#F9F7FC"/>
<stop offset="1" stop-color="#F0DDFC"/>
</linearGradient>
<linearGradient id="paint19_linear_385_36" x1="100.707" y1="93.1567" x2="106.327" y2="93.1569" gradientUnits="userSpaceOnUse">
<stop stop-color="#E9EDF5" stop-opacity="0"/>
<stop offset="1" stop-color="white"/>
</linearGradient>
<linearGradient id="paint20_linear_385_36" x1="101.438" y1="94.2388" x2="105.108" y2="82.0326" gradientUnits="userSpaceOnUse">
<stop stop-color="#F0DDFC" stop-opacity="0"/>
<stop offset="0.2889" stop-color="#C8B7E0" stop-opacity="0.289"/>
<stop offset="0.5915" stop-color="#A595C8" stop-opacity="0.592"/>
<stop offset="0.8395" stop-color="#8F81B8" stop-opacity="0.84"/>
<stop offset="1" stop-color="#8779B3"/>
</linearGradient>
<linearGradient id="paint21_linear_385_36" x1="104.957" y1="92.7596" x2="100.934" y2="93.4789" gradientUnits="userSpaceOnUse">
<stop stop-color="#F0DDFC" stop-opacity="0"/>
<stop offset="0.2889" stop-color="#C8B7E0" stop-opacity="0.289"/>
<stop offset="0.5915" stop-color="#A595C8" stop-opacity="0.592"/>
<stop offset="0.8395" stop-color="#8F81B8" stop-opacity="0.84"/>
<stop offset="1" stop-color="#8779B3"/>
</linearGradient>
<linearGradient id="paint22_linear_385_36" x1="43.4845" y1="107.69" x2="42.453" y2="114.585" gradientUnits="userSpaceOnUse">
<stop stop-color="#FFDA45"/>
<stop offset="0.3043" stop-color="#FFCE3E"/>
<stop offset="0.8558" stop-color="#FFAE2B"/>
<stop offset="1" stop-color="#FFA425"/>
</linearGradient>
<linearGradient id="paint23_linear_385_36" x1="41.1095" y1="110.471" x2="51.3439" y2="100.015" gradientUnits="userSpaceOnUse">
<stop stop-color="#FFDA45" stop-opacity="0"/>
<stop offset="1" stop-color="#B53759"/>
</linearGradient>
<linearGradient id="paint24_linear_385_36" x1="56.2602" y1="120.466" x2="49.3652" y2="121.497" gradientUnits="userSpaceOnUse">
<stop stop-color="#FFDA45"/>
<stop offset="0.3043" stop-color="#FFCE3E"/>
<stop offset="0.8558" stop-color="#FFAE2B"/>
<stop offset="1" stop-color="#FFA425"/>
</linearGradient>
<linearGradient id="paint25_linear_385_36" x1="53.4787" y1="122.84" x2="63.9344" y2="112.606" gradientUnits="userSpaceOnUse">
<stop stop-color="#FFDA45" stop-opacity="0"/>
<stop offset="1" stop-color="#B53759"/>
</linearGradient>
<linearGradient id="paint26_linear_385_36" x1="68.8534" y1="62.4462" x2="58.1538" y2="80.3311" gradientUnits="userSpaceOnUse">
<stop stop-color="#FFDA45"/>
<stop offset="0.3043" stop-color="#FFCE3E"/>
<stop offset="0.8558" stop-color="#FFAE2B"/>
<stop offset="1" stop-color="#FFA425"/>
</linearGradient>
<linearGradient id="paint27_linear_385_36" x1="60.4981" y1="74.116" x2="82.4935" y2="41.3363" gradientUnits="userSpaceOnUse">
<stop stop-color="#FFDA45" stop-opacity="0"/>
<stop offset="1" stop-color="#B53759"/>
</linearGradient>
<linearGradient id="paint28_linear_385_36" x1="55.0468" y1="68.4328" x2="65.6754" y2="81.7624" gradientUnits="userSpaceOnUse">
<stop stop-color="#F0DDFC" stop-opacity="0"/>
<stop offset="0.2889" stop-color="#C8B7E0" stop-opacity="0.289"/>
<stop offset="0.5915" stop-color="#A595C8" stop-opacity="0.592"/>
<stop offset="0.8395" stop-color="#8F81B8" stop-opacity="0.84"/>
<stop offset="1" stop-color="#8779B3"/>
</linearGradient>
<linearGradient id="paint29_linear_385_36" x1="60.9817" y1="71.781" x2="56.5386" y2="80.0326" gradientUnits="userSpaceOnUse">
<stop stop-color="#FFDA45" stop-opacity="0"/>
<stop offset="1" stop-color="#B53759"/>
</linearGradient>
<linearGradient id="paint30_linear_385_36" x1="101.499" y1="95.0917" x2="83.6143" y2="105.792" gradientUnits="userSpaceOnUse">
<stop stop-color="#FFDA45"/>
<stop offset="0.3043" stop-color="#FFCE3E"/>
<stop offset="0.8558" stop-color="#FFAE2B"/>
<stop offset="1" stop-color="#FFA425"/>
</linearGradient>
<linearGradient id="paint31_linear_385_36" x1="91.9801" y1="102.004" x2="124.76" y2="80.0084" gradientUnits="userSpaceOnUse">
<stop stop-color="#FFDA45" stop-opacity="0"/>
<stop offset="1" stop-color="#B53759"/>
</linearGradient>
<linearGradient id="paint32_linear_385_36" x1="96.7628" y1="109.895" x2="83.4335" y2="99.267" gradientUnits="userSpaceOnUse">
<stop stop-color="#FFDA45" stop-opacity="0"/>
<stop offset="1" stop-color="#B53759"/>
</linearGradient>
<linearGradient id="paint33_linear_385_36" x1="92.1642" y1="102.963" x2="83.9129" y2="107.407" gradientUnits="userSpaceOnUse">
<stop stop-color="#FFDA45" stop-opacity="0"/>
<stop offset="1" stop-color="#B53759"/>
</linearGradient>
<linearGradient id="paint34_linear_385_36" x1="75.6985" y1="82.3932" x2="84.7442" y2="91.4389" gradientUnits="userSpaceOnUse">
<stop stop-color="#E5F3FF"/>
<stop offset="1" stop-color="#B3CCFF"/>
</linearGradient>
<linearGradient id="paint35_linear_385_36" x1="81.9664" y1="88.2988" x2="69.0949" y2="76.8062" gradientUnits="userSpaceOnUse">
<stop stop-color="#E5F3FF" stop-opacity="0"/>
<stop offset="1" stop-color="white"/>
</linearGradient>
<linearGradient id="paint36_linear_385_36" x1="77.9814" y1="96.9489" x2="98.0108" y2="-42.8675" gradientUnits="userSpaceOnUse">
<stop stop-color="#B3CCFF" stop-opacity="0"/>
<stop offset="1" stop-color="#9FB0CB"/>
</linearGradient>
<linearGradient id="paint37_linear_385_36" x1="99.4257" y1="56.2773" x2="107.303" y2="68.6561" gradientUnits="userSpaceOnUse">
<stop stop-color="#8B788A"/>
<stop offset="1" stop-color="#6E566E"/>
</linearGradient>
<linearGradient id="paint38_linear_385_36" x1="103.401" y1="62.5021" x2="101.315" y2="55.2747" gradientUnits="userSpaceOnUse">
<stop stop-color="#8B788A" stop-opacity="0"/>
<stop offset="1" stop-color="#9E8C92"/>
</linearGradient>
<linearGradient id="paint39_linear_385_36" x1="105.019" y1="64.1389" x2="109.97" y2="51.3987" gradientUnits="userSpaceOnUse">
<stop stop-color="#555A66" stop-opacity="0"/>
<stop offset="1" stop-color="#555A66"/>
</linearGradient>
<linearGradient id="paint40_linear_385_36" x1="53.4145" y1="110.04" x2="54.487" y2="111.113" gradientUnits="userSpaceOnUse">
<stop stop-color="#E5F3FF"/>
<stop offset="1" stop-color="#B3CCFF"/>
</linearGradient>
<linearGradient id="paint41_linear_385_36" x1="0" y1="71.1885" x2="135.409" y2="71.1885" gradientUnits="userSpaceOnUse">
<stop stop-color="#FF7044"/>
<stop offset="1" stop-color="#F92814"/>
</linearGradient>
<linearGradient id="paint42_linear_385_36" x1="49.0163" y1="23.1092" x2="53.6038" y2="27.6963" gradientUnits="userSpaceOnUse">
<stop stop-color="#FF7044"/>
<stop offset="1" stop-color="#F92814"/>
</linearGradient>
<linearGradient id="paint43_linear_385_36" x1="25.388" y1="52.4993" x2="30.3908" y2="57.5025" gradientUnits="userSpaceOnUse">
<stop stop-color="#92F37F"/>
<stop offset="1" stop-color="#4AB272"/>
</linearGradient>
<linearGradient id="paint44_linear_385_36" x1="138.139" y1="62.3427" x2="145.316" y2="69.5204" gradientUnits="userSpaceOnUse">
<stop stop-color="#92F37F"/>
<stop offset="1" stop-color="#4AB272"/>
</linearGradient>
<clipPath id="clip0_385_36">
<rect width="152" height="152" fill="white"/>
</clipPath>
</defs>
</svg>
