<svg width="131" height="239" viewBox="0 0 131 239" fill="none" xmlns="http://www.w3.org/2000/svg">
<path d="M13.8805 191.1V187.998L21.1291 181.286C21.7456 180.69 22.2627 180.153 22.6803 179.675C23.1045 179.198 23.426 178.731 23.6448 178.273C23.8635 177.809 23.9729 177.309 23.9729 176.772C23.9729 176.175 23.837 175.662 23.5652 175.231C23.2934 174.793 22.9222 174.459 22.4516 174.227C21.9809 173.988 21.4473 173.869 20.8507 173.869C20.2276 173.869 19.6841 173.995 19.22 174.246C18.756 174.498 18.3981 174.86 18.1462 175.33C17.8943 175.801 17.7683 176.361 17.7683 177.011H13.6817C13.6817 175.678 13.9833 174.521 14.5865 173.54C15.1897 172.559 16.0349 171.8 17.122 171.263C18.2091 170.727 19.462 170.458 20.8805 170.458C22.3389 170.458 23.6083 170.717 24.6888 171.234C25.7759 171.744 26.6211 172.453 27.2243 173.361C27.8275 174.27 28.1291 175.31 28.1291 176.484C28.1291 177.253 27.9767 178.012 27.6717 178.761C27.3734 179.51 26.8398 180.342 26.0709 181.256C25.302 182.164 24.2181 183.255 22.8195 184.528L19.8465 187.441V187.58H28.3976V191.1H13.8805ZM38.9548 191.379C37.5495 191.379 36.2966 191.12 35.1962 190.603C34.1025 190.086 33.2341 189.373 32.5911 188.465C31.9481 187.557 31.6134 186.516 31.5869 185.343H35.763C35.8094 186.132 36.1408 186.771 36.7573 187.262C37.3738 187.753 38.1063 187.998 38.9548 187.998C39.6309 187.998 40.2275 187.849 40.7445 187.55C41.2682 187.245 41.6759 186.825 41.9676 186.288C42.2658 185.744 42.415 185.121 42.415 184.418C42.415 183.702 42.2625 183.073 41.9576 182.529C41.6593 181.986 41.245 181.561 40.7147 181.256C40.1844 180.951 39.5779 180.796 38.8951 180.789C38.2985 180.789 37.7185 180.912 37.1551 181.157C36.5982 181.402 36.164 181.737 35.8525 182.161L32.0244 181.475L32.9889 170.736H45.4377V174.256H36.5386L36.0116 179.357H36.1309C36.4889 178.853 37.0291 178.436 37.7516 178.104C38.4742 177.773 39.2829 177.607 40.1778 177.607C41.4041 177.607 42.4979 177.896 43.459 178.472C44.4202 179.049 45.1792 179.841 45.736 180.849C46.2928 181.85 46.5679 183.003 46.5613 184.309C46.5679 185.681 46.2497 186.901 45.6068 187.968C44.9704 189.029 44.0788 189.864 42.932 190.474C41.7919 191.077 40.4661 191.379 38.9548 191.379ZM55.6494 187.998V173.918H59.209V187.998H55.6494ZM50.3894 182.738V179.178H64.469V182.738H50.3894ZM73.7713 178.882H76.6648L79.4509 184.144H79.5702L82.3563 178.882H85.2497L80.7932 186.781V191.1H78.2278V186.781L73.7713 178.882ZM88.8695 191.279C87.9269 191.279 87.1156 191.088 86.4354 190.706C85.7593 190.321 85.2383 189.776 84.8724 189.072C84.5065 188.364 84.3235 187.527 84.3235 186.56C84.3235 185.617 84.5065 184.79 84.8724 184.078C85.2383 183.366 85.7533 182.811 86.4176 182.414C87.0857 182.016 87.8693 181.817 88.7681 181.817C89.3727 181.817 89.9354 181.915 90.4565 182.109C90.9815 182.3 91.4389 182.589 91.8286 182.975C92.2224 183.36 92.5286 183.846 92.7474 184.43C92.9661 185.011 93.0755 185.691 93.0755 186.471V187.169H85.3377V185.594H90.6832C90.6832 185.228 90.6036 184.904 90.4445 184.621C90.2854 184.339 90.0647 184.118 89.7823 183.959C89.5039 183.796 89.1798 183.714 88.8099 183.714C88.4241 183.714 88.082 183.804 87.7837 183.983C87.4894 184.158 87.2587 184.394 87.0917 184.693C86.9247 184.987 86.8391 185.315 86.8352 185.677V187.175C86.8352 187.628 86.9187 188.02 87.0857 188.35C87.2568 188.68 87.4974 188.934 87.8076 189.113C88.1178 189.292 88.4857 189.382 88.9113 189.382C89.1937 189.382 89.4522 189.342 89.6869 189.263C89.9215 189.183 90.1224 189.064 90.2894 188.905C90.4565 188.746 90.5837 188.551 90.6712 188.32L93.0218 188.475C92.9025 189.04 92.6579 189.533 92.288 189.955C91.9221 190.372 91.4488 190.698 90.8681 190.933C90.2914 191.164 89.6252 191.279 88.8695 191.279ZM97.3471 191.273C96.7624 191.273 96.2414 191.172 95.784 190.969C95.3266 190.762 94.9647 190.458 94.6982 190.056C94.4357 189.65 94.3045 189.145 94.3045 188.541C94.3045 188.032 94.398 187.604 94.5849 187.258C94.7718 186.912 95.0264 186.634 95.3485 186.423C95.6707 186.212 96.0366 186.053 96.4462 185.946C96.8599 185.838 97.2934 185.763 97.7468 185.719C98.2798 185.663 98.7093 185.611 99.0355 185.564C99.3616 185.512 99.5982 185.436 99.7454 185.337C99.8926 185.238 99.9661 185.09 99.9661 184.896V184.86C99.9661 184.482 99.8468 184.19 99.6082 183.983C99.3735 183.776 99.0394 183.673 98.6059 183.673C98.1485 183.673 97.7846 183.774 97.5141 183.977C97.2437 184.176 97.0647 184.426 96.9772 184.729L94.6266 184.538C94.746 183.981 94.9806 183.5 95.3306 183.094C95.6806 182.684 96.132 182.37 96.6849 182.151C97.2417 181.929 97.886 181.817 98.6178 181.817C99.1269 181.817 99.6141 181.877 100.079 181.996C100.549 182.115 100.964 182.3 101.326 182.551C101.692 182.802 101.981 183.124 102.191 183.517C102.402 183.907 102.508 184.375 102.508 184.919V191.1H100.097V189.829H100.026C99.8786 190.116 99.6818 190.368 99.4352 190.587C99.1886 190.802 98.8923 190.971 98.5462 191.094C98.2002 191.213 97.8005 191.273 97.3471 191.273ZM98.0749 189.519C98.4488 189.519 98.7789 189.446 99.0653 189.298C99.3516 189.147 99.5764 188.944 99.7394 188.69C99.9025 188.435 99.984 188.147 99.984 187.825V186.852C99.9045 186.904 99.7951 186.952 99.6559 186.996C99.5207 187.035 99.3676 187.073 99.1965 187.109C99.0255 187.141 98.8545 187.171 98.6835 187.198C98.5124 187.222 98.3573 187.244 98.2181 187.264C97.9198 187.308 97.6593 187.377 97.4366 187.473C97.2139 187.568 97.0408 187.698 96.9176 187.861C96.7943 188.02 96.7326 188.219 96.7326 188.457C96.7326 188.803 96.8579 189.068 97.1085 189.251C97.363 189.43 97.6852 189.519 98.0749 189.519ZM104.479 191.1V181.936H106.943V183.535H107.039C107.206 182.967 107.486 182.537 107.88 182.247C108.274 181.952 108.727 181.805 109.24 181.805C109.367 181.805 109.505 181.813 109.652 181.829C109.799 181.845 109.928 181.867 110.04 181.895V184.15C109.92 184.114 109.755 184.082 109.544 184.054C109.334 184.027 109.141 184.013 108.966 184.013C108.592 184.013 108.258 184.094 107.963 184.257C107.673 184.416 107.442 184.639 107.271 184.925C107.104 185.212 107.021 185.542 107.021 185.916V191.1H104.479ZM118.978 184.55L116.651 184.693C116.612 184.494 116.526 184.315 116.395 184.156C116.264 183.993 116.09 183.863 115.876 183.768C115.665 183.669 115.412 183.619 115.118 183.619C114.724 183.619 114.392 183.702 114.122 183.869C113.851 184.032 113.716 184.251 113.716 184.526C113.716 184.744 113.804 184.929 113.979 185.08C114.154 185.232 114.454 185.353 114.879 185.444L116.538 185.779C117.429 185.961 118.093 186.256 118.531 186.661C118.968 187.067 119.187 187.6 119.187 188.26C119.187 188.861 119.01 189.388 118.656 189.841C118.306 190.295 117.825 190.649 117.212 190.903C116.604 191.154 115.902 191.279 115.106 191.279C113.893 191.279 112.927 191.027 112.207 190.521C111.491 190.012 111.071 189.32 110.948 188.445L113.448 188.314C113.523 188.684 113.706 188.966 113.996 189.161C114.287 189.352 114.659 189.448 115.112 189.448C115.558 189.448 115.915 189.362 116.186 189.191C116.46 189.016 116.6 188.791 116.604 188.517C116.6 188.286 116.502 188.097 116.311 187.95C116.12 187.799 115.826 187.684 115.428 187.604L113.841 187.288C112.946 187.109 112.28 186.799 111.843 186.357C111.409 185.916 111.192 185.353 111.192 184.669C111.192 184.08 111.352 183.573 111.67 183.148C111.992 182.722 112.443 182.394 113.024 182.163C113.609 181.932 114.293 181.817 115.076 181.817C116.234 181.817 117.144 182.062 117.809 182.551C118.477 183.04 118.867 183.706 118.978 184.55ZM14.5955 226.279C13.6688 226.279 12.8673 226.082 12.1912 225.688C11.519 225.291 11 224.738 10.6341 224.03C10.2682 223.318 10.0852 222.493 10.0852 221.554C10.0852 220.607 10.2682 219.78 10.6341 219.072C11 218.36 11.519 217.807 12.1912 217.414C12.8673 217.016 13.6688 216.817 14.5955 216.817C15.5222 216.817 16.3216 217.016 16.9938 217.414C17.6699 217.807 18.1909 218.36 18.5568 219.072C18.9227 219.78 19.1057 220.607 19.1057 221.554C19.1057 222.493 18.9227 223.318 18.5568 224.03C18.1909 224.738 17.6699 225.291 16.9938 225.688C16.3216 226.082 15.5222 226.279 14.5955 226.279ZM14.6074 224.31C15.029 224.31 15.381 224.191 15.6634 223.952C15.9458 223.71 16.1585 223.38 16.3017 222.962C16.4489 222.544 16.5225 222.069 16.5225 221.536C16.5225 221.003 16.4489 220.528 16.3017 220.11C16.1585 219.693 15.9458 219.363 15.6634 219.12C15.381 218.877 15.029 218.756 14.6074 218.756C14.1818 218.756 13.8239 218.877 13.5335 219.12C13.2472 219.363 13.0304 219.693 12.8833 220.11C12.7401 220.528 12.6685 221.003 12.6685 221.536C12.6685 222.069 12.7401 222.544 12.8833 222.962C13.0304 223.38 13.2472 223.71 13.5335 223.952C13.8239 224.191 14.1818 224.31 14.6074 224.31ZM25.6861 216.936V218.846H20.0304V216.936H25.6861ZM21.325 226.1V216.274C21.325 215.61 21.4543 215.059 21.7128 214.622C21.9753 214.184 22.3333 213.856 22.7867 213.637C23.2401 213.419 23.7551 213.309 24.3318 213.309C24.7216 213.309 25.0776 213.339 25.3997 213.399C25.7259 213.458 25.9685 213.512 26.1276 213.56L25.6742 215.469C25.5747 215.437 25.4514 215.407 25.3043 215.379C25.1611 215.352 25.0139 215.338 24.8628 215.338C24.4889 215.338 24.2284 215.425 24.0813 215.6C23.9341 215.771 23.8605 216.012 23.8605 216.322V226.1H21.325ZM31.1747 226.1V213.882H39.4077V216.012H33.758V218.923H38.9841V221.053H33.758V223.97H39.4315V226.1H31.1747ZM43.5376 216.936L45.22 220.14L46.9441 216.936H49.5512L46.8964 221.518L49.6228 226.1H47.0276L45.22 222.932L43.4421 226.1H40.8171L43.5376 221.518L40.9126 216.936H43.5376ZM51.0606 229.536V216.936H53.5663V218.476H53.6796C53.791 218.229 53.9521 217.979 54.1629 217.724C54.3776 217.465 54.656 217.251 54.9981 217.08C55.3441 216.905 55.7737 216.817 56.2867 216.817C56.9549 216.817 57.5714 216.992 58.1362 217.342C58.7009 217.688 59.1524 218.211 59.4904 218.911C59.8285 219.607 59.9975 220.48 59.9975 221.53C59.9975 222.552 59.8325 223.415 59.5024 224.119C59.1762 224.819 58.7308 225.35 58.166 225.712C57.6052 226.07 56.9768 226.249 56.2808 226.249C55.7876 226.249 55.368 226.168 55.022 226.005C54.6799 225.842 54.3995 225.637 54.1808 225.39C53.962 225.14 53.795 224.887 53.6796 224.632H53.6021V229.536H51.0606ZM53.5484 221.518C53.5484 222.063 53.6239 222.538 53.7751 222.944C53.9262 223.35 54.145 223.666 54.4313 223.893C54.7177 224.115 55.0657 224.227 55.4754 224.227C55.889 224.227 56.239 224.113 56.5254 223.887C56.8117 223.656 57.0285 223.338 57.1756 222.932C57.3268 222.523 57.4024 222.051 57.4024 221.518C57.4024 220.989 57.3288 220.524 57.1816 220.122C57.0345 219.721 56.8177 219.406 56.5313 219.18C56.245 218.953 55.893 218.84 55.4754 218.84C55.0617 218.84 54.7117 218.949 54.4254 219.168C54.143 219.386 53.9262 219.697 53.7751 220.098C53.6239 220.5 53.5484 220.973 53.5484 221.518ZM65.868 226.279C64.9254 226.279 64.114 226.088 63.4339 225.706C62.7578 225.321 62.2367 224.776 61.8708 224.072C61.5049 223.364 61.322 222.527 61.322 221.56C61.322 220.617 61.5049 219.79 61.8708 219.078C62.2367 218.366 62.7518 217.811 63.416 217.414C64.0842 217.016 64.8677 216.817 65.7666 216.817C66.3711 216.817 66.9339 216.915 67.4549 217.109C67.9799 217.3 68.4373 217.589 68.8271 217.975C69.2208 218.36 69.5271 218.846 69.7458 219.43C69.9646 220.011 70.0739 220.691 70.0739 221.471V222.169H62.3362V220.594H67.6816C67.6816 220.228 67.6021 219.904 67.443 219.621C67.2839 219.339 67.0632 219.118 66.7808 218.959C66.5024 218.796 66.1782 218.714 65.8083 218.714C65.4225 218.714 65.0805 218.804 64.7822 218.983C64.4879 219.158 64.2572 219.394 64.0901 219.693C63.9231 219.987 63.8376 220.315 63.8336 220.677V222.175C63.8336 222.628 63.9171 223.02 64.0842 223.35C64.2552 223.68 64.4958 223.934 64.806 224.113C65.1163 224.292 65.4842 224.382 65.9097 224.382C66.1921 224.382 66.4507 224.342 66.6853 224.263C66.92 224.183 67.1208 224.064 67.2879 223.905C67.4549 223.746 67.5822 223.551 67.6697 223.32L70.0203 223.475C69.9009 224.04 69.6563 224.533 69.2864 224.955C68.9205 225.372 68.4472 225.698 67.8666 225.933C67.2899 226.164 66.6237 226.279 65.868 226.279ZM71.7325 226.1V216.936H74.1964V218.535H74.2918C74.4589 217.967 74.7393 217.537 75.133 217.247C75.5268 216.952 75.9802 216.805 76.4933 216.805C76.6205 216.805 76.7578 216.813 76.9049 216.829C77.0521 216.845 77.1813 216.867 77.2927 216.895V219.15C77.1734 219.114 77.0083 219.082 76.7975 219.054C76.5867 219.027 76.3938 219.013 76.2188 219.013C75.845 219.013 75.5109 219.094 75.2166 219.257C74.9262 219.416 74.6955 219.639 74.5245 219.925C74.3575 220.212 74.2739 220.542 74.2739 220.916V226.1H71.7325ZM78.6067 226.1V216.936H81.1482V226.1H78.6067ZM79.8834 215.755C79.5056 215.755 79.1814 215.63 78.9109 215.379C78.6445 215.125 78.5112 214.821 78.5112 214.467C78.5112 214.117 78.6445 213.816 78.9109 213.566C79.1814 213.311 79.5056 213.184 79.8834 213.184C80.2612 213.184 80.5834 213.311 80.8499 213.566C81.1203 213.816 81.2556 214.117 81.2556 214.467C81.2556 214.821 81.1203 215.125 80.8499 215.379C80.5834 215.63 80.2612 215.755 79.8834 215.755ZM87.3602 226.279C86.4176 226.279 85.6062 226.088 84.9261 225.706C84.2499 225.321 83.7289 224.776 83.363 224.072C82.9971 223.364 82.8141 222.527 82.8141 221.56C82.8141 220.617 82.9971 219.79 83.363 219.078C83.7289 218.366 84.244 217.811 84.9082 217.414C85.5764 217.016 86.3599 216.817 87.2588 216.817C87.8633 216.817 88.4261 216.915 88.9471 217.109C89.4721 217.3 89.9295 217.589 90.3193 217.975C90.713 218.36 91.0193 218.846 91.238 219.43C91.4568 220.011 91.5661 220.691 91.5661 221.471V222.169H83.8284V220.594H89.1738C89.1738 220.228 89.0943 219.904 88.9352 219.621C88.7761 219.339 88.5553 219.118 88.273 218.959C87.9945 218.796 87.6704 218.714 87.3005 218.714C86.9147 218.714 86.5727 218.804 86.2744 218.983C85.9801 219.158 85.7494 219.394 85.5823 219.693C85.4153 219.987 85.3298 220.315 85.3258 220.677V222.175C85.3258 222.628 85.4093 223.02 85.5764 223.35C85.7474 223.68 85.988 223.934 86.2982 224.113C86.6085 224.292 86.9764 224.382 87.4019 224.382C87.6843 224.382 87.9428 224.342 88.1775 224.263C88.4122 224.183 88.613 224.064 88.7801 223.905C88.9471 223.746 89.0744 223.551 89.1619 223.32L91.5124 223.475C91.3931 224.04 91.1485 224.533 90.7786 224.955C90.4127 225.372 89.9394 225.698 89.3588 225.933C88.782 226.164 88.1159 226.279 87.3602 226.279ZM95.7661 220.802V226.1H93.2247V216.936H95.6468V218.553H95.7542C95.957 218.02 96.2971 217.599 96.7744 217.288C97.2516 216.974 97.8303 216.817 98.5104 216.817C99.1468 216.817 99.7016 216.956 100.175 217.235C100.648 217.513 101.016 217.911 101.279 218.428C101.541 218.941 101.672 219.554 101.672 220.265V226.1H99.1309V220.719C99.1349 220.158 98.9917 219.721 98.7014 219.406C98.411 219.088 98.0113 218.929 97.5022 218.929C97.1602 218.929 96.8579 219.003 96.5954 219.15C96.3369 219.297 96.134 219.512 95.9869 219.794C95.8437 220.073 95.7701 220.409 95.7661 220.802ZM107.816 226.279C106.877 226.279 106.07 226.08 105.394 225.682C104.721 225.281 104.204 224.724 103.842 224.012C103.485 223.3 103.306 222.481 103.306 221.554C103.306 220.615 103.487 219.792 103.848 219.084C104.214 218.372 104.733 217.817 105.406 217.42C106.078 217.018 106.877 216.817 107.804 216.817C108.603 216.817 109.303 216.962 109.904 217.253C110.504 217.543 110.98 217.951 111.33 218.476C111.68 219.001 111.873 219.617 111.908 220.325H109.51C109.442 219.868 109.263 219.5 108.973 219.221C108.687 218.939 108.311 218.798 107.846 218.798C107.452 218.798 107.108 218.905 106.813 219.12C106.523 219.331 106.296 219.639 106.133 220.045C105.97 220.45 105.889 220.942 105.889 221.518C105.889 222.103 105.968 222.6 106.127 223.01C106.29 223.419 106.519 223.732 106.813 223.946C107.108 224.161 107.452 224.269 107.846 224.269C108.136 224.269 108.396 224.209 108.627 224.09C108.862 223.97 109.055 223.797 109.206 223.571C109.361 223.34 109.462 223.063 109.51 222.741H111.908C111.869 223.441 111.678 224.058 111.336 224.591C110.998 225.12 110.53 225.533 109.934 225.832C109.337 226.13 108.631 226.279 107.816 226.279ZM117.712 226.279C116.769 226.279 115.958 226.088 115.278 225.706C114.602 225.321 114.08 224.776 113.715 224.072C113.349 223.364 113.166 222.527 113.166 221.56C113.166 220.617 113.349 219.79 113.715 219.078C114.08 218.366 114.596 217.811 115.26 217.414C115.928 217.016 116.711 216.817 117.61 216.817C118.215 216.817 118.778 216.915 119.299 217.109C119.824 217.3 120.281 217.589 120.671 217.975C121.065 218.36 121.371 218.846 121.59 219.43C121.808 220.011 121.918 220.691 121.918 221.471V222.169H114.18V220.594H119.525C119.525 220.228 119.446 219.904 119.287 219.621C119.128 219.339 118.907 219.118 118.625 218.959C118.346 218.796 118.022 218.714 117.652 218.714C117.266 218.714 116.924 218.804 116.626 218.983C116.332 219.158 116.101 219.394 115.934 219.693C115.767 219.987 115.681 220.315 115.677 220.677V222.175C115.677 222.628 115.761 223.02 115.928 223.35C116.099 223.68 116.34 223.934 116.65 224.113C116.96 224.292 117.328 224.382 117.753 224.382C118.036 224.382 118.294 224.342 118.529 224.263C118.764 224.183 118.965 224.064 119.132 223.905C119.299 223.746 119.426 223.551 119.513 223.32L121.864 223.475C121.745 224.04 121.5 224.533 121.13 224.955C120.764 225.372 120.291 225.698 119.71 225.933C119.134 226.164 118.467 226.279 117.712 226.279Z" fill="white"/>
<path d="M20.1292 21.4955L24.2942 30.0895L33.7425 31.373C35.6153 31.6241 36.2862 33.94 35.0004 35.1677L28.0959 41.7806L29.801 51.1559C30.1365 52.9975 28.1797 54.3926 26.5584 53.4997L18.1445 48.9795L9.7305 53.4997C8.1092 54.3647 6.06861 53.0254 6.51586 51.0164L8.19306 41.7527L1.28858 35.1398C-0.0531849 33.8563 0.673603 31.5683 2.57443 31.3172L11.9947 30.0337L16.1598 21.4397C16.9425 19.7934 19.3465 19.8213 20.1292 21.4955ZM20.8 33.1029L18.1445 27.5782L15.4609 33.1029C15.1535 33.7447 14.5105 34.2469 13.7558 34.3586L7.6899 35.1677L12.1345 39.4089C12.6377 39.9112 12.9172 40.6366 12.7774 41.39L11.6872 47.417L17.0543 44.543C17.6972 44.2082 18.5079 44.1524 19.1787 44.543L24.5737 47.4449L23.5115 41.5295C23.3438 40.8041 23.5395 39.9949 24.1265 39.4089L28.5711 35.1677L22.5611 34.3586C21.8343 34.2748 21.1355 33.8005 20.8 33.1029ZM67.7058 1.2661L71.8709 9.8601L81.3471 11.1436C83.22 11.3947 83.8908 13.7106 82.605 14.9663L75.7005 21.5792L77.4056 30.9544C77.7411 32.796 75.7844 34.1911 74.1631 33.2983L65.6932 28.778L57.2792 33.2983C55.6579 34.1632 53.6173 32.8239 54.0646 30.8149L55.7418 21.5513L48.8093 14.9384C47.4676 13.6548 48.1944 11.3668 50.0952 11.1157L59.5155 9.83219L63.6805 1.2661C64.5191 -0.435956 66.8952 -0.408054 67.7058 1.2661ZM68.3767 12.8736L65.6932 7.34886L63.0376 12.8736C62.7301 13.5153 62.0872 14.0176 61.3324 14.1292L55.2386 14.9384L59.6832 19.1796C60.2143 19.6818 60.4659 20.4073 60.3261 21.1606L59.2359 27.1876L64.631 24.3136C65.2739 23.9788 66.0566 23.923 66.7554 24.3136L72.1504 27.2155L71.0882 21.3002C70.9205 20.5747 71.1161 19.7655 71.7032 19.1796L76.1478 14.9384L70.1378 14.1013C69.383 14.0455 68.7121 13.5711 68.3767 12.8736ZM115.255 21.4955L119.42 30.0895L128.868 31.373C130.741 31.6241 131.44 33.94 130.126 35.1677L123.221 41.7806L124.926 51.1559C125.262 52.9975 123.305 54.3926 121.684 53.4997L113.27 48.9795L104.856 53.4997C103.235 54.3647 101.194 53.0254 101.613 51.0164L103.29 41.7527L96.386 35.1398C95.0442 33.8563 95.771 31.5683 97.6719 31.3172L107.092 30.0337L111.257 21.4397C112.068 19.7934 114.472 19.8213 115.255 21.4955ZM115.925 33.1029L113.27 27.5782L110.586 33.1029C110.279 33.7447 109.664 34.2469 108.881 34.3586L102.815 35.1677L107.232 39.4089C107.735 39.9112 108.015 40.6366 107.875 41.39L106.785 47.417L112.18 44.543C112.823 44.2082 113.633 44.1524 114.304 44.543L119.727 47.4449L118.665 41.5295C118.497 40.8041 118.693 39.9949 119.28 39.4089L123.696 35.1677L117.686 34.3586C116.96 34.2748 116.261 33.8005 115.925 33.1029ZM55.3225 78.4725C54.7075 77.4122 55.0709 76.045 56.1331 75.4311C57.1954 74.8173 58.5651 75.18 59.18 76.2403L62.1151 81.3186L72.5418 70.9109C73.4083 70.046 74.8339 70.046 75.7005 70.9109C76.567 71.7759 76.567 73.1989 75.7005 74.0639L63.2053 86.5364C62.1711 87.5688 60.4379 87.3455 59.7112 86.0899L55.3225 78.4725ZM65.6932 54.8949C77.8529 54.8949 87.7204 64.7445 87.7204 76.8821C87.7204 89.0197 77.8529 98.8693 65.6932 98.8693C53.5335 98.8693 43.6659 89.0197 43.6659 76.8821C43.6659 64.7445 53.5335 54.8949 65.6932 54.8949ZM78.1045 64.4933C71.2559 57.6572 60.1305 57.6572 53.2819 64.4933C46.4333 71.3295 46.4333 82.4347 53.2819 89.2708C60.1305 96.107 71.2559 96.107 78.1045 89.2708C84.9531 82.4068 84.9531 71.3295 78.1045 64.4933ZM65.6932 41.0831C85.4842 41.0831 101.529 57.0992 101.529 76.8542C101.529 84.3321 99.2372 91.2798 95.2958 97.0277L106.002 115.527C107.036 117.257 105.611 119.21 103.766 118.931L92.808 117.201L86.9378 124.4C85.9035 125.739 83.9747 125.516 83.22 124.177L75.7284 111.23C69.1874 113.128 62.1711 113.128 55.6579 111.23L48.1664 124.177C47.4117 125.516 45.4829 125.739 44.4486 124.4L38.5784 117.201L27.6207 118.931C25.7478 119.238 24.434 117.201 25.3285 115.611L36.0905 97.0277C26.3628 82.8253 28.1797 63.7121 40.3674 51.5465C46.8246 45.101 55.7977 41.0831 65.6932 41.0831ZM92.3328 100.795C88.9224 104.589 84.7294 107.631 79.9774 109.696L85.4562 119.154L90.1524 113.407C90.6835 112.737 91.4942 112.486 92.2769 112.625L99.8243 113.825L92.3328 100.795ZM51.381 109.696C46.6569 107.631 42.4639 104.589 39.0536 100.822L31.5341 113.825L39.0816 112.625C39.8363 112.486 40.6749 112.765 41.206 113.407L45.9022 119.154L51.381 109.696ZM87.8882 54.7274C75.6446 42.5061 55.7697 42.5061 43.5261 54.7274C31.2826 66.9488 31.2826 86.7875 43.5261 99.0088C55.7977 111.23 75.6446 111.23 87.8882 99.0088C100.132 86.7875 100.132 66.9488 87.8882 54.7274Z" fill="white"/>
</svg>
