<svg width="500" height="500" viewBox="0 0 500 500" fill="none" xmlns="http://www.w3.org/2000/svg">
<path d="M72.3297 151.33H54.6797C54.6797 151.33 56.4397 146.96 70.1697 148.41C70.1697 148.41 77.0097 140.58 86.9797 140.58C87.1713 138.728 87.9774 136.993 89.2696 135.651C90.5618 134.31 92.2656 133.44 94.1097 133.18C100.92 131.87 102.24 137.94 102.24 137.94C104.099 137.136 106.104 136.721 108.13 136.721C110.156 136.721 112.16 137.136 114.02 137.94C120.77 140.6 119.4 148.39 119.4 148.39C119.4 148.39 138.88 147.75 142.23 151.33H132.23" stroke="#263238" stroke-linecap="round" stroke-linejoin="round"/>
<path d="M75.3994 151.33H78.3494" stroke="#263238" stroke-linecap="round" stroke-linejoin="round"/>
<path d="M94.6094 151.28H121.579" stroke="#263238" stroke-linecap="round" stroke-linejoin="round"/>
<path d="M222.77 249.67H197C197 249.67 198.51 245.94 210.22 247.18C210.22 247.18 216.06 240.5 224.56 240.5C224.727 238.919 225.416 237.439 226.519 236.294C227.622 235.149 229.076 234.405 230.65 234.18C236.46 233.07 237.59 238.25 237.59 238.25C239.176 237.563 240.886 237.209 242.615 237.209C244.344 237.209 246.054 237.563 247.64 238.25C253.4 240.52 252.24 247.17 252.24 247.17C252.24 247.17 268.86 246.62 271.71 249.67H265.47" stroke="#263238" stroke-linecap="round" stroke-linejoin="round"/>
<path d="M228.859 249.48H232.549" stroke="#263238" stroke-linecap="round" stroke-linejoin="round"/>
<path d="M220.94 75.77H195.12C195.12 75.77 196.63 72.04 208.34 73.29C208.34 73.29 214.17 66.6 222.68 66.6C222.845 65.0195 223.535 63.5397 224.638 62.3962C225.742 61.2527 227.196 60.5113 228.77 60.29C234.58 59.17 235.71 64.35 235.71 64.35C237.289 63.6705 238.991 63.32 240.71 63.32C242.429 63.32 244.131 63.6705 245.71 64.35C251.47 66.62 250.3 73.27 250.3 73.27C250.3 73.27 266.93 72.72 269.78 75.77H263.54" stroke="#263238" stroke-linecap="round" stroke-linejoin="round"/>
<path d="M227.02 75.5801H230.72" stroke="#263238" stroke-linecap="round" stroke-linejoin="round"/>
<path d="M139.929 296.8H75.5693C80.3693 291.67 108.349 292.58 108.349 292.58C108.349 292.58 106.349 281.4 116.089 277.58C125.829 273.76 133.009 277.58 133.009 277.58C133.009 277.58 134.909 268.86 144.689 270.74C154.469 272.62 154.939 281.37 154.939 281.37C169.269 281.37 179.089 292.63 179.089 292.63C198.809 290.53 201.349 296.81 201.349 296.81H194.159" stroke="#263238" stroke-linecap="round" stroke-linejoin="round"/>
<path d="M188.77 296.8H186.04" stroke="#263238" stroke-linecap="round" stroke-linejoin="round"/>
<path d="M151.069 296.8H160.469" stroke="#263238" stroke-linecap="round" stroke-linejoin="round"/>
<path d="M360.479 142.31H283.479C283.479 142.31 286.669 134.44 311.389 137.07C311.389 137.07 323.709 122.95 341.659 122.95C341.659 122.95 342.259 111.95 354.519 109.62C366.779 107.29 369.159 118.2 369.159 118.2C369.159 118.2 378.219 113.4 390.379 118.2C402.539 123 400.079 137.03 400.079 137.03C400.079 137.03 435.169 135.88 441.189 142.31H423.399" stroke="#263238" stroke-linecap="round" stroke-linejoin="round"/>
<path d="M367.84 142.31H375" stroke="#263238" stroke-linecap="round" stroke-linejoin="round"/>
<path d="M382 316.42H443.41C443.41 316.42 440.87 310.15 421.15 312.24C421.15 312.24 411.33 300.98 397.01 300.98C397.01 300.98 396.53 292.23 386.75 290.35C376.97 288.47 375.07 297.19 375.07 297.19C375.07 297.19 367.85 293.36 358.15 297.19C348.45 301.02 350.42 312.19 350.42 312.19C350.42 312.19 322.42 311.27 317.63 316.4H336.21" stroke="#263238" stroke-linecap="round" stroke-linejoin="round"/>
<path d="M341.229 316.42H350.289" stroke="#263238" stroke-linecap="round" stroke-linejoin="round"/>
<path d="M255.85 340.29V291.94H263.82V311.43H271.66V340.58" stroke="#263238" stroke-linecap="round" stroke-linejoin="round"/>
<path d="M287.04 310.97V265.67H302.98V246.03H333.57V253H341.23V299.12" stroke="#263238" stroke-linecap="round" stroke-linejoin="round"/>
<path d="M375 281.59V236.28H385.26V215.76H389.3V180.49H392.65V197.46L400.88 205.69V226.23H410.29V271.23H418.85V283.63" stroke="#263238" stroke-linecap="round" stroke-linejoin="round"/>
<path d="M345.76 274.99H353.62V225.75H359.94V154.95H362.33V202.47H367.84V252H371.76" stroke="#263238" stroke-linecap="round" stroke-linejoin="round"/>
<path d="M283.48 283.63H276.85V268.99H273.32V283.63H268.38V305.59" stroke="#263238" stroke-linecap="round" stroke-linejoin="round"/>
<path d="M295.84 260.66V226.23H306.59V197.46H310.31V226.23H317.64V241.3" stroke="#263238" stroke-linecap="round" stroke-linejoin="round"/>
<path d="M306.74 265.67H323.85V304.17" stroke="#263238" stroke-linecap="round" stroke-linejoin="round"/>
<path d="M299.419 338.15V315.28H279.939V363.64" stroke="#263238" stroke-linecap="round" stroke-linejoin="round"/>
<path d="M263.82 350.79V344.3H243.9V396.5H238.63" stroke="#263238" stroke-linecap="round" stroke-linejoin="round"/>
<path d="M389.3 251.49H402.76" stroke="#263238" stroke-linecap="round" stroke-linejoin="round"/>
<path d="M389.3 258.59H402.76" stroke="#263238" stroke-linecap="round" stroke-linejoin="round"/>
<path d="M389.3 266.49H401.73" stroke="#263238" stroke-linecap="round" stroke-linejoin="round"/>
<path d="M328.55 249.67H310.31" stroke="#263238" stroke-linecap="round" stroke-linejoin="round"/>
<path d="M293.229 274H314.129" stroke="#263238" stroke-linecap="round" stroke-linejoin="round"/>
<path d="M293.229 278.5H314.129" stroke="#263238" stroke-linecap="round" stroke-linejoin="round"/>
<path d="M293.229 283.63H314.129" stroke="#263238" stroke-linecap="round" stroke-linejoin="round"/>
<path d="M358.76 235.19V281.59" stroke="#263238" stroke-linecap="round" stroke-linejoin="round"/>
<path d="M362.33 235.19V281.59" stroke="#263238" stroke-linecap="round" stroke-linejoin="round"/>
<path d="M122.38 165.73C122.38 165.73 132.94 156.03 140.25 157.19C141.47 157.38 135.2 169.32 135.2 169.32L122.38 165.73Z" fill="#FF4D12"/>
<mask id="mask0_397_327" style="mask-type:luminance" maskUnits="userSpaceOnUse" x="122" y="157" width="19" height="13">
<path d="M122.38 165.73C122.38 165.73 132.94 156.03 140.25 157.19C141.47 157.38 135.2 169.32 135.2 169.32L122.38 165.73Z" fill="white"/>
</mask>
<g mask="url(#mask0_397_327)">
<path opacity="0.5" d="M122.38 165.73C122.38 165.73 132.94 156.03 140.25 157.19C141.47 157.38 135.2 169.32 135.2 169.32L122.38 165.73Z" fill="black" fill-opacity="0.7"/>
</g>
<path d="M122.38 165.73C122.38 165.73 132.94 156.03 140.25 157.19C141.47 157.38 135.2 169.32 135.2 169.32L122.38 165.73Z" stroke="#263238" stroke-linecap="round" stroke-linejoin="round"/>
<path d="M219.11 207.85C219.11 207.85 219.51 239.63 220.69 244.93C221.768 248.864 223.365 252.638 225.44 256.15C225.44 256.15 222 325.78 223.12 329C224.24 332.22 229 354.26 229 354.26L234.54 438.65H232.54C232.54 438.65 225 359 225 356.64C225 354.28 219.07 333.52 219.07 333.52C219.07 333.52 218.28 264.46 219.07 260.52C219.86 256.58 214.43 246.17 214.43 246.17C214.43 246.17 214.5 214.23 212.83 211.06C212.87 211.05 216.34 208.21 219.11 207.85Z" fill="#757575" stroke="#263238" stroke-linecap="round" stroke-linejoin="round"/>
<path d="M140.251 244.93C140.251 244.93 129.511 262.98 132.941 278.93C132.941 278.93 128.851 333.71 127.261 337.27C125.671 340.83 115.001 356.57 111.721 379.49C109.738 393.36 106.729 407.064 102.721 420.49H117.001C117.001 420.49 138.321 353.02 142.691 349.49C147.061 345.96 155.101 322.36 160.781 301.3C160.781 301.3 168.441 338.66 171.491 345.79C174.541 352.92 171.991 373.51 176.351 386.67C180.661 399.67 180.351 420.53 180.351 420.53C180.351 420.53 195.201 424.21 195.061 420.53C194.061 395.07 199.211 373.03 192.841 350.37C189.841 339.79 195.841 277.96 184.901 244.98L140.251 244.93Z" fill="#BFBFBF"/>
<mask id="mask1_397_327" style="mask-type:luminance" maskUnits="userSpaceOnUse" x="102" y="244" width="95" height="179">
<path d="M140.251 244.93C140.251 244.93 129.511 262.98 132.941 278.93C132.941 278.93 128.851 333.71 127.261 337.27C125.671 340.83 115.001 356.57 111.721 379.49C109.738 393.36 106.729 407.064 102.721 420.49H117.001C117.001 420.49 138.321 353.02 142.691 349.49C147.061 345.96 155.101 322.36 160.781 301.3C160.781 301.3 168.441 338.66 171.491 345.79C174.541 352.92 171.991 373.51 176.351 386.67C180.661 399.67 180.351 420.53 180.351 420.53C180.351 420.53 195.201 424.21 195.061 420.53C194.061 395.07 199.211 373.03 192.841 350.37C189.841 339.79 195.841 277.96 184.901 244.98L140.251 244.93Z" fill="white"/>
</mask>
<g mask="url(#mask1_397_327)">
<path opacity="0.3" d="M160.471 296.8C160.471 297.52 160.581 299.34 160.711 301.6C155.031 322.6 147.051 345.9 142.711 349.44C138.371 352.98 117.021 420.44 117.021 420.44H102.761C106.769 407.014 109.778 393.31 111.761 379.44C115.011 356.52 125.761 340.82 127.301 337.25C128.841 333.68 132.941 279 132.941 279C132.117 274.854 132.036 270.594 132.701 266.42C133.461 271.85 136.701 278.59 147.701 280.33C147.029 278.239 146.838 276.023 147.142 273.848C147.447 271.673 148.24 269.595 149.461 267.77C149.461 267.77 147.331 279 156.351 284.26C156.751 284.49 156.621 286.08 156.621 286.08C156.621 286.08 160.431 294.19 160.471 296.8Z" fill="black" fill-opacity="0.7"/>
<path opacity="0.3" d="M186.321 249.5C182.671 251.71 174.761 254.29 157.921 253.61C155.149 255.887 152.826 258.661 151.071 261.79L149.461 260.51C149.461 260.51 141.751 264.9 133.371 262.75C134.803 256.509 137.119 250.505 140.251 244.92H185.001C185.451 246.39 185.901 247.92 186.321 249.5Z" fill="black" fill-opacity="0.7"/>
</g>
<path d="M140.251 244.93C140.251 244.93 129.511 262.98 132.941 278.93C132.941 278.93 128.851 333.71 127.261 337.27C125.671 340.83 115.001 356.57 111.721 379.49C109.738 393.36 106.729 407.064 102.721 420.49H117.001C117.001 420.49 138.321 353.02 142.691 349.49C147.061 345.96 155.101 322.36 160.781 301.3C160.781 301.3 168.441 338.66 171.491 345.79C174.541 352.92 171.991 373.51 176.351 386.67C180.661 399.67 180.351 420.53 180.351 420.53C180.351 420.53 195.201 424.21 195.061 420.53C194.061 395.07 199.211 373.03 192.841 350.37C189.841 339.79 195.841 277.96 184.901 244.98L140.251 244.93Z" stroke="#263238" stroke-linecap="round" stroke-linejoin="round"/>
<path d="M152.25 259.05C152.25 259.05 144.85 273.18 152.9 281.58C152.9 281.58 163.07 291.13 174.04 288.84" stroke="#263238" stroke-linecap="round" stroke-linejoin="round"/>
<path d="M160.8 301.25C160.8 301.25 159.8 293.55 157.89 290.25C155.98 286.95 156.62 286.05 156.62 286.05C156.62 286.05 147.96 288.72 142.36 286.68" stroke="#263238" stroke-linecap="round" stroke-linejoin="round"/>
<path d="M132.94 279C134.901 280.848 137.228 282.263 139.771 283.153C142.314 284.044 145.015 284.39 147.7 284.17" stroke="#263238" stroke-linecap="round" stroke-linejoin="round"/>
<path d="M152.25 161.19C153.05 160.86 192.96 157.88 194.95 153.77C192.991 150.051 191.519 146.095 190.57 142C188.078 132.55 184.069 123.567 178.7 115.4L188.7 113.57C194.7 130.43 208.86 145.39 208.61 161.03C208.61 161.03 187.01 175.72 165.02 178.11C158.69 178.78 152.25 161.19 152.25 161.19Z" fill="white" stroke="#263238" stroke-linecap="round" stroke-linejoin="round"/>
<path d="M165.55 150.08C164.196 149.892 162.819 150.155 161.63 150.83C157.57 153.29 158.31 160.63 158.31 160.63L140.25 157.19C144.19 151.46 143.18 138.31 143.18 138.31C160.1 122.45 164.18 136.98 165.18 145.31C165.49 147.66 165.54 149.51 165.55 150.08Z" fill="white" stroke="#263238" stroke-linecap="round" stroke-linejoin="round"/>
<path d="M165.55 150.08C164.196 149.892 162.819 150.156 161.63 150.83C160.183 148.412 159.273 145.711 158.96 142.91L165.21 145.32C165.49 147.66 165.54 149.51 165.55 150.08Z" fill="#263238"/>
<path d="M133.77 111.24C133.77 111.24 132.23 102.24 147.35 100.86C162.47 99.48 176.35 103.65 176.35 114.67C176.35 125.69 167.23 148.45 149.08 138.31C130.93 128.17 133.77 111.24 133.77 111.24Z" fill="#263238"/>
<path d="M142.551 139.56C140.991 137.56 136.871 130.38 136.211 127.64C132.131 110.79 141.351 109.57 148.211 106.16C161.261 99.69 173.131 112.81 172.111 124.49C171.091 136.17 176.601 134.79 176.351 136.4C176.141 137.76 172.641 139.14 172.641 139.14C172.585 140.141 172.615 141.144 172.731 142.14L171.871 142.93C171.421 145.15 170.401 150.75 169.671 150.93C168.211 151.37 160.021 148.51 158.671 145.48" fill="white"/>
<path d="M142.551 139.56C140.991 137.56 136.871 130.38 136.211 127.64C132.131 110.79 141.351 109.57 148.211 106.16C161.261 99.69 173.131 112.81 172.111 124.49C171.091 136.17 176.601 134.79 176.351 136.4C176.141 137.76 172.641 139.14 172.641 139.14C172.585 140.141 172.615 141.144 172.731 142.14L171.871 142.93C171.421 145.15 170.401 150.75 169.671 150.93C168.211 151.37 160.021 148.51 158.671 145.48" stroke="#263238" stroke-linecap="round" stroke-linejoin="round"/>
<path d="M170.85 129.42C170.73 130.27 170.25 130.9 169.78 130.84C169.31 130.78 169.01 130.03 169.12 129.18C169.23 128.33 169.72 127.7 170.2 127.77C170.68 127.84 171 128.57 170.85 129.42Z" fill="#263238"/>
<path d="M171.49 122.78C171.49 122.78 169.31 122.41 167.12 124.78" stroke="#263238" stroke-linecap="round" stroke-linejoin="round"/>
<path d="M167 106.22C161 101.63 127.52 96.91 133.08 123.37C132.34 126.65 134.59 132.18 142.08 141.15C142.08 141.15 145.71 138.31 149.6 140.75C149.6 140.75 151.95 133.47 156 131.82C156.876 131.437 157.652 130.859 158.27 130.13C168.99 127.45 170.35 117.28 170.21 113.72C170.85 112.75 172 110 167 106.22Z" fill="#263238"/>
<path d="M140.25 107C140.25 107 131.53 97.2 120.84 102.67C110.15 108.14 113.01 123.42 118.93 131.67C124.85 139.92 117.59 146.57 119.88 151.06C122.17 155.55 127 153.7 127 153.7C126.205 153.218 125.533 152.558 125.037 151.772C124.54 150.986 124.233 150.095 124.14 149.17C123.75 145.93 130.25 144.4 130.25 135.23C130.25 126.06 128.15 117.85 135.79 121.67C143.43 125.49 140.25 107 140.25 107Z" fill="#263238"/>
<path d="M171.88 142.9C171.88 142.9 168.54 143.07 167.12 141.75" stroke="#263238" stroke-linecap="round" stroke-linejoin="round"/>
<g opacity="0.2">
<path d="M140.25 107C140.25 107 145.45 113.64 139.2 119.14" stroke="white" stroke-linecap="round" stroke-linejoin="round"/>
<path d="M167 106.22C167 106.22 175 114.95 159 124.73" stroke="white" stroke-linecap="round" stroke-linejoin="round"/>
<path d="M164.001 104.69C164.001 104.69 167.121 107.69 160.001 113.58C152.881 119.47 147.561 121 142.311 120.73" stroke="white" stroke-linecap="round" stroke-linejoin="round"/>
<path d="M137.86 112.14C137.86 112.14 133.25 104.64 125.94 109.78C118.63 114.92 120.21 122 124.16 130.13C128.11 138.26 125.43 143.6 125.43 143.6" stroke="white" stroke-linecap="round" stroke-linejoin="round"/>
<path d="M124 103.45C124 103.45 115 103.71 115.69 115.45C116.38 127.19 120.57 127.12 121.49 132.78" stroke="white" stroke-linecap="round" stroke-linejoin="round"/>
<path d="M148.4 130.13C148.4 130.13 139.401 132.13 136.021 124.73" stroke="white" stroke-linecap="round" stroke-linejoin="round"/>
</g>
<path d="M157.08 131.25C157.08 131.25 155.6 125.85 151.68 127.67C147.76 129.49 151.19 134.67 153.13 137.13C153.387 137.529 153.755 137.846 154.188 138.041C154.621 138.236 155.101 138.301 155.571 138.229C156.04 138.157 156.479 137.951 156.834 137.635C157.188 137.32 157.444 136.908 157.57 136.45" fill="white"/>
<path d="M157.08 131.25C157.08 131.25 155.6 125.85 151.68 127.67C147.76 129.49 151.19 134.67 153.13 137.13C153.387 137.529 153.755 137.846 154.188 138.041C154.621 138.236 155.101 138.301 155.571 138.229C156.04 138.157 156.479 137.951 156.834 137.635C157.188 137.32 157.444 136.908 157.57 136.45" stroke="#263238" stroke-linecap="round" stroke-linejoin="round"/>
<path d="M139.001 154.39L138.581 157.44C123.151 171.87 133.341 205.78 143.031 227.44L136.841 247C136.841 247 163.241 255.79 187.301 248.91L185.001 225.94L182.331 208C182.331 208 184.531 201.89 184.961 190C185.391 178.11 163.001 147.71 139.001 154.39Z" fill="#263238"/>
<path d="M183 118.47C183 118.47 179 120.61 177.29 120.03C177.29 120.03 168.68 120.52 168.44 116.88C169.917 116.624 171.328 116.079 172.593 115.276C173.857 114.472 174.951 113.427 175.81 112.2C177.25 110.2 189.67 110.2 188.94 114.35C188.819 115.018 188.545 115.65 188.139 116.195C187.733 116.739 187.206 117.183 186.6 117.49" fill="white"/>
<path d="M183 118.47C183 118.47 179 120.61 177.29 120.03C177.29 120.03 168.68 120.52 168.44 116.88C169.917 116.624 171.328 116.079 172.593 115.276C173.857 114.472 174.951 113.427 175.81 112.2C177.25 110.2 189.67 110.2 188.94 114.35C188.819 115.018 188.545 115.65 188.139 116.195C187.733 116.739 187.206 117.183 186.6 117.49" stroke="#263238" stroke-linecap="round" stroke-linejoin="round"/>
<path d="M175.8 112.2C177.57 111.92 176.7 112.82 177.96 112.73C179.22 112.64 179.33 111.83 180.25 113.03C181.17 114.23 182.19 113.03 183.14 113.43" fill="white"/>
<path d="M175.8 112.2C177.57 111.92 176.7 112.82 177.96 112.73C179.22 112.64 179.33 111.83 180.25 113.03C181.17 114.23 182.19 113.03 183.14 113.43" stroke="#263238" stroke-linecap="round" stroke-linejoin="round"/>
<path d="M177.28 120C177.4 119 180.91 117.11 181.83 115.87L177.28 120Z" fill="white"/>
<path d="M177.28 120C177.4 119 180.91 117.11 181.83 115.87" stroke="#263238" stroke-linecap="round" stroke-linejoin="round"/>
<path d="M174.3 120C173.21 118.68 175.73 118.08 178.14 115.72L174.3 120Z" fill="white"/>
<path d="M174.3 120C173.21 118.68 175.73 118.08 178.14 115.72" stroke="#263238" stroke-linecap="round" stroke-linejoin="round"/>
<path d="M171.39 119.49C170.03 118.14 170.6 117.66 172.73 116.67C173.903 116.175 174.935 115.395 175.73 114.4" fill="white"/>
<path d="M171.39 119.49C170.03 118.14 170.6 117.66 172.73 116.67C173.903 116.175 174.935 115.395 175.73 114.4" stroke="#263238" stroke-linecap="round" stroke-linejoin="round"/>
<path d="M174.91 412.3C174.91 412.3 183.84 409.4 190.97 412.02L193.19 420.48L198 412.3C198 412.3 196.39 422.59 198 425.74C199.61 428.89 209.2 430.38 210.77 432.43C212.34 434.48 212.85 438.65 212.85 438.65H175.58L178.48 425.74L174.91 412.3Z" fill="#FF4D12" stroke="#263238" stroke-linecap="round" stroke-linejoin="round"/>
<path d="M100.57 412.3C100.57 412.3 107.57 409.4 114.7 412.02L114.02 420.48L122.71 412.3C122.71 412.3 117.24 422.59 118.85 425.74C120.46 428.89 130.05 430.38 131.62 432.43C133.19 434.48 133.7 438.65 133.7 438.65H96.4102L100.27 425.74L100.57 412.3Z" fill="#FF4D12"/>
<mask id="mask2_397_327" style="mask-type:luminance" maskUnits="userSpaceOnUse" x="96" y="410" width="38" height="29">
<path d="M100.57 412.3C100.57 412.3 107.57 409.4 114.7 412.02L114.02 420.48L122.71 412.3C122.71 412.3 117.24 422.59 118.85 425.74C120.46 428.89 130.05 430.38 131.62 432.43C133.19 434.48 133.7 438.65 133.7 438.65H96.4102L100.27 425.74L100.57 412.3Z" fill="white"/>
</mask>
<g mask="url(#mask2_397_327)">
<path opacity="0.3" d="M100.57 412.3C100.57 412.3 107.57 409.4 114.7 412.02L114.02 420.48L122.71 412.3C122.71 412.3 117.24 422.59 118.85 425.74C120.46 428.89 130.05 430.38 131.62 432.43C133.19 434.48 133.7 438.65 133.7 438.65H96.4102L100.27 425.74L100.57 412.3Z" fill="black" fill-opacity="0.7"/>
</g>
<path d="M100.57 412.3C100.57 412.3 107.57 409.4 114.7 412.02L114.02 420.48L122.71 412.3C122.71 412.3 117.24 422.59 118.85 425.74C120.46 428.89 130.05 430.38 131.62 432.43C133.19 434.48 133.7 438.65 133.7 438.65H96.4102L100.27 425.74L100.57 412.3Z" stroke="#263238" stroke-linecap="round" stroke-linejoin="round"/>
<path d="M175.59 220.39C175.59 220.39 180.98 213.18 181.94 209.15L183.05 212.65C183.05 212.65 180.2 220.65 175.59 224.8V220.39Z" fill="#BFBFBF" stroke="#263238" stroke-linecap="round" stroke-linejoin="round"/>
<path d="M154.21 223.84C154.21 223.84 161.75 226.68 167.09 224.9C170.607 223.584 173.78 221.488 176.37 218.77L178.11 221.93C178.11 221.93 166.06 242.93 154.21 239.75" fill="#FF4D12"/>
<path d="M154.21 223.84C154.21 223.84 161.75 226.68 167.09 224.9C170.607 223.584 173.78 221.488 176.37 218.77L178.11 221.93C178.11 221.93 166.06 242.93 154.21 239.75" stroke="#263238" stroke-linecap="round" stroke-linejoin="round"/>
<path d="M155 251.49C151.08 261.79 113.1 259.42 105.71 253.63C104.08 252.35 102.57 249.88 101.25 246.76C98.6254 240.091 96.8612 233.115 96.0002 226C95.7702 224.15 95.6102 222.4 95.5402 220.83C95.3702 217.31 95.6202 214.66 96.3702 213.7C99.3702 209.89 102.72 206.2 102.72 206.2C102.72 206.2 96.8802 175 102.72 172.02C107.539 169.144 112.816 167.114 118.32 166.02C126.76 164.53 140.96 160.33 147.32 169.02C147.645 169.477 147.923 169.967 148.15 170.48C154.14 183.19 158.75 241.63 155 251.49Z" fill="#FF4D12"/>
<mask id="mask3_397_327" style="mask-type:luminance" maskUnits="userSpaceOnUse" x="95" y="163" width="62" height="96">
<path d="M155 251.49C151.08 261.79 113.1 259.42 105.71 253.63C104.08 252.35 102.57 249.88 101.25 246.76C98.6254 240.091 96.8612 233.115 96.0002 226C95.7702 224.15 95.6102 222.4 95.5402 220.83C95.3702 217.31 95.6202 214.66 96.3702 213.7C99.3702 209.89 102.72 206.2 102.72 206.2C102.72 206.2 96.8802 175 102.72 172.02C107.539 169.144 112.816 167.114 118.32 166.02C126.76 164.53 140.96 160.33 147.32 169.02C147.645 169.477 147.923 169.967 148.15 170.48C154.14 183.19 158.75 241.63 155 251.49Z" fill="white"/>
</mask>
<g mask="url(#mask3_397_327)">
<path opacity="0.3" d="M155 251.49C151.08 261.79 113.1 259.42 105.71 253.63C104.08 252.35 102.57 249.88 101.25 246.76C99.1703 239.65 97.2503 231.44 96.0503 226C95.3003 222.57 94.8203 220.25 94.7803 220C94.9723 220.343 95.2518 220.63 95.5903 220.83C97.3803 222.11 103.02 224.5 120.59 225.66C120.59 225.66 107.81 229.21 97.7903 224.82C97.7903 224.82 101.22 245.5 104.91 249.58C108.6 253.66 125.35 257.1 129.31 254.86C133.27 252.62 130.58 231.6 131.4 229.45C132.22 227.3 135.4 225.51 135.57 224.82C135.74 224.13 136.43 214.04 136.43 214.04C136.43 214.04 111.77 208.98 104.91 209.17C98.0503 209.36 107.81 204.48 114.67 205.27C121.53 206.06 135.24 208.98 135.57 209.17C135.9 209.36 132.72 179.01 129.17 174.47C125.62 169.93 133.65 170.13 135.57 177.35C137.41 184.35 142.02 209.75 142.35 211.5C142.27 210.11 141.35 195.2 140.41 189.64C139.46 183.81 139.55 176.13 140.56 175.34C141.57 174.55 146.67 172.53 147.15 171.43C147.405 171.04 147.748 170.715 148.15 170.48C154.14 183.19 158.75 241.63 155 251.49Z" fill="black" fill-opacity="0.7"/>
</g>
<path d="M155 251.49C151.08 261.79 113.1 259.42 105.71 253.63C104.08 252.35 102.57 249.88 101.25 246.76C98.6254 240.091 96.8612 233.115 96.0002 226C95.7702 224.15 95.6102 222.4 95.5402 220.83C95.3702 217.31 95.6202 214.66 96.3702 213.7C99.3702 209.89 102.72 206.2 102.72 206.2C102.72 206.2 96.8802 175 102.72 172.02C107.539 169.144 112.816 167.114 118.32 166.02C126.76 164.53 140.96 160.33 147.32 169.02C147.645 169.477 147.923 169.967 148.15 170.48C154.14 183.19 158.75 241.63 155 251.49Z" stroke="#263238" stroke-linecap="round" stroke-linejoin="round"/>
<path d="M135.2 165.56C132.543 163.37 129.344 161.936 125.94 161.41C120.41 160.62 115.66 168.13 115.66 168.13H118.23C118.23 168.13 121.79 161.21 128.91 167.34" fill="#FF4D12"/>
<path d="M135.2 165.56C132.543 163.37 129.344 161.936 125.94 161.41C120.41 160.62 115.66 168.13 115.66 168.13H118.23C118.23 168.13 121.79 161.21 128.91 167.34" stroke="#263238" stroke-linecap="round" stroke-linejoin="round"/>
<path d="M108.931 170.9C108.931 170.9 123.571 169.71 128.321 173.47C133.071 177.23 135.571 207.85 135.571 207.85C135.571 207.85 113.651 201.76 107.351 204.92" stroke="#263238" stroke-linecap="round" stroke-linejoin="round"/>
<path d="M104.38 198C104.38 198 100.38 184 102.76 180.4C105.14 176.8 120.21 177.4 122.98 180.4C125.75 183.4 125.98 200.18 125.98 200.18C125.98 200.18 113.12 197.3 107.39 198.18" stroke="#263238" stroke-linecap="round" stroke-linejoin="round"/>
<path d="M97.2598 221.93C98.0498 222.93 125.82 227.87 130.63 224.7" stroke="#263238" stroke-linecap="round" stroke-linejoin="round"/>
<path d="M98.4502 216.6C100.45 215.02 120.45 218.97 124.56 219.16C128.67 219.35 136 214.81 136.43 214C136.43 214 141.9 243.87 140.25 249.61C138.6 255.35 134.05 256.33 134.05 256.33" stroke="#263238" stroke-linecap="round" stroke-linejoin="round"/>
<path d="M103.59 247.65C103.59 247.65 104.78 254.37 129.31 256.35" stroke="#263238" stroke-linecap="round" stroke-linejoin="round"/>
<path d="M143.35 222.73C144.35 222.33 151.44 221.58 154.03 219.96C154.247 223.303 154.237 226.658 154 230C154 230 146.29 233 144.9 232.38C143.51 231.76 142.98 227.43 142.98 227.43" stroke="#263238" stroke-linecap="round" stroke-linejoin="round"/>
<path d="M152.9 230.46C152.9 230.46 153.55 243.19 152.9 244.93C152.25 246.67 145.33 249.23 144.54 249.03C143.75 248.83 142.36 236.57 142.36 236.57" stroke="#263238" stroke-linecap="round" stroke-linejoin="round"/>
<path d="M127.26 169.32C127.26 169.32 134.45 169.32 137.02 174.07C139.59 178.82 142.48 206.23 143.02 207.85" stroke="#263238" stroke-linecap="round" stroke-linejoin="round"/>
<path d="M140.25 166C140.25 166 156.25 157.22 164.62 159.93C172.99 162.64 176.37 171.1 176.37 171.1C176.37 171.1 173.51 163.2 165.55 163.71C157.59 164.22 146.12 172.13 146.12 172.13" fill="#FF4D12"/>
<path d="M140.25 166C140.25 166 156.25 157.22 164.62 159.93C172.99 162.64 176.37 171.1 176.37 171.1C176.37 171.1 173.51 163.2 165.55 163.71C157.59 164.22 146.12 172.13 146.12 172.13" stroke="#263238" stroke-linecap="round" stroke-linejoin="round"/>
<path d="M165.55 163.67C165.55 163.67 174.55 162.92 177.31 167.14C180.07 171.36 177.31 182.33 177.31 182.33C177.31 182.33 179.68 185.13 175.59 187.15C171.5 189.17 160.51 190.27 157.9 186.29C155.29 182.31 156.69 165.33 165.55 163.67Z" fill="#263238"/>
<path d="M176.671 183.12C176.671 183.12 167.151 217.53 170.271 220.89C174.289 221.114 178.27 221.785 182.141 222.89C200.011 227.44 210.141 224.14 210.141 224.14L208.241 234.09C190.341 233.62 173.031 236.87 158.551 230.97C158.551 230.97 152.661 205.53 158.391 184.16C158.391 184.16 160.051 182.02 164.971 181.38C168.957 180.763 173.036 181.37 176.671 183.12Z" fill="white" stroke="#263238" stroke-linecap="round" stroke-linejoin="round"/>
<path d="M207.371 234.12C210.771 236.35 215.691 232.85 220.241 233.28C224.791 233.71 222.591 220.68 222.591 220.68C222.591 220.68 216.901 217.96 215.231 217.35C213.561 216.74 211.071 220.51 205.811 225.35" fill="white"/>
<path d="M207.371 234.12C210.771 236.35 215.691 232.85 220.241 233.28C224.791 233.71 222.591 220.68 222.591 220.68C222.591 220.68 216.901 217.96 215.231 217.35C213.561 216.74 211.071 220.51 205.811 225.35" stroke="#263238" stroke-linecap="round" stroke-linejoin="round"/>
<path d="M140.88 157.31C145.908 156.869 150.975 157.251 155.88 158.44" stroke="white" stroke-linecap="round" stroke-linejoin="round"/>
<path d="M157.571 185.66C157.571 185.66 156.031 183.41 157.571 182.33C157.571 182.33 153.091 178.88 153.731 175.33" stroke="white" stroke-linecap="round" stroke-linejoin="round"/>
<path d="M178.54 177.94L178.11 182.33C178.11 182.33 180.32 183.74 176.37 185.66" stroke="white" stroke-linecap="round" stroke-linejoin="round"/>
<path d="M180.41 209.15C180.41 209.15 175.67 212.74 172.96 212.15" stroke="white" stroke-linecap="round" stroke-linejoin="round"/>
<path d="M160.82 243.76C160.82 243.76 172.16 250.35 184.16 247.65" stroke="white" stroke-linecap="round" stroke-linejoin="round"/>
<path d="M216.601 221.93C218.738 222.216 220.851 222.664 222.921 223.27" stroke="#263238" stroke-linecap="round" stroke-linejoin="round"/>
<path d="M216.601 226.08C216.601 226.08 221.731 226.08 223.121 226.23" stroke="#263238" stroke-linecap="round" stroke-linejoin="round"/>
<path d="M216.601 229.43C216.601 229.43 223.051 229.24 222.921 229.89" stroke="#263238" stroke-linecap="round" stroke-linejoin="round"/>
<path d="M99.6406 434.18C99.6406 434.18 109.701 433.18 115.051 435.36" stroke="#263238" stroke-linecap="round" stroke-linejoin="round"/>
<path d="M102 424.79C102 424.79 107.54 423.51 110.51 424.79" stroke="#263238" stroke-linecap="round" stroke-linejoin="round"/>
<path d="M118.851 425.74C118.851 425.74 120.211 428.24 119.851 430.02" stroke="#263238" stroke-linecap="round" stroke-linejoin="round"/>
<path d="M131.62 432.43C129.206 432.669 126.774 432.669 124.36 432.43" stroke="#263238" stroke-linecap="round" stroke-linejoin="round"/>
<path d="M198 425.74C198 425.74 201.68 430.02 201.68 431.21" stroke="#263238" stroke-linecap="round" stroke-linejoin="round"/>
<path d="M210.79 432.43C209.032 432.755 207.237 432.823 205.46 432.63" stroke="#263238" stroke-linecap="round" stroke-linejoin="round"/>
<path d="M178.16 435.36C178.16 435.36 189.43 433.58 196.16 435.36" stroke="#263238" stroke-linecap="round" stroke-linejoin="round"/>
<path d="M180.931 425.74C180.931 425.74 186.471 425.91 188.851 424.51" stroke="#263238" stroke-linecap="round" stroke-linejoin="round"/>
<path d="M156.35 295.32C156.35 295.32 150.26 331.98 142.35 340.68C142.35 340.68 132.07 369.11 127.98 376.68C123.89 384.25 118.84 408.52 118.84 408.52" stroke="#263238" stroke-linecap="round" stroke-linejoin="round"/>
<path d="M127.26 337.3C127.26 337.3 131.02 331.82 135.26 337.3" stroke="#263238" stroke-linecap="round" stroke-linejoin="round"/>
<path d="M175.16 343C175.16 343 176.98 333.34 184.89 341.25" stroke="#263238" stroke-linecap="round" stroke-linejoin="round"/>
<path d="M184.891 253C184.891 253 189.571 273.12 188.781 284.22C188.781 284.22 191.421 325.75 190.631 337.3" stroke="#263238" stroke-linecap="round" stroke-linejoin="round"/>
<path d="M195 153.77C195 153.77 199.91 156.24 202.81 154.04" stroke="#263238" stroke-linecap="round" stroke-linejoin="round"/>
<path d="M365.629 409.43C365.629 409.43 363.529 387.33 367.799 366.87C372.069 346.41 363.799 343.99 360.379 349.6C356.959 355.21 355.849 373.79 355.849 373.79C355.849 373.79 354.129 354.96 351.169 345.36C346.829 331.29 342.169 320.57 335.979 323.74C328.789 327.4 345.499 352.74 348.789 382.4C348.789 382.4 335.329 368.54 328.879 355.62C322.429 342.7 314.599 350.55 320.349 362.12C326.099 373.69 339.799 377.92 347.349 390.19C347.349 390.19 328.499 378.95 324.689 385.76C322.539 389.6 330.209 390.41 333.629 391.24C350.249 395.24 357.949 412.51 357.949 412.51L365.629 409.43Z" fill="#FF4D12" stroke="#263238" stroke-linecap="round" stroke-linejoin="round"/>
<path opacity="0.2" d="M365.629 409.43C365.629 409.43 363.529 387.33 367.799 366.87C372.069 346.41 363.799 343.99 360.379 349.6C356.959 355.21 355.849 373.79 355.849 373.79C355.849 373.79 354.129 354.96 351.169 345.36C346.829 331.29 342.169 320.57 335.979 323.74C328.789 327.4 345.499 352.74 348.789 382.4C348.789 382.4 335.329 368.54 328.879 355.62C322.429 342.7 314.599 350.55 320.349 362.12C326.099 373.69 339.799 377.92 347.349 390.19C347.349 390.19 328.499 378.95 324.689 385.76C322.539 389.6 330.209 390.41 333.629 391.24C350.249 395.24 357.949 412.51 357.949 412.51L365.629 409.43Z" fill="black" fill-opacity="0.7" stroke="#263238" stroke-miterlimit="10"/>
<path d="M364.85 382.64C364.85 382.64 365.96 362.51 358.62 345.83C351.28 329.15 357.83 327.83 361.76 332.02C365.69 336.21 368.69 357.79 368.69 357.79C368.69 357.79 372.14 338.45 370.57 325.07C369 311.69 369.11 304.17 374.62 304.17C381.62 304.17 380.01 336.91 374.32 356.53C374.32 356.53 383.32 342.27 386.46 330.08C389.6 317.89 397.72 323.17 394.9 334.08C392.08 344.99 381.18 351.08 376.96 362.91C376.96 362.91 390.96 349.91 395.49 355.03C398.02 357.92 391.62 360.03 388.85 361.32C375.4 367.76 371.95 383.87 371.95 383.87L364.85 382.64Z" fill="#FF4D12" stroke="#263238" stroke-linecap="round" stroke-linejoin="round"/>
<path d="M362.33 345C368.57 359.07 368.93 379.6 368.93 379.6C368.93 379.6 377.13 338.81 375.07 321.6" stroke="#263238" stroke-linecap="round" stroke-linejoin="round"/>
<path d="M389.3 336.91C389.3 336.91 380.14 356.23 371.76 363.64" stroke="#263238" stroke-linecap="round" stroke-linejoin="round"/>
<path d="M389.3 357.73C389.3 357.73 373.82 367.73 370.02 373.79" stroke="#263238" stroke-linecap="round" stroke-linejoin="round"/>
<path d="M351.87 407.29C351.87 407.29 340.05 391 337.23 373C334.41 355 328.18 357.45 327.12 363.08C326.06 368.71 335.21 388.5 335.21 388.5C335.21 388.5 321.85 374 316 361.94C310.15 349.88 305.94 343.56 301.3 346.54C295.38 350.34 314.45 377 329.84 390.43C329.84 390.43 314.59 383.28 305.34 374.74C296.09 366.2 292.13 375.01 300.34 382.67C308.55 390.33 321.07 389.55 331.02 397.23C331.02 397.23 312.18 393.88 311.17 400.61C310.6 404.41 317.1 402.7 320.17 402.32C334.96 400.47 346.56 412.16 346.56 412.16L351.87 407.29Z" fill="#FF4D12" stroke="#263238" stroke-linecap="round" stroke-linejoin="round"/>
<path d="M333.64 374.25C336 389.47 346.79 406.93 346.79 406.93C346.79 406.93 317.85 377.05 310.31 361.47" stroke="#263238" stroke-linecap="round" stroke-linejoin="round"/>
<path d="M306.59 382C306.59 382 324.73 393.31 335.79 395" stroke="#263238" stroke-linecap="round" stroke-linejoin="round"/>
<path d="M317.84 399.54C317.84 399.54 336.24 399.54 342.73 402.64" stroke="#263238" stroke-linecap="round" stroke-linejoin="round"/>
<path d="M394.92 337.25C394.92 337.25 409.98 338.44 410.6 349.55C410.6 349.55 395.36 356.56 394.92 337.25Z" fill="#FF4D12" stroke="#263238" stroke-linecap="round" stroke-linejoin="round"/>
<path d="M424.7 340C424.7 340 433.11 328.63 446.7 334.46C446.7 334.47 438.4 348.22 424.7 340Z" fill="#FF4D12" stroke="#263238" stroke-linecap="round" stroke-linejoin="round"/>
<path d="M445.55 304.11C445.55 304.11 448 326 428.06 320C428.06 320 434.38 303.88 445.55 304.11Z" fill="#FF4D12" stroke="#263238" stroke-linecap="round" stroke-linejoin="round"/>
<path d="M421.1 291.94C421.1 291.94 436.85 300.43 425.27 313.31C425.27 313.31 414.23 304.11 421.1 291.94Z" fill="#FF4D12" stroke="#263238" stroke-linecap="round" stroke-linejoin="round"/>
<path d="M401.729 311.48C401.729 311.48 418.849 309.75 418.849 325.6C418.849 325.6 401.729 326.28 401.729 311.48Z" fill="#FF4D12" stroke="#263238" stroke-linecap="round" stroke-linejoin="round"/>
<path d="M417.87 372.17C417.87 372.17 410.07 355.79 417.56 339.1C425.05 322.41 427.56 308.37 423.67 298.47" stroke="#263238" stroke-linecap="round" stroke-linejoin="round"/>
<path d="M407.35 315.74C407.35 315.74 417.61 319.82 421.1 330.39" stroke="#263238" stroke-linecap="round" stroke-linejoin="round"/>
<path d="M440.14 312.86C440.14 312.86 434.21 320.94 424.14 320.07" stroke="#263238" stroke-linecap="round" stroke-linejoin="round"/>
<path d="M440.14 336.79C440.14 336.79 423.71 341.53 417.14 339.98" stroke="#263238" stroke-linecap="round" stroke-linejoin="round"/>
<path d="M399.83 342.25C399.83 342.25 407.17 350.31 414.56 350.18" stroke="#263238" stroke-linecap="round" stroke-linejoin="round"/>
<path d="M299.15 394.3C299.15 394.3 286.07 397.5 287.15 407.37C287.1 407.37 301.53 411.37 299.15 394.3Z" fill="#FF4D12" stroke="#263238" stroke-linecap="round" stroke-linejoin="round"/>
<path d="M273.32 401C273.32 401 264.32 392.19 253.16 399.27C253.16 399.25 262.43 410.17 273.32 401Z" fill="#FF4D12" stroke="#263238" stroke-linecap="round" stroke-linejoin="round"/>
<path d="M249.84 372.35C249.84 372.35 250.84 391.96 267.51 383.81C267.51 383.81 259.64 370.55 249.84 372.35Z" fill="#FF4D12" stroke="#263238" stroke-linecap="round" stroke-linejoin="round"/>
<path d="M269.63 358.13C269.63 358.13 257 367.86 269 377.55C269 377.55 277.42 367.87 269.63 358.13Z" fill="#FF4D12" stroke="#263238" stroke-linecap="round" stroke-linejoin="round"/>
<path d="M289.48 372.58C289.48 372.58 274.16 373.5 276.42 387.46C276.42 387.46 291.6 385.61 289.48 372.58Z" fill="#FF4D12" stroke="#263238" stroke-linecap="round" stroke-linejoin="round"/>
<path d="M283.929 428.33C283.929 428.33 288.469 412.79 279.489 399.17C270.509 385.55 266.269 373.53 268.299 364.25" stroke="#263238" stroke-linecap="round" stroke-linejoin="round"/>
<path d="M285.14 377.13C285.14 377.13 276.68 382.19 275.14 392" stroke="#263238" stroke-linecap="round" stroke-linejoin="round"/>
<path d="M255.859 379.28C255.859 379.28 262.229 385.55 270.949 383.35" stroke="#263238" stroke-linecap="round" stroke-linejoin="round"/>
<path d="M259.27 400.36C259.27 400.36 274.41 402.18 279.94 399.88" stroke="#263238" stroke-linecap="round" stroke-linejoin="round"/>
<path d="M295.55 399.41C295.55 399.41 290.23 407.55 283.71 408.49" stroke="#263238" stroke-linecap="round" stroke-linejoin="round"/>
<path d="M443.28 374.48L441.62 374.42L442.04 369.58C442.13 369.108 442.064 368.62 441.85 368.19C441.5 367.65 440.78 367.54 440.15 367.4C438.311 366.98 436.683 365.916 435.56 364.4C434.76 363.31 434.19 361.97 433.03 361.28C431.41 360.28 429.37 361 427.56 361.52C425.75 362.04 423.43 362.19 422.35 360.65C421.72 359.75 421.68 358.45 420.81 357.77C419.94 357.09 418.34 357.53 417.19 358.1C412.76 360.28 407.81 363.1 406.96 367.99C406.66 369.66 401.48 376.63 399.63 377.56C396.4 379.17 390.29 376.09 387.01 375C379.972 374.83 372.954 374.161 366.01 373C364.01 373 362.01 375 360.01 377C359.01 378 359.01 379 358.01 380C355.01 383 350.01 385 349.01 390C349.01 397 341.01 401 335.01 404C326.01 408 317.01 409 308.01 413C303.01 415 297.01 415 291.01 415C284.01 421 279.01 428 274.01 436C273.01 437 272.01 439 270.01 439C206.01 439 141.01 439 76.7002 438.65V461.47H443.7L443.28 374.48Z" fill="white"/>
<path d="M76.6904 438.65C141 439 206 439 270 439C272 439 273 437 274 436C279 428 284 421 291 415C297 415 303 415 308 413C317 409 326 408 335 404C341 401 349 397 349 390C350 385 355 383 358 380C359 379 359 378 360 377C362 375 364 373 366 373C372.944 374.161 379.962 374.83 387 375C390.28 376.09 396.39 379.17 399.62 377.56C401.47 376.63 406.62 369.66 406.95 367.99C407.8 363.13 412.75 360.28 417.18 358.1C418.33 357.53 419.79 356.99 420.8 357.77C421.81 358.55 421.71 359.77 422.34 360.65C423.42 362.19 425.73 362.03 427.55 361.52C429.37 361.01 431.4 360.32 433.02 361.28C434.18 361.97 434.75 363.28 435.55 364.4C436.673 365.916 438.301 366.98 440.14 367.4C440.77 367.54 441.49 367.65 441.84 368.19" stroke="#263238" stroke-linecap="round" stroke-linejoin="round"/>
<path d="M389.301 394.3C393.571 394.62 399.761 391.75 399.831 392C399.901 392.25 407.351 393.15 407.351 393.15C407.351 393.15 417.221 395.96 418.851 394.3C420.481 392.64 425.511 393.78 429.521 393.41C433.531 393.04 437.621 396.29 437.621 396.29C437.621 396.29 444.701 402.36 445.621 402.64C446.541 402.92 453.681 405.01 456.451 406.93" stroke="#263238" stroke-linecap="round" stroke-linejoin="round"/>
<path d="M270 439H287C287 439 298 433.33 303.64 433.95C309.28 434.57 314.09 438.65 314.09 438.65H323.81L335.75 440.15H343.63" stroke="#263238" stroke-linecap="round" stroke-linejoin="round"/>
<path d="M383.681 414.24C381.311 411.63 371.401 411.08 370.021 408.59C368.641 406.1 359.951 411.8 358.761 410.92C357.571 410.04 351.311 411.62 350.291 414.59C349.271 417.56 349.771 418.1 345.761 419.59" stroke="#263238" stroke-linecap="round" stroke-linejoin="round"/>
<path d="M447.19 379.11C446.433 378.446 445.467 378.071 444.46 378.051C443.454 378.031 442.473 378.367 441.69 379C441.464 379.216 441.223 379.416 440.97 379.6C440.247 379.914 439.454 380.035 438.67 379.95C436.894 379.992 435.18 380.606 433.78 381.7C433.365 382.103 432.876 382.423 432.34 382.64C432.012 382.716 431.677 382.759 431.34 382.77C430.457 382.887 429.62 383.231 428.91 383.77" stroke="#263238" stroke-linecap="round" stroke-linejoin="round"/>
<path d="M394.521 439.4C398.871 441.32 404.241 439.63 407.521 436.16C410.121 433.39 412.231 429.27 416.031 429.11C417.031 429.11 418.031 429.33 419.031 429.34C421.281 429.34 423.311 428.13 425.401 427.34C427.491 426.55 430.101 426.12 431.791 427.6C432.911 428.6 433.381 430.19 434.601 431.05C435.821 431.91 437.391 431.78 438.831 432.05C440.271 432.32 441.831 433.49 441.531 434.93" stroke="#263238" stroke-linecap="round" stroke-linejoin="round"/>
</svg>
