<svg width="152" height="152" viewBox="0 0 152 152" fill="none" xmlns="http://www.w3.org/2000/svg">
<g id="Capa_1" clip-path="url(#clip0_385_82)">
<path id="Vector" d="M140.884 16.455C146.415 17.9369 149.697 23.6217 148.215 29.1523L117.357 144.313C115.876 149.844 110.191 153.126 104.66 151.644L44.5762 135.544C39.0456 134.062 35.7634 128.378 37.2456 122.847L68.1027 7.68631C69.5846 2.1557 75.2694 -1.1265 80.8 0.355691L140.884 16.455Z" fill="#F5F9EC"/>
<path id="Vector_2" d="M94.3829 31.7329H61.6587L37.2454 122.847C35.7636 128.378 39.0461 134.062 44.5767 135.544L104.66 151.643C110.191 153.125 115.875 149.844 117.357 144.313L136.294 73.6431L94.3829 31.7329Z" fill="#E4E8DB"/>
<path id="Vector_3" d="M140.884 16.455C146.414 17.9368 149.697 23.6217 148.214 29.1523L134.798 79.2222L54.687 57.7565L68.1032 7.68655C69.5851 2.15595 75.2699 -1.12626 80.8005 0.355935L140.884 16.455Z" fill="#DCC69F"/>
<g id="Group">
<path id="Vector_4" d="M72.2942 132.229L81.6846 97.1821L76.6777 95.8406L67.2873 130.888L72.2942 132.229Z" fill="#C8BEB2"/>
<path id="Vector_5" d="M84.3693 87.1745L87.0522 77.1611L82.0454 75.8196L79.3624 85.833L84.3693 87.1745Z" fill="#C8BEB2"/>
<path id="Vector_6" d="M99.4 91.1848L102.083 81.1714L97.0762 79.8299L94.3932 89.8433L99.4 91.1848Z" fill="#C8BEB2"/>
<path id="Vector_7" d="M114.408 95.2156L117.091 85.2021L112.084 83.8606L109.401 93.874L114.408 95.2156Z" fill="#C8BEB2"/>
<path id="Vector_8" d="M87.3039 136.258L96.6943 101.211L91.6875 99.8692L82.2971 134.916L87.3039 136.258Z" fill="#C8BEB2"/>
<path id="Vector_9" d="M102.344 140.289L111.734 105.242L106.728 103.9L97.3371 138.947L102.344 140.289Z" fill="#C8BEB2"/>
</g>
<path id="Vector_10" d="M123.179 22.4441L118.887 21.2939L103.558 35.5858C99.541 34.5096 95.0344 33.3018 94.2601 33.0945C91.3991 32.3279 88.1545 32.9918 87.7712 34.4221C87.388 35.8528 89.8657 38.05 92.7268 38.8165C93.5007 39.0239 98.0076 40.2313 102.025 41.3079L108.154 61.3497L112.446 62.4999L112.039 43.9914C114.858 44.7469 117.735 45.5177 119.622 46.0231L122.954 51.899L125.815 52.6655L125.323 44.4839L129.84 37.6444L126.979 36.8779L121.155 40.3007C119.269 39.7953 116.392 39.0242 113.572 38.269L123.179 22.4441Z" fill="#F5F9EC"/>
<path id="Vector_11" d="M54.687 57.7563L134.799 79.222L136.293 73.6438L94.3829 31.7329H61.66L54.687 57.7563Z" fill="#CDB994"/>
<path id="Vector_12" d="M94.2605 33.0946C91.3991 32.3277 88.1542 32.9919 87.7722 34.4222C87.3889 35.8529 89.8654 38.0504 92.7281 38.817C93.5011 39.0246 98.0079 40.2324 102.025 41.3084L108.155 61.3505L112.446 62.5003L112.161 49.5108L96.2879 33.6379C95.2807 33.368 94.5326 33.1675 94.2605 33.0946Z" fill="#E4E8DB"/>
<path id="Vector_13" d="M85.8075 1.69728L49.5837 136.886L44.5767 135.545C39.0461 134.063 35.7639 128.378 37.2461 122.847L68.1035 7.6863C69.5854 2.1557 75.2702 -1.1265 80.8008 0.355691L85.8075 1.69728Z" fill="#EA672C"/>
<path id="Vector_14" d="M96.7344 131.583C96.7344 137.309 92.0928 141.951 86.3671 141.951H8.61282C5.74984 141.951 3.4292 139.63 3.4292 136.767V33.0945C3.4292 30.2315 5.74984 27.9109 8.61282 27.9109H86.3671C92.0928 27.9109 96.7344 32.5525 96.7344 38.2781V131.583Z" fill="#125D9D"/>
<path id="Vector_15" d="M50.0817 43.4617C32.9048 43.4617 18.98 57.3865 18.98 74.5634C18.98 91.7403 32.9048 105.665 50.0817 105.665C67.2586 105.665 81.1834 91.7403 81.1834 74.5634C81.1834 57.3865 67.2589 43.4617 50.0817 43.4617ZM73.0993 62.9003H61.8903C60.8183 57.5287 59.144 53.1871 57.4344 49.8375C64.2835 51.8815 69.9065 56.631 73.0993 62.9003ZM57.8571 74.5634C57.8571 76.8772 57.6838 79.0028 57.4457 81.0429H42.7187C42.4796 79.0028 42.306 76.8769 42.306 74.5634C42.306 72.2486 42.4767 70.1233 42.7135 68.0839H57.4506C57.6864 70.1233 57.8571 72.2489 57.8571 74.5634ZM43.5782 62.9003C45.0173 56.4049 47.3914 51.6861 49.3275 48.7211C49.5831 48.7136 49.8235 48.6453 50.0817 48.6453C50.3425 48.6453 50.5839 48.7149 50.8434 48.7224C52.7885 51.7065 55.1539 56.4272 56.5862 62.9003H43.5782ZM42.7291 49.8375C41.0256 53.18 39.35 57.5265 38.277 62.9003H27.0642C30.2573 56.631 35.8799 51.8828 42.7291 49.8375ZM25.0837 68.0839H37.4897C37.2733 70.1366 37.1227 72.2716 37.1227 74.5634C37.1227 76.8565 37.2772 78.9889 37.4972 81.0429H25.0834C24.5417 78.9598 24.1633 76.8137 24.1633 74.5634C24.1636 72.3134 24.542 70.167 25.0837 68.0839ZM27.0642 86.2266H38.2896C39.373 91.6101 41.0496 95.9889 42.7216 99.287C35.8763 97.2417 30.256 92.4935 27.0642 86.2266ZM49.3275 100.406C47.4698 97.5482 45.05 92.8169 43.5847 86.2266H56.5794C55.1163 92.8123 52.6991 97.5417 50.8353 100.406C50.5797 100.413 50.3406 100.482 50.0824 100.482C49.8242 100.482 49.5844 100.413 49.3275 100.406ZM57.4447 99.287C59.119 95.9857 60.7946 91.6104 61.8754 86.2266H73.0996C69.9078 92.4932 64.2887 97.2404 57.4447 99.287ZM75.0801 81.0429H62.6675C62.8866 78.9889 63.0408 76.8565 63.0408 74.5634C63.0408 72.2716 62.8914 70.1366 62.675 68.0839H75.0797C75.6214 70.167 75.9998 72.3131 75.9998 74.5634C75.9998 76.8137 75.6214 78.9601 75.0801 81.0429Z" fill="#E7BE29"/>
<g id="Group_2">
<path id="Vector_16" d="M22.3823 126.405V118.984H25.1818C25.6746 118.984 26.0507 119.008 26.3105 119.055C26.675 119.116 26.9802 119.232 27.2267 119.402C27.473 119.572 27.6712 119.811 27.8216 120.118C27.9716 120.425 28.0467 120.763 28.0467 121.13C28.0467 121.762 27.8459 122.296 27.4445 122.733C27.0427 123.17 26.3173 123.388 25.2677 123.388H23.3643V126.405H22.3823ZM23.3643 122.512H25.2829C25.9172 122.512 26.3679 122.394 26.6345 122.158C26.9011 121.922 27.0343 121.589 27.0343 121.161C27.0343 120.85 26.9559 120.585 26.7988 120.363C26.642 120.142 26.4349 119.996 26.1787 119.925C26.0131 119.882 25.7079 119.86 25.2625 119.86H23.3643V122.512Z" fill="white"/>
<path id="Vector_17" d="M27.7129 126.405L30.5629 118.984H31.621L34.6583 126.405H33.5396L32.6739 124.157H29.5709L28.7558 126.405H27.7129ZM29.8541 123.357H32.3701L31.5954 121.302C31.3592 120.678 31.1836 120.165 31.069 119.763C30.9744 120.239 30.8412 120.712 30.6692 121.181L29.8541 123.357Z" fill="white"/>
<path id="Vector_18" d="M35.1084 124.021L36.0346 123.94C36.0784 124.311 36.1804 124.616 36.3408 124.853C36.5012 125.091 36.75 125.284 37.0876 125.43C37.4252 125.577 37.8045 125.651 38.2267 125.651C38.6012 125.651 38.932 125.595 39.219 125.484C39.5057 125.372 39.7192 125.22 39.8595 125.025C39.9995 124.831 40.0695 124.62 40.0695 124.39C40.0695 124.157 40.0021 123.954 39.867 123.78C39.7319 123.606 39.5093 123.461 39.1986 123.342C38.9994 123.265 38.5591 123.144 37.8774 122.98C37.1958 122.817 36.7182 122.662 36.4448 122.517C36.0904 122.332 35.8263 122.101 35.6527 121.826C35.4787 121.551 35.3919 121.243 35.3919 120.902C35.3919 120.527 35.4981 120.177 35.7107 119.852C35.9232 119.526 36.2336 119.279 36.6421 119.11C37.0503 118.941 37.5042 118.857 38.0038 118.857C38.5539 118.857 39.0389 118.945 39.4591 119.123C39.8793 119.3 40.2023 119.561 40.4284 119.905C40.6546 120.249 40.776 120.639 40.7929 121.074L39.8514 121.145C39.8009 120.676 39.6295 120.322 39.3376 120.082C39.0457 119.842 38.6145 119.723 38.0443 119.723C37.4504 119.723 37.0176 119.831 36.7458 120.049C36.474 120.267 36.3382 120.529 36.3382 120.836C36.3382 121.103 36.4344 121.322 36.6269 121.494C36.8158 121.666 37.3092 121.843 38.1074 122.023C38.9054 122.204 39.4529 122.362 39.75 122.497C40.1819 122.696 40.5007 122.948 40.7067 123.254C40.9124 123.559 41.0155 123.911 41.0155 124.309C41.0155 124.704 40.9024 125.076 40.6763 125.425C40.4501 125.774 40.1252 126.046 39.7017 126.24C39.278 126.434 38.8014 126.531 38.2717 126.531C37.6001 126.531 37.0374 126.433 36.5835 126.238C36.1296 126.042 35.7735 125.748 35.5153 125.354C35.2578 124.962 35.122 124.517 35.1084 124.021Z" fill="white"/>
<path id="Vector_19" d="M42.0234 124.021L42.9497 123.94C42.9934 124.311 43.0955 124.616 43.2558 124.853C43.4162 125.091 43.665 125.284 44.0026 125.43C44.3402 125.577 44.7196 125.651 45.1417 125.651C45.5162 125.651 45.847 125.595 46.1341 125.484C46.4208 125.372 46.6343 125.22 46.7746 125.025C46.9145 124.831 46.9845 124.62 46.9845 124.39C46.9845 124.157 46.9171 123.954 46.782 123.78C46.6469 123.606 46.4243 123.461 46.1136 123.342C45.9144 123.265 45.4741 123.144 44.7925 122.98C44.1108 122.817 43.6333 122.662 43.3598 122.517C43.0054 122.332 42.7414 122.101 42.5677 121.826C42.3937 121.551 42.3069 121.243 42.3069 120.902C42.3069 120.527 42.4132 120.177 42.6257 119.852C42.8382 119.526 43.1486 119.279 43.5571 119.11C43.9654 118.941 44.4192 118.857 44.9188 118.857C45.4689 118.857 45.9539 118.945 46.3741 119.123C46.7943 119.3 47.1173 119.561 47.3435 119.905C47.5696 120.249 47.6911 120.639 47.7079 121.074L46.7665 121.145C46.7159 120.676 46.5445 120.322 46.2526 120.082C45.9607 119.842 45.5295 119.723 44.9593 119.723C44.3655 119.723 43.9326 119.831 43.6608 120.049C43.389 120.267 43.2533 120.529 43.2533 120.836C43.2533 121.103 43.3495 121.322 43.5419 121.494C43.7308 121.666 44.2242 121.843 45.0225 122.023C45.8204 122.204 46.368 122.362 46.665 122.497C47.0969 122.696 47.4157 122.948 47.6217 123.254C47.8275 123.559 47.9305 123.911 47.9305 124.309C47.9305 124.704 47.8174 125.076 47.5913 125.425C47.3652 125.774 47.0402 126.046 46.6168 126.24C46.193 126.434 45.7164 126.531 45.1867 126.531C44.5151 126.531 43.9524 126.433 43.4985 126.238C43.0446 126.042 42.6886 125.748 42.4304 125.354C42.1728 124.962 42.0367 124.517 42.0234 124.021Z" fill="white"/>
<path id="Vector_20" d="M49.2725 126.405V118.984H52.0719C52.5647 118.984 52.9408 119.008 53.2007 119.055C53.5651 119.116 53.8703 119.232 54.1169 119.402C54.3631 119.572 54.5614 119.811 54.7117 120.118C54.8617 120.425 54.9369 120.763 54.9369 121.13C54.9369 121.762 54.736 122.296 54.3346 122.733C53.9329 123.17 53.2075 123.388 52.1578 123.388H50.2544V126.405H49.2725ZM50.2544 122.512H52.173C52.8074 122.512 53.258 122.394 53.5247 122.158C53.7913 121.922 53.9244 121.589 53.9244 121.161C53.9244 120.85 53.846 120.585 53.6889 120.363C53.5321 120.142 53.3251 119.996 53.0688 119.925C52.9033 119.882 52.5981 119.86 52.1526 119.86H50.2544V122.512Z" fill="white"/>
<path id="Vector_21" d="M55.8887 122.791C55.8887 121.559 56.2195 120.595 56.881 119.898C57.5426 119.201 58.3963 118.852 59.4424 118.852C60.1273 118.852 60.7451 119.016 61.2952 119.343C61.8453 119.671 62.2645 120.127 62.5532 120.713C62.8419 121.298 62.986 121.962 62.986 122.704C62.986 123.457 62.8341 124.13 62.5305 124.724C62.2266 125.318 61.7964 125.768 61.2398 126.073C60.6829 126.379 60.0822 126.531 59.4375 126.531C58.739 126.531 58.1147 126.362 57.5646 126.025C57.0145 125.688 56.5979 125.227 56.3144 124.643C56.0303 124.06 55.8887 123.442 55.8887 122.791ZM56.9011 122.806C56.9011 123.7 57.1415 124.405 57.6226 124.919C58.1034 125.434 58.7066 125.691 59.4323 125.691C60.1713 125.691 60.7797 125.431 61.2573 124.912C61.7348 124.392 61.9736 123.655 61.9736 122.7C61.9736 122.096 61.8715 121.568 61.6674 121.118C61.4633 120.667 61.1646 120.318 60.7713 120.07C60.378 119.822 59.9368 119.698 59.4476 119.698C58.7523 119.698 58.1542 119.937 57.653 120.414C57.1515 120.892 56.9011 121.689 56.9011 122.806Z" fill="white"/>
<path id="Vector_22" d="M64.2661 126.405V118.984H67.5564C68.218 118.984 68.7208 119.051 69.0649 119.184C69.4092 119.318 69.684 119.553 69.89 119.89C70.0957 120.228 70.1988 120.601 70.1988 121.009C70.1988 121.535 70.0284 121.979 69.6875 122.34C69.3467 122.701 68.8202 122.931 68.1081 123.029C68.368 123.154 68.5653 123.277 68.7004 123.398C68.9871 123.662 69.2589 123.991 69.5155 124.385L70.8062 126.405H69.5709L68.5889 124.861C68.3019 124.416 68.0657 124.075 67.8801 123.839C67.6944 123.602 67.5282 123.437 67.3815 123.343C67.2347 123.248 67.0854 123.183 66.9334 123.145C66.822 123.122 66.6399 123.11 66.3865 123.11H65.2474V126.405H64.2661V126.405ZM65.2481 122.259H67.3591C67.8078 122.259 68.159 122.213 68.412 122.12C68.6651 122.027 68.8575 121.879 68.989 121.674C69.1206 121.47 69.1863 121.249 69.1863 121.009C69.1863 120.658 69.0587 120.369 68.804 120.143C68.5491 119.917 68.1467 119.804 67.5966 119.804H65.2478L65.2481 122.259Z" fill="white"/>
<path id="Vector_23" d="M73.4392 126.405V119.86H70.9941V118.984H76.8763V119.86H74.4212V126.405H73.4392Z" fill="white"/>
</g>
</g>
<defs>
<clipPath id="clip0_385_82">
<rect width="152" height="152" fill="white"/>
</clipPath>
</defs>
</svg>
